<svg width="108" height="24" viewBox="0 0 108 24" fill="none" xmlns="http://www.w3.org/2000/svg">
<path fill-rule="evenodd" clip-rule="evenodd" d="M9.46321 0.0256568C7.69096 0.200947 6.12641 0.85208 4.68711 2.0134C4.19884 2.40732 3.36746 3.28166 2.99002 3.7981C1.8323 5.38223 1.20095 7.13204 0.880477 9.64489C0.773089 10.4871 0.773172 13.1581 0.880642 14.0837C1.19202 16.7657 1.95117 18.9321 3.13372 20.5133C4.03154 21.7139 5.60365 22.8815 7.02308 23.4021C8.92061 24.098 11.0494 24.1897 13.0092 23.6601C14.4259 23.2772 15.5559 22.5959 16.589 21.5015C17.6624 20.3645 18.3367 19.0846 18.7572 17.3866C18.9515 16.6018 19.1503 15.2483 19.0713 15.2483C19.0619 15.2483 18.2972 15.1246 17.3719 14.9734C16.4466 14.8222 15.6761 14.6985 15.6597 14.6985C15.6434 14.6985 15.5985 14.9411 15.5601 15.2377C15.2683 17.4913 14.4884 19.127 13.2874 20.0042C11.9011 21.0166 9.64584 21.1506 7.95275 20.3211C6.75715 19.7354 5.70248 18.5788 5.10071 17.1936C4.06381 14.8067 3.87259 10.7053 4.66794 7.91089C5.36937 5.44638 7.08357 3.68214 9.20707 3.23924C10.2852 3.01439 11.546 3.11576 12.4772 3.50216C14.0992 4.1752 15.1772 5.74554 15.6432 8.11405C15.7059 8.4327 15.7731 8.69337 15.7927 8.69337C15.835 8.69337 18.7668 8.19596 18.9387 8.15964C19.0577 8.13447 19.0577 8.13435 19.0318 7.88006C18.9827 7.40016 18.7915 6.55724 18.5878 5.92341C17.8796 3.71944 16.503 2.00231 14.6254 0.980682C13.8535 0.560704 12.8179 0.22704 11.857 0.0886259C11.2845 0.0062035 10.0013 -0.0275858 9.46321 0.0256568ZM28.0338 5.61084C27.213 5.68908 26.1665 5.97796 25.5471 6.29725C25.0267 6.56549 24.4933 6.96483 24.043 7.42338C23.4034 8.0748 23.0135 8.67866 22.6887 9.52098C22.5409 9.90459 22.326 10.6726 22.3592 10.6988C22.3668 10.7048 22.9588 10.9206 23.6746 11.1782C24.3905 11.4359 25.0059 11.6587 25.0423 11.6734C25.0959 11.6951 25.1339 11.6178 25.2433 11.2646C25.7236 9.71374 26.6507 8.79597 28.031 8.50485C28.7494 8.35332 29.7642 8.38056 30.48 8.57061C31.0067 8.71042 31.3783 8.9222 31.7332 9.28467C32.2045 9.76601 32.3744 10.1986 32.3455 10.8442C32.3169 11.4826 31.9547 11.9797 31.27 12.3203C30.5906 12.6582 29.4668 13.0297 27.7239 13.4928C25.1677 14.1719 23.6245 14.9477 22.8514 15.942C22.2889 16.6654 22.003 17.5345 21.9525 18.6737C21.8833 20.2371 22.338 21.4733 23.3601 22.5009C24.39 23.5363 25.6959 23.9739 27.7652 23.977C29.033 23.9788 29.7827 23.8455 30.6502 23.4641C31.368 23.1485 32.3907 22.3544 32.6914 21.8794L32.8268 21.6655L32.8379 22.5801L32.849 23.4947H34.2324H35.6158V17.497C35.6158 11.3157 35.6082 10.9886 35.4453 10.1524C35.0435 8.08994 33.8065 6.68635 31.7774 5.99056C30.7462 5.63694 29.2991 5.49019 28.0338 5.61084ZM47.433 5.60767C46.5431 5.71936 45.488 6.10106 44.772 6.57031C44.4137 6.80514 43.9238 7.21891 43.701 7.47484L43.4687 7.74186L43.4675 6.90664L43.4664 6.07142H41.9169H40.3675V14.7831V23.4947H41.9582H43.549V17.77C43.549 11.5667 43.5441 11.7154 43.7742 11.0248C44.308 9.4227 45.8698 8.47478 47.8014 8.5805C48.4043 8.61349 48.8848 8.73161 49.3337 8.95722C49.6131 9.09762 49.7571 9.20753 50.0384 9.49502C50.3408 9.80411 50.4228 9.92053 50.6053 10.3004C50.8388 10.7861 50.9944 11.3377 51.0648 11.9285C51.0956 12.1871 51.1102 14.1028 51.1103 17.9019L51.1104 23.4947H52.7243H54.3383L54.3221 17.3733C54.3077 11.9071 54.2986 11.2044 54.2368 10.8079C54.0077 9.33694 53.5293 8.27052 52.7029 7.38874C51.8023 6.42779 50.8097 5.90467 49.437 5.66751C48.9806 5.58868 47.8528 5.55498 47.433 5.60767ZM64.2292 5.60831C62.5804 5.78153 61.3417 6.32786 60.3122 7.33596C59.6561 7.97834 59.2227 8.62449 58.8931 9.4512C58.7286 9.86378 58.5096 10.6585 58.5502 10.6955C58.5769 10.7198 61.2884 11.6968 61.296 11.6849C61.2995 11.6794 61.3634 11.475 61.4379 11.2308C61.9643 9.50711 63.0303 8.60655 64.7532 8.43025C65.6614 8.3373 66.6326 8.4878 67.3039 8.82549C68.5562 9.45547 68.9449 11.01 68.07 11.8888C67.6223 12.3384 66.5923 12.7536 64.4977 13.3285C62.3702 13.9125 61.747 14.1231 60.8823 14.5498C59.6504 15.1578 58.8146 15.9826 58.4603 16.9398C58.245 17.5215 58.1686 17.9488 58.1457 18.7002C58.1315 19.1653 58.1415 19.5497 58.1736 19.7746C58.3969 21.3376 59.3105 22.6383 60.6757 23.3369C62.043 24.0365 64.3484 24.2009 66.1092 23.7243C67.1054 23.4546 68.4662 22.5393 68.9025 21.8454L69.0222 21.6551L69.0333 22.5749L69.0444 23.4947H70.4299H71.8155L71.8001 17.2887C71.7834 10.572 71.7913 10.8139 71.5593 9.84932C71.2437 8.53766 70.5679 7.50956 69.5589 6.80629C68.6908 6.20117 67.7566 5.84183 66.6002 5.66819C66.074 5.58919 64.7334 5.55536 64.2292 5.60831ZM81.5418 5.61139C79.9325 5.76719 78.6686 6.32351 77.6319 7.33233C77.1319 7.81895 76.7644 8.31446 76.46 8.91252C76.2367 9.35119 75.9387 10.1898 75.8841 10.533L75.8572 10.7021L77.2051 11.1885C77.9465 11.4559 78.5667 11.6799 78.5833 11.6863C78.5999 11.6926 78.6634 11.5272 78.7244 11.3188C78.9672 10.4886 79.3065 9.90095 79.8412 9.38472C80.6268 8.62626 81.7307 8.30427 83.1088 8.43169C84.0941 8.52274 84.7543 8.78641 85.2427 9.28386C86.0207 10.0763 86.0699 11.2677 85.3522 11.9325C84.8526 12.3953 83.6431 12.8485 81.0873 13.5309C77.5076 14.4865 76.0284 15.5904 75.5669 17.6506C75.4605 18.1252 75.418 19.1877 75.4849 19.7006C75.6283 20.8002 76.0801 21.7278 76.8417 22.4861C77.408 23.0499 77.8742 23.3383 78.6424 23.6003C80.1536 24.1158 82.2658 24.1326 83.7014 23.6406C84.5938 23.3348 85.6687 22.5914 86.1282 21.9623L86.3348 21.6795L86.346 22.5871L86.3571 23.4947H87.7405H89.1238L89.1232 17.6059C89.1225 11.7903 89.1092 11.1076 88.9809 10.3427C88.6209 8.19465 87.395 6.74184 85.3249 6.00976C84.2747 5.63837 82.8321 5.48647 81.5418 5.61139ZM100.909 5.61067C99.5948 5.7671 98.2345 6.42403 97.3566 7.32636L96.9744 7.71919V6.89531V6.07142H95.425H93.8755V14.7831V23.4947H95.4456H97.0157L97.0161 18.0499C97.0163 14.8563 97.0331 12.4123 97.0568 12.1386C97.1709 10.8195 97.6958 9.86285 98.6531 9.22939C99.673 8.55449 101.201 8.37265 102.406 8.78286C103.523 9.16338 104.169 9.98845 104.488 11.4422L104.594 11.9285L104.608 17.7116L104.621 23.4947H106.211H107.8V17.4668C107.8 11.2451 107.794 11.0109 107.628 10.2182C107.141 7.89732 105.531 6.23415 103.294 5.73957C102.551 5.57541 101.626 5.52538 100.909 5.61067ZM32.4553 18.4834C32.2543 19.4163 31.4865 20.284 30.4898 20.7046C29.4173 21.1573 27.6781 21.26 26.6083 20.9339C25.6028 20.6274 25.0407 19.8605 25.0388 18.7921C25.0366 17.6514 25.5976 16.9458 26.9595 16.376C27.4251 16.1813 27.7895 16.0645 29.232 15.648C31.155 15.0927 32.2464 14.5643 32.44 14.0948C32.5304 13.8755 32.545 18.0668 32.4553 18.4834ZM68.7012 16.4747C68.6838 18.5523 68.6849 18.5425 68.4053 19.1178C67.9299 20.0958 66.9331 20.7661 65.5659 21.027C65.0784 21.12 63.6178 21.1341 63.2375 21.0494C62.3073 20.8424 61.7498 20.4813 61.4628 19.9001C61.2494 19.4681 61.1682 18.9503 61.2353 18.449C61.4092 17.1491 62.2562 16.5358 64.8961 15.7982C66.4335 15.3686 67.6606 14.9086 68.1725 14.57C68.3274 14.4676 68.4706 14.3277 68.5557 14.1958L68.6916 13.9852L68.7042 14.289C68.7112 14.4561 68.7098 15.4396 68.7012 16.4747ZM86.0166 16.5381L86.0042 18.3988L85.8927 18.7211C85.4705 19.9409 84.4421 20.7278 82.8785 21.0273C82.3455 21.1294 80.8894 21.1313 80.4627 21.0304C79.5641 20.818 79.0369 20.4496 78.7544 19.8367C78.6001 19.5018 78.5462 19.2185 78.5462 18.7427C78.5462 18.0538 78.748 17.5759 79.2359 17.1096C79.7518 16.6165 80.5186 16.2791 82.2062 15.8026C83.2776 15.5 83.9815 15.2667 84.5869 15.0136C85.4454 14.6547 85.7556 14.4492 85.9243 14.1275L86.0042 13.975L86.0166 14.3262C86.0235 14.5193 86.0235 15.5147 86.0166 16.5381Z" fill="#7C7E88"/>
</svg>
