<svg width="114" height="30" viewBox="0 0 114 30" fill="none" xmlns="http://www.w3.org/2000/svg">
<path fill-rule="evenodd" clip-rule="evenodd" d="M12.1807 0.251707C11.4004 0.526133 10.7198 0.896833 10.0239 1.42635C9.72718 1.652 9.39807 1.79473 9.0697 1.83993C5.56425 2.32309 3.69073 4.48444 4.49362 7.11897C5.06421 8.9916 6.93108 10.4309 11.4127 12.4535C14.0665 13.6513 14.5101 13.8237 14.6303 13.704C14.7821 13.5527 16.1272 10.0206 16.6256 8.46451C17.7408 4.98221 17.7577 2.88949 16.6824 1.43686C15.7251 0.143556 13.8737 -0.34381 12.1807 0.251707ZM22.9563 4.4588C21.2932 5.06955 20.1494 6.38829 18.5519 9.53709C17.8348 10.9508 16.3188 14.3102 16.3188 14.4858C16.3188 14.5881 18.8125 15.5791 20.7477 16.246C23.5449 17.2098 25.5594 17.5837 26.807 17.3707C29.1304 16.974 30.4835 15.1664 30.1261 12.9369C30.0044 12.1777 29.4323 10.8548 28.9844 10.2973C28.55 9.75644 28.369 9.35957 28.2892 8.77193C28.171 7.90336 27.7139 6.65241 27.2755 5.99804C26.5196 4.86975 25.4661 4.30797 24.1221 4.31628C23.6871 4.31901 23.1625 4.38312 22.9563 4.4588ZM40.114 5.12925C39.9542 5.3052 39.9395 6.14792 39.9395 15.0931C39.9395 22.553 39.9694 24.8945 40.066 24.9908C40.1506 25.0751 40.6177 25.1169 41.4732 25.1169C42.58 25.1169 42.7776 25.0909 42.9284 24.9247C43.0835 24.7539 43.1029 24.339 43.1029 21.1935V17.6546H46.9039H50.7049L50.9735 17.3869C51.2314 17.1298 51.2406 17.0774 51.2059 16.0644C51.1752 15.1667 51.1393 14.9876 50.9651 14.8607C50.7974 14.7386 50.0701 14.7117 46.9317 14.7117H43.1029V11.2958V7.87992H48.737C53.7182 7.87992 54.3901 7.86079 54.5367 7.7148C54.6668 7.585 54.7024 7.30647 54.7024 6.4173C54.7024 5.45371 54.6736 5.25895 54.5095 5.11096C54.3341 4.95278 53.6813 4.93702 47.3026 4.93702C40.6413 4.93702 40.2797 4.94669 40.114 5.12925ZM78.6142 5.88348C78.1317 6.14476 77.7957 6.75783 77.796 7.37647C77.7965 9.07642 79.8554 9.66731 80.8968 8.26639C81.2047 7.85207 81.2065 6.8581 80.9 6.44893C80.3428 5.70512 79.3824 5.46748 78.6142 5.88348ZM99.5658 5.81474C98.6242 6.24062 98.3017 7.42703 98.8735 8.36129C99.476 9.3457 101.266 9.21842 101.773 8.15519C102.297 7.05381 101.593 5.80202 100.396 5.7089C100.103 5.68609 99.7513 5.73087 99.5658 5.81474ZM69.3184 6.60627C69.1524 6.78905 69.1414 7.31562 69.1736 13.5694C69.2076 20.1612 69.2144 20.3558 69.44 21.1571C69.7328 22.1969 70.1055 22.8802 70.7392 23.539C71.6649 24.5013 72.9324 25.0922 74.1849 25.1453C75.0194 25.1806 75.1601 24.9736 75.158 23.7126C75.156 22.4459 75.0701 22.2937 74.2285 22.0651C73.4636 21.8573 72.9221 21.4157 72.622 20.7547C72.2715 19.9827 72.207 18.7233 72.207 12.6549C72.207 7.07399 72.1966 6.74701 72.0141 6.58242C71.8593 6.44273 71.5926 6.40847 70.6596 6.40847C69.6562 6.40847 69.4735 6.43538 69.3184 6.60627ZM58.3258 10.8208C56.4394 11.3138 54.8892 12.5825 54.0252 14.3404C53.4185 15.5747 53.2823 16.2451 53.2871 17.9699C53.291 19.332 53.3213 19.5834 53.5721 20.3369C54.6811 23.6687 57.6227 25.5184 61.1831 25.1227C62.3568 24.9923 63.374 24.6952 64.2983 24.213C65.1604 23.7633 65.6691 23.2968 65.6691 22.9561C65.6691 22.5949 64.6207 21.0315 64.3259 20.9532C64.1586 20.9089 63.9134 21.0075 63.4832 21.292C62.3673 22.0303 61.7553 22.2213 60.4966 22.224C59.42 22.2265 59.3579 22.2137 58.579 21.8301C57.3803 21.2395 56.5503 20.187 56.3431 18.9946L56.2745 18.6005H61.2191C67.1513 18.6005 66.5707 18.7818 66.555 16.9341C66.5463 15.9143 66.4984 15.5699 66.2674 14.8693C65.5911 12.8179 63.9589 11.3126 61.8244 10.7718C60.9495 10.5502 59.2718 10.5737 58.3258 10.8208ZM88.9962 10.8248C87.7528 11.1495 86.8254 11.6972 85.8016 12.7117C85.0756 13.4311 84.8102 13.7845 84.4576 14.5015C83.8454 15.7467 83.6634 16.5292 83.6634 17.9173C83.6634 19.3032 83.8448 20.0852 84.4557 21.3332C84.8012 22.0389 85.0725 22.4048 85.747 23.0749C86.2165 23.5415 86.8618 24.0697 87.1808 24.2486C89.8286 25.7338 93.2151 25.402 95.2507 23.4578C96.2312 22.5214 96.5522 21.8515 96.2197 21.435C95.9009 21.0357 94.8395 20.2822 94.596 20.2822C94.419 20.2822 94.0851 20.5074 93.5785 20.9682C92.5637 21.8913 92.0917 22.1097 91.0096 22.1572C89.5718 22.2203 88.4849 21.7094 87.649 20.5777C86.9993 19.698 86.8116 19.0781 86.812 17.8122C86.8122 16.8494 86.8404 16.7019 87.1478 16.0546C87.594 15.1149 88.3057 14.3733 89.1666 13.9509C89.779 13.6504 89.9578 13.6122 90.7602 13.6103C91.5705 13.6083 91.7349 13.6433 92.3486 13.9485C92.7252 14.1358 93.2658 14.5023 93.5501 14.7631C93.8399 15.0288 94.1703 15.2372 94.3019 15.2372C94.4448 15.2372 94.8301 14.9663 95.2875 14.5441C95.9634 13.9204 96.0385 13.8114 96.0385 13.4539C96.0385 13.0968 95.9599 12.9824 95.2615 12.321C94.4231 11.5273 93.554 11.0382 92.5102 10.7726C91.6292 10.5484 89.9596 10.5732 88.9962 10.8248ZM107.244 10.7747C106.029 11.1008 105.076 11.8302 104.572 12.8198C104.289 13.3761 104.171 14.8237 104.355 15.4999C104.546 16.205 105.123 17.0394 105.789 17.5733C106.151 17.8638 107.193 18.4579 108.246 18.9746C110.169 19.9185 110.823 20.4048 110.937 20.9765C111.033 21.4534 110.72 21.9768 110.169 22.2614C109.747 22.479 109.594 22.5003 108.798 22.4514C107.823 22.3916 107.087 22.1751 106.075 21.6497C105.152 21.171 105.003 21.2313 104.462 22.3034C103.921 23.3752 103.956 23.5177 104.894 24.0815C106.698 25.1662 109.444 25.485 111.213 24.8151C112.456 24.3445 113.197 23.6683 113.721 22.5295C113.953 22.0222 114 21.7714 114 21.0224C114 19.8038 113.661 19.0302 112.78 18.235C112.165 17.6804 111.597 17.3657 109.214 16.258C107.746 15.5759 107.216 15.115 107.216 14.5213C107.216 13.2126 108.899 12.911 111.354 13.7799C112.23 14.0898 112.289 14.0975 112.54 13.9341C112.903 13.6969 113.332 12.8134 113.332 12.3031C113.332 11.9525 113.277 11.8438 112.989 11.6336C112.124 10.9995 110.541 10.6089 108.881 10.6196C108.284 10.6233 107.548 10.6931 107.244 10.7747ZM78.0757 11.1202C77.9173 11.2946 77.9012 11.9164 77.9012 17.8831C77.9012 24.1152 77.9111 24.4626 78.0941 24.6277C78.3913 24.8959 80.5379 24.8813 80.7847 24.6094C80.9432 24.4349 80.9593 23.8131 80.9593 17.8465C80.9593 11.6144 80.9493 11.2669 80.7664 11.1019C80.4691 10.8336 78.3226 10.8483 78.0757 11.1202ZM98.8389 11.1616C98.6947 11.3668 98.6747 12.1793 98.6747 17.8648C98.6747 23.5502 98.6947 24.3627 98.8389 24.568C98.9929 24.7871 99.0807 24.8016 100.256 24.8016C101.432 24.8016 101.52 24.7871 101.674 24.568C101.818 24.3627 101.838 23.5502 101.838 17.8648C101.838 12.1793 101.818 11.3668 101.674 11.1616C101.52 10.9424 101.432 10.9279 100.256 10.9279C99.0807 10.9279 98.9929 10.9424 98.8389 11.1616ZM2.97948 12.7482C0.897905 13.2807 -0.311388 15.1212 0.0698117 17.1767C0.208056 17.9224 0.743422 19.1156 1.21889 19.7378C1.67633 20.3364 1.8131 20.6817 2.01293 21.7419C2.20347 22.7527 2.73019 23.9234 3.27484 24.5462C3.48057 24.7815 3.94908 25.1363 4.31594 25.3345C4.94948 25.6769 5.03616 25.695 6.03972 25.695C7.01502 25.695 7.14915 25.6691 7.77963 25.3595C9.11315 24.7047 10.2325 23.2962 11.6697 20.4646C12.4565 18.9141 13.9445 15.5656 13.8749 15.5016C13.8562 15.4843 13.1527 15.1985 12.3117 14.8664C10.3282 14.0832 7.31914 13.0937 6.2484 12.8726C5.10533 12.6364 3.63495 12.5805 2.97948 12.7482ZM61.1387 13.4073C62.0043 13.6495 62.6937 14.2109 63.1104 15.0131C63.2998 15.3777 63.4547 15.8137 63.4547 15.982V16.2882H59.9748C56.1192 16.2882 56.3731 16.3438 56.6503 15.5606C57.2699 13.8103 59.2253 12.8722 61.1387 13.4073ZM15.3254 16.84C14.3476 19.054 13.0754 22.9183 12.8375 24.3965C12.6359 25.6491 12.7354 27.1427 13.0686 27.8622C13.4372 28.6586 13.9679 29.2181 14.7615 29.647C15.3963 29.9902 15.4663 30.004 16.5297 29.9994C17.8544 29.9936 18.5 29.7692 19.8629 28.8408C20.5849 28.3491 20.8256 28.2431 21.4098 28.1607C22.5356 28.0018 23.7161 27.5383 24.4862 26.9529C25.4534 26.2176 26.0374 24.7216 25.8342 23.4997C25.511 21.5554 24.109 20.2298 20.4313 18.3918C18.7316 17.5422 15.9064 16.2882 15.6923 16.2882C15.6245 16.2882 15.4594 16.5366 15.3254 16.84Z" fill="#7C7E88"/>
</svg>
