<svg width="80" height="64" viewBox="0 0 80 64" fill="none" xmlns="http://www.w3.org/2000/svg">
<path fill-rule="evenodd" clip-rule="evenodd" d="M11.2381 12.1287C11.1475 12.219 11.119 14.1229 11.119 20.0931V27.9387H12.5085H13.8981V20.1298C13.8981 13.1628 13.8813 12.3041 13.7421 12.1654C13.5439 11.9679 11.4305 11.937 11.2381 12.1287ZM7.31567 16.4868C7.15945 16.6012 7.14873 17.0449 7.17265 22.3983C7.19826 28.1212 7.20074 28.1858 7.39706 28.1606C7.50623 28.1467 7.98642 28.1067 8.46402 28.0718L9.33247 28.0084V22.1858V16.3632H8.40854C7.82563 16.3632 7.42227 16.4088 7.31567 16.4868ZM15.6094 22.1757L15.635 27.9882L16.429 28.0565C16.8657 28.0941 17.3347 28.1386 17.4712 28.1554L17.7193 28.1861L17.7449 22.4094C17.7634 18.2252 17.7396 16.5956 17.6583 16.4979C17.5774 16.4009 17.2719 16.3632 16.565 16.3632H15.5838L15.6094 22.1757ZM3.94804 20.2296C3.78696 20.3232 3.77435 20.635 3.77435 24.5323V28.734L3.99767 28.6865C4.12054 28.6605 4.47775 28.5896 4.79169 28.5292L5.36239 28.4194V24.2711V20.1228L4.74206 20.1257C4.40093 20.1274 4.04352 20.1741 3.94804 20.2296ZM19.5224 20.1887C19.486 20.225 19.4562 22.0711 19.4562 24.291V28.3275L19.6795 28.4467C19.8024 28.5122 19.9146 28.5544 19.929 28.5407C19.9597 28.5113 20.7159 28.6232 20.9698 28.6946C21.1333 28.7407 21.1435 28.4966 21.1435 24.5518C21.1435 21.4236 21.1133 20.3301 21.0244 20.2415C20.8991 20.1166 19.639 20.0724 19.5224 20.1887ZM38.9681 22.2036C37.5475 22.365 35.9285 22.9494 34.6585 23.7592C33.4209 24.5484 32.1011 26.0563 31.3901 27.4935C30.7994 28.6876 30.3739 30.5104 30.3739 31.8467C30.3739 33.9772 31.2146 36.3894 32.527 38.0244C34.3514 40.2973 37.1666 41.5885 40.3038 41.5911C42.614 41.5929 44.6342 40.922 46.3266 39.5911C47.8633 38.3824 48.8132 36.9153 49.5151 34.6664C49.7019 34.0677 49.8234 32.974 49.8254 31.8714L49.8274 30.8079H45.4106H40.9939V32.3414V33.8749H43.5823H46.1708L46.1057 34.1965C46.07 34.3733 45.8868 34.8475 45.6988 35.25C45.1 36.5316 43.8668 37.5211 42.2346 38.0293C41.1922 38.354 39.542 38.3384 38.463 37.9939C36.5306 37.377 35.083 36.0005 34.3616 34.0937C34.134 33.4919 34.1098 33.2859 34.1031 31.8962C34.0968 30.5427 34.1221 30.2903 34.3193 29.7472C34.7338 28.6052 35.2336 27.8441 36.072 27.0784C38.4551 24.9016 42.4369 24.8979 44.8152 27.0703C45.2028 27.4243 45.5201 27.6401 45.6051 27.6077C45.6832 27.5778 46.2874 27.1244 46.9478 26.6001L48.1483 25.6469L47.7799 25.2345C46.4465 23.7426 44.5196 22.6858 42.4449 22.3086C41.5908 22.1531 39.8695 22.1013 38.9681 22.2036ZM70.8192 22.1685C70.1225 22.2276 69.1474 22.4067 68.6356 22.5694C64.8701 23.7666 62.3038 26.9204 61.9366 30.8022C61.8433 31.7889 61.9185 33.3876 62.0938 34.1441C62.822 37.2853 65.1105 39.8505 68.2026 40.9912C69.8852 41.612 72.0232 41.7588 73.9312 41.3848C74.5124 41.2709 75.0303 41.1373 75.0821 41.088C75.134 41.0387 75.2495 40.9983 75.339 40.9983C75.689 40.9983 77.51 39.9959 78.2633 39.3885C78.953 38.8324 80.0895 37.5824 79.9861 37.4937C79.9665 37.4768 79.299 37.0589 78.5028 36.5651L77.0552 35.6671L76.2696 36.4302C74.9743 37.6884 73.6327 38.2281 71.8003 38.2281C69.995 38.2281 68.489 37.6124 67.279 36.3796C66.0529 35.1303 65.4768 33.6788 65.4802 31.8467C65.4837 29.945 66.036 28.5943 67.3422 27.2929C68.2732 26.3653 69.1697 25.8775 70.408 25.6246C72.6506 25.1665 74.6899 25.7376 76.2748 27.2672L77.0657 28.0307L77.3398 27.8611C77.4905 27.7678 78.1507 27.3625 78.807 26.9604C79.4632 26.5585 80 26.1935 80 26.1494C80 25.9581 78.2392 24.2478 77.6354 23.8527C75.6178 22.532 73.2952 21.9581 70.8192 22.1685ZM54.1614 22.4643C54.125 22.5005 54.0952 26.7523 54.0952 31.9127V41.2951H55.8321H57.569V31.8467V22.3983H55.8983C54.9793 22.3983 54.1977 22.428 54.1614 22.4643ZM8.29033 29.7871C8.01738 29.8045 7.64896 29.8431 7.4715 29.8726L7.14893 29.9265V38.5096C7.14893 45.0535 7.17721 47.121 7.26803 47.2115C7.34445 47.2877 7.73561 47.3302 8.3598 47.3302H9.33247V38.5249V29.7196L9.05953 29.7374C8.90946 29.7472 8.56327 29.7695 8.29033 29.7871ZM11.1434 40.6768L11.1686 51.634L12.4083 51.662C13.4875 51.6863 13.664 51.6678 13.773 51.5194C13.8718 51.3847 13.8981 49.0778 13.8981 40.5342V29.7196H12.5081H11.1181L11.1434 40.6768ZM15.5854 38.5313V47.3302H16.558C17.1822 47.3302 17.5734 47.2877 17.6498 47.2115C17.7406 47.121 17.7689 45.0643 17.7689 38.5581C17.7689 30.5297 17.7586 30.0181 17.5952 29.9344C17.4997 29.8854 17.0083 29.8199 16.5034 29.7888L15.5854 29.7324V38.5313ZM4.86613 30.2143C4.67507 30.2562 4.18377 30.3593 3.77435 30.4434C2.89091 30.6249 1.63438 31.028 1.09177 31.3039C-0.604851 32.1668 -0.314241 33.1304 1.89511 33.9672C2.18523 34.0771 2.44765 34.1398 2.47812 34.1063C2.50869 34.073 2.48001 34.0265 2.4144 34.0031C2.12071 33.8983 1.65314 33.5091 1.58009 33.3087C1.4193 32.8675 2.3086 32.2422 3.50141 31.9575L3.77435 31.8924V37.6128C3.77435 41.9301 3.80353 43.3623 3.89346 43.4519C3.96273 43.521 4.29483 43.5707 4.68747 43.5707H5.36239V36.843C5.36239 33.1428 5.32894 30.1205 5.28795 30.1267C5.24696 30.1329 5.05719 30.1724 4.86613 30.2143ZM19.4562 36.8925V43.5707H20.1885C20.6793 43.5707 20.9571 43.5269 21.031 43.4381C21.1075 43.3463 21.1493 41.955 21.1672 38.9118L21.1931 34.518L21.6397 34.3884C23.8194 33.7559 24.554 33.387 24.8781 32.7621C25.0015 32.5244 25.0001 32.4526 24.8673 32.1967C24.6512 31.7798 24.1461 31.4096 23.3613 31.0926C22.5233 30.7542 22.1243 30.7125 22.6323 31.0165C23.1047 31.2993 23.4263 31.6055 23.4263 31.7726C23.4263 32.0401 22.8738 32.4569 22.1582 32.729C21.7611 32.8801 21.3703 32.9785 21.2898 32.9478C21.1718 32.9026 21.1435 32.6555 21.1435 31.6717V30.4517L20.5668 30.333C20.2496 30.2677 19.87 30.2143 19.7232 30.2143H19.4562V36.8925Z" fill="#7C7E88"/>
</svg>
