<svg width="193" height="64" viewBox="0 0 193 64" fill="none" xmlns="http://www.w3.org/2000/svg">
<path fill-rule="evenodd" clip-rule="evenodd" d="M91.8868 21.0959C87.4396 22.8942 84.6318 27.0746 84.6349 31.8923C84.6391 38.3797 89.6048 43.52 95.8675 43.52C101.417 43.52 105.888 39.7198 107.078 33.9923C107.273 33.0504 107.39 31.8985 107.337 31.4327L107.241 30.586L101.618 30.509C98.0631 30.4601 95.7885 30.5422 95.4336 30.7322C94.681 31.1352 94.6736 32.5928 95.4222 32.9935C95.7322 33.1593 97.8567 33.2878 100.288 33.2878H104.603L104.407 34.3543C104.146 35.7752 102.752 37.9145 101.374 39.0054C96.9969 42.4737 90.6875 41.1231 88.1237 36.1694C87.2945 34.5674 87.1953 34.1243 87.1953 32.0194C87.1953 29.0474 87.8538 27.446 89.888 25.4717C93.8379 21.6377 100.347 22.4155 103.286 27.0726C103.922 28.0788 104.083 28.1686 105.254 28.1686C105.956 28.1686 106.53 28.0913 106.53 27.9966C106.53 27.5893 105.013 24.8397 104.447 24.2232C103.672 23.3771 100.957 21.343 100.604 21.343C100.458 21.343 99.9733 21.1519 99.5252 20.9182C98.2605 20.2583 93.6949 20.3647 91.8868 21.0959ZM93.4507 25.7632C91.0082 26.8578 89.7543 28.9166 89.7543 31.8323C89.7543 33.6334 89.8391 33.9235 90.6903 35.04C92.9292 37.9759 96.0924 38.8237 99.0924 37.2922C99.6645 37.0001 100.376 36.4916 100.674 36.162L101.216 35.563H98.317C95.1095 35.563 93.6653 35.0875 92.7833 33.7409C92.1459 32.768 92.168 30.2115 92.8203 29.4396C93.9798 28.068 94.5653 27.8842 97.7791 27.8842C101.302 27.8842 101.61 27.6206 99.6349 26.2962C98.644 25.6315 98.068 25.4705 96.4362 25.4014C95.0827 25.3443 94.1274 25.46 93.4507 25.7632ZM14.1811 26.3223C12.1549 27.2028 11.2823 28.6152 11.28 31.0178C11.2783 32.535 11.4088 33.064 11.9986 33.932C13.3557 35.9296 16.2113 36.6921 18.5985 35.6944C20.4294 34.9291 20.6611 34.558 20.6611 32.3906V30.4438H18.2442H15.8274V31.297C15.8274 32.1187 15.8749 32.1502 17.1069 32.1502C18.3347 32.1502 18.3864 32.1844 18.3864 32.9906C18.3864 33.7258 18.2619 33.8544 17.3912 34.0176C15.7182 34.3316 14.4478 33.9394 13.8246 32.917C11.9553 29.8503 15.0773 26.5783 18.1518 28.3819C18.9841 28.8703 19.0108 28.8668 19.5536 28.1991C20.0728 27.5609 20.0776 27.4861 19.6307 26.9921C18.6727 25.9333 15.8692 25.5886 14.1811 26.3223ZM64.1392 27.8131C61.3149 33.9934 60.7522 35.2809 60.7522 35.5639C60.7522 35.7197 61.1864 35.8474 61.717 35.8474C62.5589 35.8474 62.7335 35.7175 63.0886 34.8267L63.4958 33.8063L65.8051 33.7602L68.1148 33.7144L68.5336 34.7809C68.9086 35.7368 69.0579 35.8474 69.9703 35.8474C70.9769 35.8474 71.2928 35.4291 70.7321 34.8378C70.5913 34.6894 69.9374 33.2878 69.2791 31.7236C67.0573 26.4446 66.7306 25.8934 65.8236 25.8934C65.1034 25.8934 64.9223 26.0999 64.1392 27.8131ZM115.766 26.1787C115.295 26.3246 114.399 26.9662 113.776 27.6044C112.653 28.7545 112.643 28.7847 112.644 30.9552C112.645 33.5222 113.064 34.3489 114.912 35.4325C116.94 36.621 120.15 36.2095 121.144 34.6336C121.384 34.2531 121.315 34.0142 120.824 33.523C120.228 32.9272 120.172 32.9207 119.655 33.3891C119.356 33.6596 118.65 33.9559 118.086 34.0475C115.074 34.5361 113.33 31.218 115.374 28.8896C116.125 28.0341 116.437 27.8842 117.468 27.8842C118.27 27.8842 118.938 28.087 119.443 28.4846C120.174 29.06 120.229 29.0642 120.761 28.5827C121.521 27.8945 121.458 27.4554 120.499 26.7728C119.555 26.0999 117.041 25.7845 115.766 26.1787ZM167.458 26.0769C166.556 26.2745 165.387 27.7807 165.387 28.746C165.387 30.4825 165.881 30.9708 168.446 31.7709C170.951 32.5521 171.537 33.0922 170.622 33.7781C169.9 34.3202 167.556 34.1061 166.809 33.43C166.264 32.9369 166.221 32.9451 165.487 33.6795C164.751 34.4161 164.744 34.4508 165.271 34.8475C166.114 35.4828 168.217 36.1318 169.433 36.1318C171.521 36.1318 173.121 34.8279 173.121 33.1266C173.121 31.6696 172.236 30.8938 169.654 30.0892C168.131 29.6145 167.494 29.2755 167.422 28.9018C167.219 27.8441 169.251 27.5154 170.858 28.3461C171.716 28.7901 171.771 28.7832 172.265 28.1723C172.947 27.3311 172.926 27.2398 171.918 26.6443C171.048 26.1303 168.622 25.8218 167.458 26.0769ZM22.3671 31.0126V35.8474H26.2056H30.0441V34.9942V34.141H27.2008H24.3574V33.0034V31.8658H26.7743H29.1911V31.0126V30.1594H26.7743H24.3574V29.0218V27.8842H27.2008H30.0441V27.031V26.1778H26.2056H22.3671V31.0126ZM31.7501 31.0126V35.8474H32.7359H33.7217L33.8022 32.7182L33.8826 29.5892L35.7752 32.0783C38.5531 35.7325 38.672 35.8474 39.6737 35.8474H40.5645V31.0126V26.1778H39.5693H38.5741V29.3173V32.4568L37.3535 30.9526C36.6822 30.1253 35.5793 28.7127 34.9025 27.8131C33.83 26.3877 33.5488 26.1778 32.7112 26.1778H31.7501V31.0126ZM42.2705 31.0126V35.8474H46.109H49.9475V34.9942V34.141H47.2463H44.5452V33.0034V31.8658H46.8198H49.0945V31.0126V30.1594H46.7414H44.3879L44.4965 29.0218L44.6049 27.8842H47.134H49.6632V27.031V26.1778H45.9668H42.2705V31.0126ZM51.6535 31.1719V36.1663L52.7198 36.0778L53.786 35.9896L53.8713 34.3543C53.9544 32.7637 53.9788 32.719 54.7715 32.719C55.5822 32.719 56.732 33.849 57.5933 35.4919C57.8554 35.9916 58.1762 36.1318 59.0562 36.1318C59.6763 36.1318 60.1836 36.0414 60.1836 35.9308C60.1836 35.8204 59.647 34.9647 58.9911 34.0296C58.2083 32.9133 57.9205 32.2885 58.1531 32.2111C58.3482 32.146 58.821 31.7549 59.2034 31.3423C59.7346 30.7695 59.8992 30.2783 59.8992 29.2676C59.8992 28.1075 59.7744 27.8336 58.8941 27.0606C57.9006 26.1881 57.8531 26.1778 54.7712 26.1778H51.6535V31.1719ZM72.1256 31.1548V36.1318H75.6798H79.2339V35.1364V34.141H76.8171H74.4003V30.1594V26.1778H73.2629H72.1256V31.1548ZM125.815 26.9599C125.638 27.39 125.264 28.254 124.985 28.8796C123.343 32.5581 122.168 35.4251 122.168 35.7542C122.168 35.9939 122.521 36.1318 123.133 36.1318C123.992 36.1318 124.147 36.0084 124.552 34.9942L125.007 33.8566H127.241H129.475L129.922 34.9942C130.327 36.0263 130.463 36.1318 131.387 36.1318C131.946 36.1318 132.404 36.0041 132.404 35.8483C132.404 35.6922 132.006 34.7005 131.52 33.6442C130.104 30.5715 129.643 29.5511 128.884 27.8131C128.207 26.2603 128.12 26.1778 127.154 26.1778C126.312 26.1778 126.081 26.3126 125.815 26.9599ZM131.32 27.1021C131.406 27.9949 131.453 28.0264 132.689 28.0264H133.968L134.11 32.008L134.253 35.9896L135.319 36.0778L136.385 36.1663L136.385 32.0962V28.0264L137.807 28.1251L139.228 28.2235V27.2008V26.1778H135.23H131.231L131.32 27.1021ZM140.799 30.0883C139.891 32.2393 138.975 34.2824 138.762 34.6288C138.104 35.701 138.27 36.1318 139.34 36.1318C140.199 36.1318 140.354 36.0084 140.759 34.9942L141.214 33.8566H143.448H145.682L146.129 34.9942C146.534 36.0263 146.67 36.1318 147.594 36.1318C148.153 36.1318 148.612 36.026 148.612 35.8964C148.612 35.6128 146.676 31.0985 145.329 28.2397C144.406 26.2834 144.308 26.1778 143.403 26.1778H142.45L140.799 30.0883ZM149.749 31.1548V36.1318H153.303H156.857V35.1364V34.141H154.44H152.024V30.1594V26.1778H150.886H149.749V31.1548ZM155.436 26.4196C155.436 26.5524 155.819 27.1914 156.289 27.839C156.758 28.4869 157.142 29.0756 157.142 29.1473C157.142 29.2189 157.519 29.8375 157.981 30.5221C158.692 31.5758 158.834 32.0897 158.905 33.878L158.99 35.9896H159.985H160.98L161.137 33.7144C161.27 31.7834 161.426 31.2458 162.171 30.1594C162.653 29.4556 163.442 28.2719 163.924 27.5287L164.799 26.1778H163.589C162.399 26.1778 162.359 26.21 161.297 28.0264C160.702 29.0432 160.132 29.8725 160.029 29.8696C159.927 29.8665 159.358 29.0346 158.765 28.021C157.727 26.2447 157.647 26.1778 156.561 26.1778C155.942 26.1778 155.436 26.2865 155.436 26.4196ZM173.97 27.1021C174.056 27.9949 174.103 28.0264 175.339 28.0264H176.618L176.761 32.008L176.903 35.9896L177.969 36.0778L179.035 36.1663L179.035 32.0962V28.0264L180.457 28.1251L181.879 28.2235V27.2008V26.1778H177.88H173.881L173.97 27.1021ZM57.6137 28.8259C58.028 29.5827 58.0155 29.6543 57.3797 30.1768C56.9185 30.5556 56.2737 30.7282 55.3183 30.7282H53.9282V29.2835V27.8387L55.5523 27.9326C56.9945 28.0159 57.2256 28.116 57.6137 28.8259ZM128.265 31.2259C128.45 31.8263 128.38 31.8658 127.133 31.8658C126.184 31.8658 125.844 31.7643 125.945 31.5103C126.023 31.315 126.313 30.5943 126.59 29.9089L127.094 28.6629L127.58 29.6245C127.848 30.1535 128.156 30.8741 128.265 31.2259ZM66.717 30.7425C66.7204 30.9851 66.8768 31.3369 67.0644 31.5246C67.3297 31.7899 67.0806 31.8658 65.9427 31.8658H64.4801L65.0823 30.4165L65.6843 28.9672L66.1975 29.6344C66.4796 30.0013 66.7136 30.4999 66.717 30.7425ZM144.34 30.7425C144.344 30.9851 144.5 31.3369 144.688 31.5246C144.953 31.7899 144.704 31.8658 143.566 31.8658H142.103L142.706 30.4165L143.308 28.9672L143.821 29.6344C144.103 30.0013 144.337 30.4999 144.34 30.7425Z" fill="#7C7E88"/>
</svg>
