<svg width="181" height="24" viewBox="0 0 181 24" fill="none" xmlns="http://www.w3.org/2000/svg">
<rect x="0.5" y="1" width="6" height="22" stroke="white"/>
<circle cx="13.5" cy="12" r="10.5" fill="white"/>
<circle cx="23.5" cy="21" r="1.5" fill="white"/>
<path d="M35.0567 21V3.5H41.7317C42.8817 3.5 43.8817 3.71667 44.7317 4.15C45.5817 4.58333 46.2401 5.19167 46.7067 5.975C47.1734 6.75833 47.4067 7.66667 47.4067 8.7C47.4067 9.75 47.1734 10.6667 46.7067 11.45C46.2401 12.2333 45.5817 12.8417 44.7317 13.275C43.8817 13.7083 42.8817 13.925 41.7317 13.925H37.9817V21H35.0567ZM37.9817 11.425H41.4317C42.0651 11.425 42.6067 11.3167 43.0567 11.1C43.5234 10.8667 43.8817 10.55 44.1317 10.15C44.3817 9.73333 44.5067 9.25 44.5067 8.7C44.5067 7.88333 44.2317 7.23333 43.6817 6.75C43.1317 6.26667 42.3817 6.025 41.4317 6.025H37.9817V11.425ZM55.4284 21.2C54.1784 21.2 53.0618 20.925 52.0784 20.375C51.0951 19.8083 50.3201 19.0417 49.7534 18.075C49.2034 17.0917 48.9284 15.9667 48.9284 14.7C48.9284 13.7333 49.0868 12.8583 49.4034 12.075C49.7201 11.2917 50.1701 10.6083 50.7534 10.025C51.3368 9.44167 52.0201 8.99167 52.8034 8.675C53.6034 8.35833 54.4784 8.2 55.4284 8.2C56.6951 8.2 57.8118 8.475 58.7784 9.025C59.7618 9.575 60.5284 10.3417 61.0784 11.325C61.6451 12.2917 61.9284 13.4167 61.9284 14.7C61.9284 15.65 61.7701 16.525 61.4534 17.325C61.1368 18.1083 60.6784 18.7917 60.0784 19.375C59.4951 19.9583 58.8118 20.4083 58.0284 20.725C57.2451 21.0417 56.3784 21.2 55.4284 21.2ZM55.4284 18.85C55.9784 18.85 56.4784 18.75 56.9284 18.55C57.3784 18.3333 57.7701 18.0417 58.1034 17.675C58.4368 17.3083 58.6951 16.875 58.8784 16.375C59.0618 15.8583 59.1534 15.2917 59.1534 14.675C59.1534 13.8583 58.9951 13.1417 58.6784 12.525C58.3618 11.9083 57.9201 11.425 57.3534 11.075C56.8034 10.725 56.1618 10.55 55.4284 10.55C54.8784 10.55 54.3701 10.65 53.9034 10.85C53.4534 11.05 53.0618 11.3333 52.7284 11.7C52.4118 12.0667 52.1618 12.5083 51.9784 13.025C51.7951 13.525 51.7034 14.075 51.7034 14.675C51.7034 15.5083 51.8618 16.2417 52.1784 16.875C52.4951 17.4917 52.9368 17.975 53.5034 18.325C54.0701 18.675 54.7118 18.85 55.4284 18.85ZM65.2722 21V8.4H67.9972V10.475C68.2638 10.025 68.6138 9.63333 69.0472 9.3C69.4972 8.95 70.0222 8.68333 70.6222 8.5C71.2222 8.3 71.8638 8.2 72.5472 8.2C72.8638 8.2 73.1972 8.225 73.5472 8.275C73.9138 8.30833 74.2305 8.36667 74.4972 8.45L74.2972 11.025C73.9472 10.9083 73.5972 10.8333 73.2472 10.8C72.9138 10.75 72.5972 10.725 72.2972 10.725C71.6638 10.725 71.0888 10.8417 70.5722 11.075C70.0555 11.2917 69.5972 11.625 69.1972 12.075C68.8138 12.525 68.5138 13.1083 68.2972 13.825C68.0972 14.525 67.9972 15.3583 67.9972 16.325V21H65.2722ZM84.4704 21.2C83.4537 21.2 82.5621 21.0333 81.7954 20.7C81.0287 20.3667 80.4287 19.8583 79.9954 19.175C79.5787 18.4917 79.3704 17.6333 79.3704 16.6V5.275H82.1204V16.25C82.1204 17.15 82.3454 17.8 82.7954 18.2C83.2454 18.6 83.8954 18.8 84.7454 18.8C85.0954 18.8 85.4121 18.775 85.6954 18.725C85.9954 18.675 86.2704 18.6167 86.5204 18.55L86.7204 20.875C86.4537 20.975 86.1121 21.05 85.6954 21.1C85.2954 21.1667 84.8871 21.2 84.4704 21.2ZM76.5454 10.65V8.4H86.5454V10.65H76.5454ZM92.0454 21V7.475C92.0454 6.475 92.2787 5.64167 92.7454 4.975C93.2121 4.29167 93.8287 3.78333 94.5954 3.45C95.3787 3.1 96.2454 2.925 97.1954 2.925C97.6454 2.925 98.0537 2.95833 98.4204 3.025C98.8037 3.075 99.1371 3.15 99.4204 3.25L99.1954 5.575C98.9121 5.475 98.6371 5.40833 98.3704 5.375C98.1037 5.325 97.8287 5.3 97.5454 5.3C97.0287 5.3 96.5621 5.38333 96.1454 5.55C95.7287 5.71667 95.3954 5.96667 95.1454 6.3C94.9121 6.63333 94.7954 7.06667 94.7954 7.6V21H92.0454ZM89.0954 10.65V8.4H99.2204V10.65H89.0954ZM107.577 21.2C106.327 21.2 105.21 20.925 104.227 20.375C103.244 19.8083 102.469 19.0417 101.902 18.075C101.352 17.0917 101.077 15.9667 101.077 14.7C101.077 13.7333 101.235 12.8583 101.552 12.075C101.869 11.2917 102.319 10.6083 102.902 10.025C103.485 9.44167 104.169 8.99167 104.952 8.675C105.752 8.35833 106.627 8.2 107.577 8.2C108.844 8.2 109.96 8.475 110.927 9.025C111.91 9.575 112.677 10.3417 113.227 11.325C113.794 12.2917 114.077 13.4167 114.077 14.7C114.077 15.65 113.919 16.525 113.602 17.325C113.285 18.1083 112.827 18.7917 112.227 19.375C111.644 19.9583 110.96 20.4083 110.177 20.725C109.394 21.0417 108.527 21.2 107.577 21.2ZM107.577 18.85C108.127 18.85 108.627 18.75 109.077 18.55C109.527 18.3333 109.919 18.0417 110.252 17.675C110.585 17.3083 110.844 16.875 111.027 16.375C111.21 15.8583 111.302 15.2917 111.302 14.675C111.302 13.8583 111.144 13.1417 110.827 12.525C110.51 11.9083 110.069 11.425 109.502 11.075C108.952 10.725 108.31 10.55 107.577 10.55C107.027 10.55 106.519 10.65 106.052 10.85C105.602 11.05 105.21 11.3333 104.877 11.7C104.56 12.0667 104.31 12.5083 104.127 13.025C103.944 13.525 103.852 14.075 103.852 14.675C103.852 15.5083 104.01 16.2417 104.327 16.875C104.644 17.4917 105.085 17.975 105.652 18.325C106.219 18.675 106.86 18.85 107.577 18.85ZM119.346 21V3.3H122.096V21H119.346ZM116.671 21V18.75H124.771V21H116.671ZM117.346 5.55V3.3H122.096V5.55H117.346ZM130.574 21V8.4H133.324V21H130.574ZM127.899 21V18.75H135.999V21H127.899ZM128.574 10.65V8.4H133.324V10.65H128.574ZM131.949 6.5C131.433 6.5 130.999 6.33333 130.649 6C130.299 5.66667 130.124 5.24167 130.124 4.725C130.124 4.375 130.199 4.075 130.349 3.825C130.516 3.55833 130.733 3.35 130.999 3.2C131.283 3.03333 131.599 2.95 131.949 2.95C132.483 2.95 132.924 3.11667 133.274 3.45C133.624 3.78333 133.799 4.20833 133.799 4.725C133.799 5.05833 133.716 5.35833 133.549 5.625C133.383 5.89167 133.158 6.10833 132.874 6.275C132.608 6.425 132.299 6.5 131.949 6.5ZM145.028 21.2C143.778 21.2 142.661 20.925 141.678 20.375C140.695 19.8083 139.92 19.0417 139.353 18.075C138.803 17.0917 138.528 15.9667 138.528 14.7C138.528 13.7333 138.686 12.8583 139.003 12.075C139.32 11.2917 139.77 10.6083 140.353 10.025C140.936 9.44167 141.62 8.99167 142.403 8.675C143.203 8.35833 144.078 8.2 145.028 8.2C146.295 8.2 147.411 8.475 148.378 9.025C149.361 9.575 150.128 10.3417 150.678 11.325C151.245 12.2917 151.528 13.4167 151.528 14.7C151.528 15.65 151.37 16.525 151.053 17.325C150.736 18.1083 150.278 18.7917 149.678 19.375C149.095 19.9583 148.411 20.4083 147.628 20.725C146.845 21.0417 145.978 21.2 145.028 21.2ZM145.028 18.85C145.578 18.85 146.078 18.75 146.528 18.55C146.978 18.3333 147.37 18.0417 147.703 17.675C148.036 17.3083 148.295 16.875 148.478 16.375C148.661 15.8583 148.753 15.2917 148.753 14.675C148.753 13.8583 148.595 13.1417 148.278 12.525C147.961 11.9083 147.52 11.425 146.953 11.075C146.403 10.725 145.761 10.55 145.028 10.55C144.478 10.55 143.97 10.65 143.503 10.85C143.053 11.05 142.661 11.3333 142.328 11.7C142.011 12.0667 141.761 12.5083 141.578 13.025C141.395 13.525 141.303 14.075 141.303 14.675C141.303 15.5083 141.461 16.2417 141.778 16.875C142.095 17.4917 142.536 17.975 143.103 18.325C143.67 18.675 144.311 18.85 145.028 18.85ZM156.699 21V3.5H159.649V21H156.699ZM154.274 6.025V3.5H162.074V6.025H154.274ZM154.274 21V18.475H162.074V21H154.274ZM172.321 21.2C171.204 21.2 170.179 20.9917 169.246 20.575C168.329 20.1417 167.537 19.5333 166.871 18.75C166.204 17.95 165.687 17 165.321 15.9C164.971 14.8 164.796 13.5833 164.796 12.25C164.796 10.9 164.971 9.68333 165.321 8.6C165.687 7.5 166.204 6.55833 166.871 5.775C167.537 4.975 168.329 4.36667 169.246 3.95C170.179 3.51667 171.204 3.3 172.321 3.3C173.454 3.3 174.479 3.51667 175.396 3.95C176.329 4.36667 177.129 4.975 177.796 5.775C178.462 6.55833 178.971 7.5 179.321 8.6C179.687 9.68333 179.871 10.9 179.871 12.25C179.871 13.5833 179.687 14.8 179.321 15.9C178.971 17 178.462 17.95 177.796 18.75C177.129 19.5333 176.329 20.1417 175.396 20.575C174.479 20.9917 173.454 21.2 172.321 21.2ZM177.446 22.775L171.496 14.7L173.421 13.325L179.346 21.4L177.446 22.775ZM172.321 18.775C173.021 18.775 173.654 18.6167 174.221 18.3C174.804 17.9833 175.304 17.5417 175.721 16.975C176.137 16.3917 176.454 15.7 176.671 14.9C176.904 14.1 177.021 13.2167 177.021 12.25C177.021 10.95 176.821 9.81667 176.421 8.85C176.021 7.86667 175.471 7.1 174.771 6.55C174.071 6 173.254 5.725 172.321 5.725C171.637 5.725 171.004 5.88333 170.421 6.2C169.854 6.51667 169.362 6.96667 168.946 7.55C168.529 8.11667 168.204 8.8 167.971 9.6C167.754 10.4 167.646 11.2833 167.646 12.25C167.646 13.55 167.846 14.6917 168.246 15.675C168.646 16.6417 169.196 17.4 169.896 17.95C170.596 18.5 171.404 18.775 172.321 18.775Z" fill="white"/>
</svg>
