<svg width="158" height="24" viewBox="0 0 158 24" fill="none" xmlns="http://www.w3.org/2000/svg">
<path fill-rule="evenodd" clip-rule="evenodd" d="M18.3023 0.129097C18.063 0.363484 18.1554 3.77864 18.4076 4.02581C18.561 4.17619 19.3567 4.25806 20.6646 4.25806C23.229 4.25806 23.3051 4.1969 23.3051 2.13097C23.3051 1.29581 23.2511 0.474581 23.1852 0.306194C23.0853 0.0510969 22.679 0 20.7497 0C19.4759 0 18.3746 0.0580645 18.3023 0.129097ZM57.9957 0.129097C57.7564 0.363484 57.8488 3.77864 58.101 4.02581C58.441 4.3591 62.1963 4.32832 62.6529 3.98865C62.9317 3.78116 62.9985 3.43026 62.9985 2.172C62.9985 1.31419 62.9445 0.474581 62.8786 0.306194C62.7787 0.0510969 62.3724 0 60.4431 0C59.1693 0 58.068 0.0580645 57.9957 0.129097ZM26.3067 0.619355C26.1292 0.793355 26.0698 3.12368 26.0698 9.91452V18.9774L26.5763 19.1661C26.855 19.2699 27.792 19.3548 28.6589 19.3548C30.0484 19.3548 30.2895 19.3012 30.6975 18.9014L31.16 18.4479L31.9227 18.9004C32.5817 19.2914 32.9407 19.3523 34.5614 19.3496C36.831 19.3457 37.6413 19.0403 38.8742 17.7246C40.3574 16.1414 40.5845 15.4198 40.5845 12.2903C40.5845 9.76297 40.5494 9.5069 40.061 8.48613C38.951 6.16568 36.8589 4.93935 34.2273 5.06671C33.0274 5.12477 32.6751 5.22677 31.9562 5.72361L31.1055 6.31181L31.1655 3.62381C31.2068 1.76903 31.1535 0.850645 30.9931 0.661355C30.6896 0.30271 26.6666 0.26671 26.3067 0.619355ZM41.9809 0.691161C41.708 0.958839 41.6707 2.06052 41.6707 9.87387V18.7523L42.1097 19.0535C42.4266 19.2712 43.0341 19.3548 44.2967 19.3548C45.8953 19.3548 46.0814 19.315 46.469 18.8884L46.8928 18.4219L47.4908 18.84C47.9789 19.1812 48.431 19.2706 49.952 19.3264C52.3116 19.4129 53.0382 19.1934 54.3836 17.9882C55.8767 16.6508 56.3302 15.3296 56.3288 12.319C56.3284 11.1323 56.2134 9.76935 56.0736 9.29032C55.9338 8.81129 55.8373 8.34793 55.8588 8.26084C55.8805 8.17355 55.3353 7.55032 54.647 6.87581C53.6636 5.91194 53.1689 5.58329 52.3355 5.34077C50.338 4.75936 48.3476 5.03439 47.2522 6.04297L46.8051 6.45464V3.65303C46.8051 1.73226 46.7307 0.778645 46.5682 0.619355C46.188 0.246774 42.3733 0.30658 41.9809 0.691161ZM67.185 0.619355C67.0286 0.772645 66.948 1.59561 66.948 3.03871V5.22581H65.8732C64.4424 5.22581 64.1833 5.57555 64.1833 7.50736C64.1833 9.48697 64.321 9.67742 65.7519 9.67742H66.9119L66.9828 12.5323C67.043 14.959 67.1181 15.5249 67.4834 16.3063C68.0091 17.4308 68.6938 18.0652 70.083 18.7152C71.0171 19.1522 71.4148 19.2145 73.3965 19.235C75.2013 19.2534 75.6861 19.2004 75.8374 18.9677C75.9411 18.8081 76.0274 17.9216 76.0291 16.9976C76.0329 14.8388 75.9156 14.7097 73.9515 14.7097C72.1179 14.7097 72.0825 14.6549 72.0825 11.8192V9.67742H73.7542C75.7627 9.67742 75.8346 9.60232 75.8346 7.50736C75.8346 5.43348 75.636 5.22581 73.6511 5.22581H72.0825V3.03871C72.0825 1.59561 72.0019 0.772645 71.8455 0.619355C71.5205 0.300774 67.5101 0.300774 67.185 0.619355ZM88.7364 0.734903C86.9972 1.34168 85.7228 2.45071 84.9864 3.99852C84.611 4.78723 84.4732 5.51903 84.33 7.48239C84.1037 10.5875 84.3774 14.6208 84.8918 15.7575C85.4023 16.8854 86.9209 18.3321 88.1941 18.9035C89.2137 19.361 89.4506 19.3887 91.8002 19.3256C94.2713 19.2592 94.3351 19.2463 95.4611 18.5806C96.961 17.6942 97.8086 16.7537 98.3234 15.4051C98.9863 13.6688 98.8246 12.9645 97.7647 12.9706C97.0562 12.9749 96.7692 13.2025 96.6505 13.8544C96.5941 14.165 96.3024 14.8548 96.0026 15.3871C95.5761 16.1439 95.2234 16.4739 94.3845 16.9012C93.3781 17.4139 93.1891 17.4434 91.3368 17.3783C89.6017 17.3174 89.249 17.2434 88.4314 16.7694C87.7126 16.3527 87.3757 15.9799 86.9503 15.131C86.401 14.0346 86.3998 14.0235 86.3998 9.96774C86.3998 5.98316 86.41 5.88194 86.919 4.818C87.5766 3.44342 88.4624 2.77006 89.9728 2.49639C91.472 2.22484 93.7553 2.43097 94.5602 2.91058C95.3906 3.40568 96.3385 4.72897 96.6047 5.76484C96.8684 6.79103 97.4642 7.15974 98.2744 6.79781C98.7584 6.58181 98.7853 6.50419 98.6676 5.66323C98.3929 3.69852 97.1881 2.16329 95.0889 1.10284C94.0243 0.564968 93.6935 0.497807 91.8305 0.441678C90.1975 0.392323 89.5401 0.454645 88.7364 0.734903ZM127.581 0.761419C127.469 0.967354 127.377 1.44329 127.377 1.81916C127.377 2.57381 127.767 2.90323 128.66 2.90323C129.646 2.90323 129.944 2.59161 129.944 1.56232C129.944 0.509226 129.799 0.387097 128.552 0.387097C127.996 0.387097 127.729 0.490064 127.581 0.761419ZM134.14 0.610451C133.972 0.77458 133.894 1.5511 133.894 3.03871V5.22581H132.832C131.594 5.22581 131.271 5.48903 131.362 6.4229L131.425 7.06452L132.659 7.12219L133.894 7.17968V11.1118C133.894 15.4618 134.065 16.7795 134.768 17.82C135.442 18.8183 136.424 19.2143 138.286 19.2381C139.946 19.2596 140.204 19.1222 140.21 18.2148C140.215 17.5212 139.669 17.2388 138.309 17.232C136.06 17.2206 135.88 16.7669 135.873 11.0876L135.868 7.17523L137.794 7.11987L139.719 7.06452L139.782 6.31006C139.822 5.83722 139.748 5.49503 139.585 5.39361C139.442 5.30458 138.549 5.23045 137.602 5.22871L135.881 5.22581L135.825 2.85484L135.77 0.483871L135.078 0.42658C134.697 0.395226 134.275 0.477871 134.14 0.610451ZM155.362 0.507097C155.285 0.582968 155.221 4.76961 155.221 9.81058V18.9761L155.715 19.1965C156.085 19.3616 156.333 19.3614 156.704 19.1957L157.2 18.9743L157.149 9.7291L157.097 0.483871L156.3 0.426387C155.862 0.394839 155.44 0.431032 155.362 0.507097ZM0.54554 0.781548C0.224439 0.972387 0.199951 1.61632 0.199951 9.85064C0.199951 18.1916 0.221279 18.7332 0.561141 19.0345C1.07123 19.487 4.56603 19.4998 5.02418 19.0508C5.27853 18.8013 5.33442 18.2259 5.33442 15.8572V12.9677L6.46993 12.9766C7.60445 12.9854 7.60583 12.9861 8.01461 13.7992C8.23954 14.2467 8.9327 15.5857 9.55495 16.7746C10.8743 19.2966 10.9661 19.3548 13.6203 19.3548C15.335 19.3548 15.8551 19.1886 16.0422 18.5806C16.0913 18.421 15.3974 16.8954 14.5002 15.1906L12.8689 12.091L13.53 11.6663C14.3172 11.1606 15.2501 9.87755 15.6039 8.814C15.7442 8.39226 15.8522 7.40013 15.8437 6.6091C15.823 4.6411 14.9663 2.9071 13.5596 1.98561C11.7999 0.833032 11.084 0.709936 5.72938 0.639677C2.55253 0.597871 0.772444 0.646645 0.54554 0.781548ZM9.76942 5.25736C10.442 5.55774 10.7933 6.75232 10.4282 7.49845C10.034 8.30439 9.39164 8.51013 7.25985 8.51323L5.33442 8.51613V6.77419V5.03226H7.29993C8.38094 5.03226 9.49215 5.13348 9.76942 5.25736ZM104.272 5.28155C102.373 5.98181 100.872 7.66529 101.212 8.71394C101.493 9.582 102.759 9.39116 103.173 8.41819C103.521 7.60219 104.397 7.14561 105.834 7.03084C107.239 6.91877 108.559 7.30297 109.069 7.97265C109.286 8.25735 109.504 8.92006 109.556 9.45639L109.651 10.4253L108.986 10.5348C108.62 10.5952 107.476 10.7721 106.444 10.9283C102.916 11.4619 101.323 12.294 100.5 14.0323C99.856 15.3919 100.15 16.722 101.369 17.9686C102.45 19.0742 103.238 19.3548 105.257 19.3548C107.233 19.3548 108.168 19.0815 109.061 18.2439L109.604 17.7341V18.355C109.604 19.1506 110.308 19.5434 111.101 19.1894L111.61 18.9619L111.545 13.3695L111.48 7.77716L110.868 7.03374C110.532 6.62497 109.835 6.03368 109.321 5.72013C108.506 5.22368 108.164 5.142 106.674 5.08839C105.591 5.04929 104.709 5.12032 104.272 5.28155ZM117.7 5.42535C117.212 5.64755 116.567 6.05826 116.269 6.33794L115.725 6.84658V6.13665C115.725 5.53548 115.648 5.40755 115.217 5.30168C114.938 5.23297 114.493 5.27303 114.23 5.39071L113.751 5.60458V14.8024V24H114.738H115.725V20.887V17.7739L116.487 18.365C117.578 19.2118 118.099 19.3548 120.091 19.3548C122.236 19.3548 122.956 19.0539 124.29 17.6005C125.569 16.206 125.899 15.0606 125.877 12.0968C125.856 9.27581 125.421 7.92581 124.131 6.67936C122.929 5.51768 122.02 5.1511 120.169 5.08103C118.894 5.03284 118.418 5.09923 117.7 5.42535ZM144.656 5.49155C142.933 6.28626 141.823 7.64303 142.079 8.64077C142.199 9.11226 142.782 9.37781 143.323 9.20787C143.513 9.14826 143.847 8.77316 144.064 8.37445C144.544 7.49264 145.295 7.11019 146.73 7.01652C148.102 6.9269 149.448 7.31652 149.924 7.94129C150.278 8.40716 150.672 10.4516 150.407 10.4516C149.687 10.4516 145.179 11.3026 144.266 11.611C141.866 12.421 140.467 14.658 141.191 16.5257C141.474 17.2539 142.753 18.5592 143.598 18.9817C144.173 19.2691 144.756 19.3548 146.136 19.3548C148.111 19.3548 149.046 19.0815 149.939 18.2439L150.482 17.7341V18.355C150.482 19.1433 151.186 19.5434 151.963 19.1965L152.457 18.9761V13.7104C152.457 8.76503 152.432 8.394 152.044 7.60935C151.216 5.93226 149.464 5.0309 147.04 5.03419C145.988 5.03555 145.4 5.14839 144.656 5.49155ZM18.5162 5.43484C18.1978 5.61658 18.1706 6.14864 18.1706 12.1922C18.1706 19.9452 17.9591 19.3548 20.7378 19.3548C23.5136 19.3548 23.3051 19.9272 23.3051 12.3093C23.3051 4.62561 23.5231 5.2229 20.7222 5.23161C19.6991 5.2349 18.7064 5.32626 18.5162 5.43484ZM58.2096 5.43484C57.891 5.61677 57.864 6.15406 57.864 12.3046V18.9774L58.3705 19.1661C59.2076 19.4779 62.0525 19.4015 62.5595 19.0535C62.9981 18.7525 62.9985 18.7479 62.9985 12.3093C62.9985 4.62561 63.2165 5.2229 60.4156 5.23161C59.3925 5.2349 58.3995 5.32626 58.2096 5.43484ZM128.009 5.45806C127.834 5.62974 127.772 7.42219 127.772 12.3223C127.772 18.797 127.781 18.959 128.174 19.1652C128.605 19.3912 129.357 19.2472 129.595 18.8932C129.675 18.7746 129.742 15.7877 129.744 12.2557C129.746 6.67335 129.706 5.79426 129.436 5.52987C129.068 5.1689 128.341 5.13232 128.009 5.45806ZM121.894 7.43613C123.178 8.04077 123.825 9.69135 123.819 12.3482C123.814 14.3954 123.385 15.8501 122.57 16.5825C120.848 18.1283 117.919 17.7857 116.487 15.871C115.901 15.0879 115.611 12.6641 115.891 10.8987C116.252 8.62123 116.849 7.8089 118.688 7.09297C119.234 6.88045 121.148 7.08542 121.894 7.43613ZM34.3426 9.65207C35.5176 9.97471 36.0032 12.8321 35.1045 14.1354C34.3489 15.2311 32.7001 15.3623 31.7789 14.4004C31.3508 13.9533 31.303 13.733 31.303 12.2071C31.303 10.429 31.4724 9.99019 32.2835 9.66813C32.7604 9.47865 33.6846 9.47148 34.3426 9.65207ZM50.1228 9.6929C50.8766 9.95052 51.2354 10.8482 51.2079 12.4078C51.1831 13.8244 50.7589 14.6145 49.8688 14.9023C48.6727 15.2892 47.43 14.7466 47.0054 13.6521C46.6971 12.8578 46.768 11.3961 47.1511 10.6479C47.6985 9.57794 48.7744 9.23226 50.1228 9.6929ZM109.553 13.4032C109.406 15.1037 108.834 16.2873 107.901 16.8271C106.196 17.8128 104.177 17.7741 102.913 16.7317C101.672 15.7084 102.003 14.2843 103.674 13.4543C104.509 13.0395 105.297 12.8595 108.616 12.3257C109.698 12.1515 109.665 12.113 109.553 13.4032ZM150.479 12.8226C150.477 13.1685 150.351 13.9742 150.199 14.6129C149.974 15.5555 149.771 15.906 149.121 16.4735C148.041 17.4165 146.801 17.748 145.418 17.4637C143.789 17.1288 142.978 16.3626 142.978 15.1589C142.978 14.4391 144.16 13.4224 145.409 13.0682C146.247 12.8307 149.212 12.3066 150.235 12.2156C150.387 12.2021 150.481 12.4353 150.479 12.8226Z" fill="#7C7E88"/>
</svg>
