<svg width="57" height="64" viewBox="0 0 57 64" fill="none" xmlns="http://www.w3.org/2000/svg">
<g clip-path="url(#clip0_13_298)">
<path d="M49.4463 33.9934H38.8009C37.0821 33.9934 36.164 32.7479 36.164 31.6696C36.164 30.6893 36.4523 30.1377 37.0857 29.426L37.4771 28.9794C39.0665 30.3682 41.1138 31.1193 43.2242 31.0878C48.8022 31.0878 52.5386 26.314 52.5386 21.8356C52.5656 19.8611 51.9165 17.9368 50.6989 16.3821L51.5689 15.3857H55.72V13.4873H51.8945L50.0156 15.6224C48.2364 13.8627 45.7116 12.861 42.9857 12.861C38.5376 12.861 34.3759 16.3216 34.3759 22.2608C34.3759 24.2732 35.3029 26.6379 36.7192 28.2356L35.6694 29.4366C34.6259 30.5947 33.3514 31.5213 31.9279 32.1566C30.5044 32.7919 28.9635 33.1218 27.4047 33.1251C21.8605 33.1251 18.0688 28.6769 18.0688 22.816C18.0688 17.5084 20.6381 13.9855 24.4475 13.9855C26.8495 13.9855 28.2765 15.3128 29.5505 17.423L30.9935 21.7004H32.0165V15.8288C29.9664 13.9128 27.2643 12.848 24.4582 12.8503C19.4762 12.8503 14.6011 17.2807 14.6011 24.3746C14.6307 26.3822 15.1714 28.349 16.1721 30.0896L15.3359 31.0469C13.8982 32.6927 12.9268 33.3759 11.4073 33.3759C9.27214 33.3759 7.64588 31.7444 7.64588 29.1413V15.3608H14.6206V13.4873H7.6441V8H6.19222C5.5588 10.4483 5.10865 14.4623 0.599976 14.4623V15.4836H4.37025V29.2658C4.37025 32.1678 6.3826 35.0716 10.345 35.0716C12.1848 35.0716 13.9819 34.3065 15.4409 32.5521L16.77 31.0309C18.4372 33.3528 21.9779 35.0716 26.0684 35.0716C29.3263 35.0716 32.3439 34.0556 34.9772 31.691C34.8261 32.1338 34.7492 32.5985 34.7495 33.0664C34.7495 34.4809 35.4025 35.6623 36.7636 36.5288L32.271 41.8257C32.1611 42.32 32.1192 42.8271 32.1464 43.3327C32.303 47.1119 36.2388 49.5602 40.9396 49.5602C49.6242 49.5602 55.9513 43.9679 55.9513 39.2048C55.9566 35.9452 53.2201 33.9934 49.4463 33.9934ZM42.7598 13.8716C47.1688 13.8716 49.2399 17.9354 49.2399 22.695C49.2399 26.5791 47.1048 29.7978 44.128 29.7978C39.9468 29.7978 37.6871 25.839 37.6871 20.6168C37.6853 16.6971 40.0535 13.8716 42.7598 13.8716ZM43.1619 47.5354C38.7689 47.5354 35.584 45.2579 35.584 41.8417C35.584 40.1283 36.2049 38.9468 36.9309 37.9771L37.6871 36.9558C38.3798 37.2484 39.1236 37.4007 39.8756 37.4042H49.352C51.9426 37.4042 53.6222 38.4433 53.6222 40.5464C53.6222 44.3451 49.1438 47.5389 43.1619 47.5389V47.5354Z" fill="#7C7E88"/>
<path d="M4.90581 43.1335V40.5713H3.72082V40.2155H6.51071V40.5713H5.31326V43.1335H4.90581Z" fill="#7C7E88"/>
<path d="M7.53913 43.1335V40.219H7.94658V41.4503H9.72585V40.219H10.1333V43.1335H9.74008V41.7972H7.96081V43.1335H7.53913Z" fill="#7C7E88"/>
<path d="M13.6171 43.1335H11.3859V40.219H13.5744V40.5606H11.7845V41.4503H13.1438V41.8061H11.7845V42.8007H13.6171V43.1335Z" fill="#7C7E88"/>
<path d="M6.52494 48.7115C6.35769 49.2453 5.91465 49.6011 5.22964 49.6011C4.42007 49.6011 3.78131 48.9855 3.78131 48.0887C3.77155 47.8918 3.80231 47.6949 3.87171 47.5103C3.9411 47.3257 4.04764 47.1573 4.18474 47.0155C4.32184 46.8737 4.48658 46.7616 4.66876 46.6861C4.85093 46.6105 5.04668 46.5732 5.24387 46.5764C5.8595 46.5764 6.28474 46.8717 6.47512 47.345L6.13706 47.5674C6.08391 47.3751 5.96681 47.2067 5.80508 47.09C5.64335 46.9732 5.44665 46.915 5.24743 46.9251C4.63714 46.9251 4.20656 47.3735 4.20656 48.0905C4.20656 48.8076 4.6407 49.2559 5.23319 49.2559C5.45261 49.2753 5.67117 49.2105 5.84461 49.0747C6.01805 48.9389 6.13341 48.7423 6.16731 48.5247L6.52494 48.7115Z" fill="#7C7E88"/>
<path d="M7.58361 49.5388V46.6244H7.99106V47.8556H9.77033V46.6244H10.1778V49.5388H9.77745V48.2026H7.99818V49.5388H7.58361Z" fill="#7C7E88"/>
<path d="M13.6527 49.5388H11.4233V46.6244H13.6118V46.966H11.8218V47.8556H13.1812V48.2115H11.8218V49.2061H13.6545L13.6527 49.5388Z" fill="#7C7E88"/>
<path d="M16.8323 49.5388C16.7255 49.4926 16.665 49.2381 16.6383 48.9517C16.601 48.498 16.4604 48.2631 16.0512 48.2631H15.1793V49.5406H14.7772V46.6244H16.0672C16.802 46.6244 17.1347 46.9429 17.1347 47.434C17.123 47.6146 17.0428 47.7839 16.9106 47.9076C16.7784 48.0312 16.604 48.0998 16.423 48.0994C16.7611 48.1546 16.9372 48.4232 16.9871 48.7649C17.0653 49.2506 17.165 49.4125 17.3109 49.505V49.5371L16.8323 49.5388ZM15.1811 47.9375H16.0085C16.4995 47.9375 16.7308 47.7809 16.7308 47.4464C16.7308 47.1119 16.5262 46.966 16.0351 46.966H15.1793L15.1811 47.9375Z" fill="#7C7E88"/>
<path d="M20.389 48.8823V46.6244H20.7644V49.5388H20.4264L18.6863 47.1439V49.5317H18.3108V46.6244H18.7592L20.389 48.8823Z" fill="#7C7E88"/>
<path d="M22.4103 46.6244V49.5388H22.0028V46.6244H22.4103Z" fill="#7C7E88"/>
<path d="M25.7268 48.8823V46.6244H26.1023V49.5388H25.7642L24.0241 47.1439V49.5317H23.6486V46.6244H24.097L25.7268 48.8823Z" fill="#7C7E88"/>
<path d="M6.14596 53.9603C6.0392 53.576 5.72427 53.3216 5.22964 53.3216C4.62824 53.3216 4.203 53.7699 4.203 54.4923C4.203 55.2147 4.63358 55.6577 5.2581 55.6577C5.37669 55.6664 5.49582 55.6513 5.60844 55.6131C5.72106 55.575 5.8249 55.5146 5.91381 55.4357C6.00271 55.3567 6.07489 55.2607 6.12607 55.1534C6.17726 55.0461 6.2064 54.9296 6.21179 54.8108H5.08196V54.5048H6.57654V55.9442H6.27941L6.21891 55.4104C6.08902 55.7805 5.67267 55.994 5.21006 55.994C4.3916 55.994 3.78665 55.3873 3.78665 54.4816C3.78665 53.576 4.42896 52.9693 5.23497 52.9693C5.87373 52.9693 6.30254 53.2468 6.49292 53.7237L6.14596 53.9603Z" fill="#7C7E88"/>
<path d="M9.8415 55.9442C9.73475 55.8979 9.67425 55.6435 9.64756 55.3571C9.6102 54.9033 9.46964 54.6685 9.0604 54.6685H8.19034V55.946H7.78823V53.0298H9.0782C9.81304 53.0298 10.1458 53.3483 10.1458 53.8393C10.134 54.02 10.0538 54.1893 9.92163 54.3129C9.78941 54.4366 9.61506 54.5052 9.43405 54.5048C9.77211 54.5599 9.94826 54.8286 9.99808 55.1702C10.0764 55.656 10.176 55.8179 10.3219 55.9104V55.9424L9.8415 55.9442ZM8.19034 54.3429H9.0177C9.50878 54.3429 9.74008 54.1863 9.74008 53.8518C9.74008 53.5173 9.53547 53.3714 9.04617 53.3714H8.19034V54.3429Z" fill="#7C7E88"/>
<path d="M12.6172 55.9994C12.3168 56.0057 12.0213 55.9225 11.7684 55.7602C11.5155 55.5979 11.3167 55.364 11.1973 55.0883C11.0779 54.8126 11.0433 54.5075 11.098 54.2121C11.1527 53.9166 11.2942 53.6441 11.5043 53.4294C11.7145 53.2147 11.9839 53.0674 12.2781 53.0064C12.5723 52.9454 12.878 52.9735 13.1563 53.0869C13.4345 53.2004 13.6726 53.3942 13.8402 53.6435C14.0079 53.8929 14.0974 54.1865 14.0975 54.487C14.1077 54.6856 14.0766 54.8841 14.0062 55.07C13.9359 55.256 13.8277 55.4254 13.6886 55.5675C13.5496 55.7095 13.3825 55.8213 13.1981 55.8956C13.0137 55.97 12.8159 56.0053 12.6172 55.9994ZM12.6172 53.3305C11.9873 53.3305 11.5621 53.7788 11.5621 54.4923C11.5621 55.2058 11.9873 55.6542 12.6172 55.6542C13.247 55.6542 13.6847 55.2058 13.6847 54.4923C13.6847 53.7788 13.2452 53.3269 12.6172 53.3269V53.3305Z" fill="#7C7E88"/>
<path d="M15.1526 54.7468V53.0298H15.5601V54.7183C15.5601 55.325 15.875 55.6488 16.3839 55.6488C16.8927 55.6488 17.2112 55.325 17.2112 54.7183V53.0298H17.6098V54.7468C17.6098 55.5973 17.0369 55.9923 16.3839 55.9923C15.7309 55.9923 15.1526 55.5973 15.1526 54.7468Z" fill="#7C7E88"/>
<path d="M19.2129 54.7788V55.9442H18.8108V53.0298H20.0794C20.7911 53.0298 21.2128 53.3589 21.2128 53.9034C21.2128 54.4478 20.7965 54.777 20.0794 54.777L19.2129 54.7788ZM20.0687 54.4407C20.5687 54.4407 20.8143 54.2628 20.8143 53.9069C20.8143 53.5511 20.5687 53.3732 20.0687 53.3732H19.2129V54.4407H20.0687Z" fill="#7C7E88"/>
</g>
<defs>
<clipPath id="clip0_13_298">
<rect width="56" height="64" fill="white" transform="translate(0.599976)"/>
</clipPath>
</defs>
</svg>
