<svg width="188" height="38" viewBox="0 0 188 38" fill="none" xmlns="http://www.w3.org/2000/svg">
<path d="M1.37823 0.392482C2.49605 1.58127 3.5929 2.79103 4.73491 3.95562C6.52212 5.77671 8.32708 7.58167 10.1546 9.36243C10.6563 9.85118 10.8627 10.3641 10.8547 11.0642C10.8192 13.8047 10.8498 16.5452 10.8192 19.2841C10.8111 20.0002 11.0127 20.2567 11.7805 20.2438C14.6807 20.1954 17.5809 20.2164 20.4827 20.2357C20.7505 20.2374 21.0908 20.3406 21.2747 20.5212C24.333 23.5376 27.3719 26.5733 30.4108 29.6089C30.4963 29.6944 30.5366 29.8235 30.6544 30.0332C30.3043 30.0509 30.0479 30.0735 29.793 30.0735C20.5247 30.0799 11.2547 30.0735 1.98634 30.1074C1.18144 30.1106 0.949171 29.809 0.957236 29.0847C0.973366 27.6072 0.957236 26.1297 0.957236 24.6522C0.955623 16.9694 0.955623 9.28501 0.958849 1.60063C0.958849 1.26351 1.00079 0.926389 1.02337 0.587656C1.14112 0.521523 1.26048 0.457003 1.37823 0.390869V0.392482Z" fill="#7C7E88"/>
<path d="M66.8278 31.4461C65.3309 30.8702 63.8727 30.2073 63.9518 28.3298C64.034 26.3861 65.6277 25.7506 67.1665 25.0553C66.9617 24.9311 66.7923 24.8166 66.6116 24.7231C64.2437 23.4746 63.6598 20.6454 65.397 18.5968C67.0294 16.6709 69.2102 16.2402 71.5958 16.4999C72.0459 16.5483 72.5491 16.579 72.9201 16.7983C73.9944 17.4323 74.9525 17.1338 75.9381 16.6209C76.2913 16.437 76.6817 16.3273 77.0446 16.187C77.5737 16.9 77.614 17.5 76.8252 18.0275C76.4962 18.2484 76.2333 18.5678 75.9461 18.8356C77.1623 21.2293 76.2816 24.5601 71.8217 25.286C70.9103 25.4344 69.9554 25.3537 69.0247 25.315C68.173 25.2796 67.5601 25.6731 67.5069 26.3893C67.4552 27.0893 68.0133 27.5797 68.8876 27.5974C70.7119 27.6329 72.5507 27.5313 74.3573 27.7265C77.685 28.0846 79.0931 31.1912 77.3091 34.035C76.3478 35.5673 74.8961 36.4626 73.2266 37.0061C70.8732 37.7707 68.4763 37.7659 66.0761 37.2287C65.689 37.1416 65.3099 36.9771 64.9583 36.7916C63.1759 35.8496 63.0324 33.7624 64.6954 32.6187C65.3438 32.1719 66.081 31.8526 66.8294 31.4477L66.8278 31.4461ZM70.8039 31.3412C70.799 31.3783 70.7942 31.4154 70.7893 31.4525C70.307 31.4525 69.8231 31.4267 69.3425 31.4574C68.0811 31.538 66.952 32.5075 66.8455 33.5737C66.7149 34.8641 67.4085 36.0593 68.6666 36.3416C70.8168 36.8239 72.8459 36.4013 74.5251 34.9415C75.7381 33.8882 75.2896 32.1671 73.7299 31.7655C72.7814 31.5219 71.7813 31.4751 70.8055 31.3412H70.8039ZM68.5602 21.0519C68.7215 21.8648 68.8618 22.8455 69.1231 23.7924C69.2925 24.4069 69.8086 24.7618 70.4684 24.7537C71.099 24.7473 71.6571 24.4972 71.8636 23.8569C72.4636 21.9922 72.4895 20.1115 71.8233 18.2581C71.5958 17.6226 71.0619 17.2581 70.3764 17.3064C69.6522 17.3581 69.0779 17.7226 68.9263 18.4823C68.7715 19.2679 68.6957 20.0679 68.5602 21.0502V21.0519Z" fill="#7C7E88"/>
<path d="M121.793 18.4179C123.906 17.7211 125.83 17.0872 127.824 16.4307V18.9873C127.912 19.0599 127.999 19.1341 128.088 19.2067C128.235 18.9696 128.346 18.6986 128.533 18.4986C129.571 17.3985 130.759 16.5436 132.329 16.4388C134.068 16.3226 135.392 17.1098 136.382 18.476C138.96 22.0375 138.56 29.2493 131.858 30.5042C130.606 30.7381 129.271 30.5187 127.84 30.5091V32.1108C127.84 33.3464 127.864 34.5835 127.832 35.8191C127.811 36.603 128.087 37.0466 128.912 37.0934C129.141 37.1063 129.364 37.2305 129.59 37.3031C129.575 37.3676 129.561 37.4337 129.546 37.4982H121.901C121.878 37.4418 121.854 37.3837 121.831 37.3273C122.085 37.2418 122.331 37.1095 122.589 37.0821C123.244 37.016 123.533 36.6869 123.53 36.0288C123.51 30.843 123.514 25.6571 123.483 20.4713C123.477 19.4858 123.068 18.7067 121.794 18.4163L121.793 18.4179ZM133.514 24.0635C133.366 22.6247 133.289 21.2326 132.497 20.0019C131.872 19.0309 130.748 18.605 129.696 18.9051C128.633 19.2083 127.837 20.2294 127.83 21.3552C127.817 23.3957 127.814 25.4361 127.833 27.4782C127.843 28.4493 128.322 29.1654 129.191 29.5929C130.043 30.0123 130.908 29.9429 131.601 29.3283C132.085 28.8993 132.574 28.3331 132.756 27.7363C133.119 26.5459 133.274 25.291 133.514 24.0619V24.0635Z" fill="#7C7E88"/>
<path d="M181.001 16.7162C181.001 15.8064 181.006 14.7402 181 13.6724C180.995 12.9417 180.721 12.4369 179.905 12.3659C179.679 12.3465 179.463 12.2239 179.003 12.0659C181.203 11.3497 183.187 10.7029 185.294 10.0173C185.313 10.4157 185.339 10.7222 185.339 11.0287C185.342 16.0774 185.34 21.1261 185.34 26.1732C185.34 26.441 185.34 26.7104 185.34 26.9781C185.353 28.6541 185.416 28.7492 187.044 29.3751C186.852 29.5283 186.723 29.717 186.566 29.7428C184.752 30.0574 182.934 30.3477 181.014 30.6623V27.8717C180.658 28.254 180.472 28.4573 180.282 28.6557C178.45 30.5719 176.124 31.1849 174.098 30.2235C172.043 29.2476 171.064 27.4588 170.756 25.3184C170.12 20.9035 172.699 17.2743 177.07 16.55C178.291 16.3468 179.595 16.6436 181.001 16.7178V16.7162ZM181.009 22.7714C181.009 21.831 181.021 20.8906 181.006 19.9519C180.992 19.0486 180.703 18.2695 179.914 17.7437C178.393 16.7307 176.577 17.3001 175.906 19.0599C175.19 20.939 175.17 22.9004 175.535 24.849C175.674 25.5926 175.98 26.3442 176.372 26.9943C177.001 28.0379 178.108 28.4169 179.142 28.1073C180.316 27.7556 180.982 26.8749 181.006 25.591C181.024 24.6522 181.009 23.7118 181.009 22.7714Z" fill="#7C7E88"/>
<path d="M85.4419 18.9099C86.4646 17.713 87.6727 16.8339 89.2422 16.5081C91.623 16.0145 93.8828 17.4582 94.0748 19.8728C94.2828 22.4908 94.2135 25.1296 94.2635 27.7589C94.2683 28.054 94.2845 28.3508 94.2619 28.6444C94.2119 29.3106 94.5038 29.6445 95.1748 29.6945C95.4394 29.7138 95.6958 29.8332 95.9571 29.9074C95.9442 29.9816 95.9329 30.0574 95.92 30.1316H88.505L88.4486 29.9864C88.6131 29.8977 88.7696 29.7461 88.9405 29.73C89.7922 29.6493 89.9406 29.1348 89.9293 28.3863C89.8954 26.1297 89.9229 23.8731 89.9148 21.6165C89.91 20.1309 88.8696 19.0615 87.4759 19.0889C86.1742 19.1147 85.2403 20.1664 85.2371 21.6246C85.2322 23.8538 85.2693 26.0846 85.2193 28.3137C85.1984 29.196 85.4274 29.7106 86.3807 29.7412C86.5662 29.7477 86.7501 29.8735 86.9065 30.1284H79.4915C79.4689 30.08 79.4464 30.03 79.4238 29.9816C79.6319 29.8848 79.8319 29.7283 80.048 29.7009C80.7384 29.6138 80.8997 29.2025 80.8981 28.5767C80.8836 24.7345 80.89 20.8923 80.89 17.0501C80.89 16.271 80.8481 15.4887 80.8997 14.7128C80.9819 13.4676 80.7481 12.4417 79.3399 11.9481C81.2691 11.3191 83.1998 10.69 85.2467 10.0238V18.8308C85.3113 18.8566 85.3774 18.8841 85.4419 18.9099Z" fill="#7C7E88"/>
<path d="M44.7812 10.3061C44.5102 10.3835 44.2424 10.4883 43.9666 10.5319C43.3714 10.6271 43.094 10.9142 43.0956 11.5562C43.1117 17.2001 43.1133 22.8456 43.0956 28.4895C43.094 29.167 43.4053 29.4041 44.0118 29.4202C46.0893 29.4751 47.9185 28.8815 49.1718 27.1507C49.938 26.0926 50.5719 24.928 51.1735 23.765C51.4623 23.2085 51.7268 22.8714 52.4833 23.1392C52.2091 25.4393 51.9301 27.7685 51.6478 30.1429H36.35C36.3355 30.0703 36.3226 29.9977 36.308 29.9251C36.5903 29.8412 36.8661 29.7187 37.1549 29.6848C37.7388 29.6154 38.0001 29.3283 38.0001 28.7315C37.992 23.0069 37.9888 17.2807 38.0033 11.5562C38.0033 10.9126 37.7114 10.6319 37.1226 10.5335C36.8484 10.4867 36.5839 10.3787 36.3161 10.298C36.3306 10.2238 36.3451 10.1512 36.3597 10.077H44.7134L44.7828 10.3061H44.7812Z" fill="#7C7E88"/>
<path d="M168.136 26.3264C168.067 26.6668 168.065 26.8426 167.996 26.9862C166.96 29.1476 165.252 30.409 162.863 30.6154C158.678 30.9784 155.816 28.7137 155.331 24.5699C154.918 21.0519 157.026 17.4081 161.165 16.6242C162.22 16.4242 163.371 16.4322 164.431 16.6161C167.151 17.0855 168.623 19.3711 168.135 22.1859H160.039C159.515 23.8118 160.399 26.4732 161.916 27.4556C162.521 27.8475 163.288 28.1153 164.002 28.1717C164.718 28.2298 165.517 28.0782 166.178 27.7878C166.833 27.4991 167.362 26.9233 168.133 26.3264H168.136ZM159.724 21.0696H164.397C164.254 20.1954 164.175 19.3986 163.981 18.6308C163.799 17.9065 163.317 17.3726 162.526 17.3146C161.749 17.2565 161.042 17.5565 160.713 18.2743C160.32 19.1324 160.073 20.0599 159.724 21.068V21.0696Z" fill="#7C7E88"/>
<path d="M153.117 22.1778C151.032 22.1778 148.999 22.181 146.965 22.1746C146.456 22.1746 145.944 22.1601 145.436 22.1181C144.931 22.0762 144.702 22.3165 144.798 22.7746C145.022 23.8408 145.119 24.9845 145.585 25.941C146.907 28.6573 150.441 29.0428 152.448 26.7797C152.567 26.6459 152.648 26.4781 152.748 26.3265C152.832 26.37 152.914 26.4152 152.998 26.4587C152.984 26.6346 153.019 26.8346 152.946 26.983C151.903 29.1283 150.203 30.3735 147.82 30.6203C143.373 31.0816 140.697 28.2089 140.267 24.7586C139.776 20.8293 142.338 17.2275 146.151 16.6178C147.314 16.4323 148.582 16.4371 149.727 16.692C152.193 17.2404 153.347 19.2212 153.117 22.1762V22.1778ZM144.714 21.0648H149.362C149.22 20.2164 149.143 19.447 148.954 18.7066C148.766 17.963 148.303 17.3888 147.478 17.3178C146.664 17.2485 145.952 17.5969 145.62 18.3259C145.235 19.1712 145.023 20.097 144.714 21.0648Z" fill="#7C7E88"/>
<path d="M119.478 16.2904V20.9085C119.041 21.0891 118.702 20.9778 118.404 20.5068C117.859 19.6455 117.267 18.8132 116.675 17.9825C116.157 17.2566 114.774 16.9501 113.802 17.3179C113 17.6211 112.497 18.3228 112.67 19.2212C112.765 19.7181 113.105 20.2778 113.508 20.581C114.095 21.023 114.834 21.2633 115.513 21.5795C116.412 21.9972 117.36 22.3295 118.207 22.8344C120.794 24.3764 120.925 27.8412 118.405 29.5074C117.546 30.0752 116.455 30.4381 115.428 30.5817C113.444 30.8591 111.473 30.522 109.545 29.972C109.092 29.8429 108.884 29.6332 108.942 29.1284C109.037 28.3025 109.022 27.4621 109.16 26.6443C109.208 26.3508 109.563 26.1088 109.832 25.7765C110.437 26.7992 110.877 27.6557 111.424 28.438C112.178 29.5139 113.207 30.1139 114.584 30.001C115.592 29.9171 116.484 29.3187 116.688 28.5251C116.923 27.6073 116.529 26.6863 115.57 26.1604C114.868 25.7765 114.102 25.5088 113.368 25.1797C112.636 24.8507 111.887 24.5474 111.184 24.1651C108.311 22.6021 108.816 18.5744 111.347 17.226C112.886 16.4049 114.518 16.2888 116.196 16.5388C117.241 16.6937 118.278 17.1098 119.48 16.2936L119.478 16.2904Z" fill="#7C7E88"/>
<path d="M103.227 13.408V16.9034H106.938C106.063 18.3131 105.008 19.1648 103.283 18.7164C103.248 19.047 103.208 19.2519 103.208 19.4584C103.203 21.6343 103.191 23.8103 103.208 25.9862C103.219 27.5541 103.811 28.467 105.038 28.7396C105.434 28.8267 105.874 28.6928 106.293 28.6864C106.53 28.6832 106.769 28.7299 107.224 28.7767C105.716 30.3139 104.132 30.9172 102.296 30.5849C100.848 30.322 99.8412 29.3993 99.3928 27.9767C99.2267 27.4492 99.1573 26.8734 99.1525 26.3185C99.1283 23.849 99.1412 21.3795 99.1412 18.7922H96.3426C96.3216 18.7228 96.3023 18.6551 96.2813 18.5857C97.091 18.026 97.4524 16.8937 98.7041 16.863C98.8541 16.8598 99.1009 16.4033 99.1202 16.142C99.2267 14.7274 99.2057 14.7258 100.561 14.2806C101.396 14.0064 102.233 13.7322 103.222 13.4096L103.227 13.408Z" fill="#7C7E88"/>
<path d="M54.7591 18.2937C56.6495 17.6791 58.54 17.0662 60.5385 16.4161C60.5385 16.8 60.5385 17.0855 60.5385 17.3694C60.5385 20.9971 60.5385 24.6231 60.5385 28.2508C60.5385 29.4573 60.5401 29.4541 61.6934 29.7444C61.8741 29.7896 62.045 29.8816 62.1789 30.1429H54.4945C54.48 30.0767 54.4655 30.0122 54.451 29.9461C54.7558 29.8541 55.0559 29.7219 55.3688 29.6783C55.9108 29.6025 56.1979 29.3283 56.1979 28.7815C56.1979 25.9603 56.2172 23.1392 56.1769 20.318C56.164 19.4067 55.7559 18.6663 54.7607 18.2905L54.7591 18.2937Z" fill="#7C7E88"/>
<path d="M60.7903 12.5063C60.8081 13.9177 59.6967 15.0419 58.2466 15.0823C56.8062 15.1226 55.5835 13.9483 55.5867 12.5273C55.5884 11.1385 56.7675 9.99322 58.1901 9.99806C59.6612 10.0013 60.7742 11.0739 60.7903 12.5063Z" fill="#7C7E88"/>
</svg>
