<svg width="165" height="42" viewBox="0 0 165 42" fill="none" xmlns="http://www.w3.org/2000/svg">
<path d="M19.5847 32.191C19.5847 35.3156 19.5811 38.4411 19.5918 41.5656C19.5927 41.8905 19.5144 42.0009 19.171 42.0009C13.0056 41.9911 6.841 41.9929 0.675554 41.9929C0.0563397 41.9929 0.0536707 41.992 0.0536707 41.3805C0.052781 35.2034 0.0536707 29.0282 0.0438843 22.853C0.0438843 22.5708 0.13819 22.488 0.398865 22.4889C2.93266 22.4933 5.46734 22.4942 8.00114 22.4889C8.24669 22.4889 8.3321 22.5539 8.33121 22.8174C8.32053 26.2677 8.3232 29.719 8.31964 33.1694C8.31964 33.732 8.33832 33.756 8.88103 33.756C9.53316 33.756 10.1862 33.7382 10.8374 33.7613C11.2102 33.7747 11.3223 33.6376 11.3187 33.2735C11.3018 31.7041 11.3178 30.1338 11.3009 28.5644C11.2974 28.2422 11.3721 28.1122 11.7182 28.1264C12.3392 28.1514 12.9629 28.1451 13.5847 28.1264C13.8819 28.1175 13.9593 28.2261 13.9584 28.5128C13.9477 31.0009 13.9459 33.4889 13.9548 35.977C13.9557 36.2556 13.8588 36.3331 13.5945 36.3331C11.0901 36.3295 8.58565 36.3304 6.08122 36.3429C5.75204 36.3447 5.73602 36.1782 5.73602 35.9236C5.74314 32.5471 5.74314 29.1706 5.74403 25.7941C5.74403 25.1381 5.73958 25.1354 5.06521 25.1354C4.4282 25.1354 3.79031 25.1425 3.1533 25.1354C2.81611 25.131 2.68622 25.2663 2.68711 25.6143C2.69601 30.0279 2.69778 34.4406 2.68711 38.8541C2.68622 39.2654 2.83124 39.39 3.23337 39.3891C7.60523 39.3784 11.9771 39.382 16.349 39.3802C16.9023 39.3802 16.9281 39.3571 16.929 38.8069C16.9308 34.4379 16.9255 30.0688 16.937 25.7007C16.9379 25.2796 16.8098 25.1221 16.3801 25.1265C14.8534 25.1434 13.3267 25.1149 11.8009 25.1434C11.3881 25.1514 11.2903 25.0179 11.3063 24.6405C11.3312 24.0494 11.3419 23.4538 11.2992 22.8645C11.2751 22.5316 11.4113 22.4907 11.6719 22.4915C12.6355 22.496 13.599 22.4933 14.5616 22.4933C16.1025 22.4933 17.6443 22.4987 19.1852 22.488C19.4699 22.4862 19.5954 22.5165 19.5936 22.8645C19.5758 25.974 19.5838 29.0843 19.5838 32.1946L19.5847 32.191Z" fill="#7C7E88"/>
<path d="M19.5731 9.77874C19.5731 12.8739 19.566 15.9691 19.582 19.0643C19.5838 19.4613 19.4708 19.5584 19.082 19.5557C16.6666 19.5388 14.2511 19.537 11.8356 19.5619C11.3703 19.5664 11.2467 19.4177 11.2751 18.9788C11.3098 18.4332 11.2992 17.883 11.2725 17.3356C11.2556 16.9839 11.3792 16.8762 11.7271 16.8798C13.268 16.8958 14.8098 16.8753 16.3507 16.8976C16.7724 16.9038 16.9183 16.7792 16.9174 16.3483C16.905 11.965 16.9059 7.58176 16.913 3.19758C16.913 2.82993 16.8098 2.67414 16.4077 2.67503C12.0064 2.68661 7.60433 2.68483 3.20311 2.6786C2.82411 2.6786 2.67732 2.8139 2.6782 3.20114C2.68799 7.57018 2.68621 11.9383 2.68799 16.3074C2.68799 16.8744 2.71557 16.8958 3.2992 16.8949C4.81076 16.8922 6.32231 16.9083 7.83387 16.8833C8.24223 16.8771 8.33031 17.0062 8.30807 17.3916C8.27337 17.9961 8.29027 18.6059 8.31874 19.2121C8.33209 19.4934 8.24757 19.5681 7.97355 19.5673C5.46911 19.5566 2.96468 19.5548 0.460245 19.5628C0.188895 19.5628 0.0776853 19.4756 0.086582 19.2103C0.0928097 19.018 0.0821337 18.8257 0.0821337 18.6326C0.0821337 12.679 0.0821337 6.72628 0.0821337 0.772701C0.0821337 0.683682 0.0901407 0.593773 0.0821337 0.506535C0.0438776 0.132656 0.179108 -0.00176295 0.582131 1.7426e-05C3.84279 0.016931 7.10256 0.00891931 10.3632 0.00891931C13.2831 0.00891931 16.2022 0.0160408 19.1221 0.000907615C19.4797 -0.000872763 19.5749 0.10417 19.5731 0.449563C19.5625 3.55988 19.5669 6.66931 19.5669 9.77963H19.5731V9.77874Z" fill="#7C7E88"/>
<path d="M46.1237 20.64C46.1237 18.686 46.1157 16.7311 46.1308 14.7772C46.1334 14.406 46.0053 14.268 45.6432 14.2831C45.2438 14.3 44.8425 14.276 44.4431 14.2911C44.1041 14.3036 43.9644 14.1754 43.9698 13.8229C43.9751 13.4846 44.048 13.3092 44.4404 13.3119C46.8256 13.3324 49.2108 13.3253 51.596 13.3422C52.7971 13.3511 53.9483 13.644 54.9679 14.2591C55.911 14.8288 56.5418 15.6602 56.5711 16.8513C56.5907 17.6552 56.4973 18.3922 56.0079 19.0741C55.4163 19.8984 54.5791 20.348 53.6806 20.6871C52.8736 20.9916 52.8345 20.9658 53.387 21.6174C54.314 22.7114 55.2713 23.7814 56.2197 24.8577C57.0595 25.8111 57.903 26.7618 58.749 27.7107C58.8113 27.7802 58.8807 27.8353 58.8282 27.9342C58.7873 28.0098 58.7063 28.0107 58.6334 28.0107C57.6707 28.0089 56.7072 28.0072 55.7446 28.0027C55.6058 28.0027 55.491 27.9448 55.3985 27.8327C54.1565 26.3113 52.9172 24.7882 51.6672 23.2731C51.1405 22.6349 50.5934 22.0126 50.0489 21.3895C49.9101 21.231 48.976 21.1669 48.8149 21.2845C48.7144 21.3583 48.726 21.4652 48.7251 21.5658C48.7233 23.2687 48.7277 24.9707 48.7206 26.6737C48.7197 26.9683 48.8594 27.0716 49.1254 27.0698C49.5551 27.0671 49.9848 27.0769 50.4137 27.0573C50.758 27.0413 50.8834 27.1704 50.879 27.5211C50.8754 27.8407 50.8247 28.0134 50.4484 28.0107C48.4333 27.9983 46.4181 28.0045 44.403 28.0063C44.1335 28.0063 43.944 27.9635 43.9698 27.6128C43.992 27.3164 43.9555 27.0369 44.3915 27.0591C44.7607 27.0778 45.1317 27.0644 45.5027 27.0627C46.0658 27.0609 46.1201 27.0084 46.1201 26.4591C46.1201 24.5194 46.1201 22.5797 46.1201 20.6408H46.1228L46.1237 20.64ZM48.7242 17.2207C48.7242 18.0486 48.7411 18.8774 48.7171 19.7044C48.7055 20.1103 48.8496 20.2563 49.2544 20.2545C49.8318 20.2509 50.4021 20.1717 50.9759 20.1495C52.2597 20.1005 53.33 19.3358 53.6992 18.0985C54.2188 16.3555 53.3105 14.8715 51.6049 14.4389C50.7811 14.2297 49.959 14.3347 49.137 14.2858C48.7954 14.2653 48.7108 14.4193 48.7179 14.7371C48.7357 15.565 48.7242 16.3929 48.7242 17.2207Z" fill="#7C7E88"/>
<path d="M141.009 28C140.002 28 138.994 27.9893 137.987 28.0053C137.633 28.0106 137.532 27.8851 137.539 27.5362C137.545 27.1988 137.629 27.0421 137.989 27.0581C138.418 27.0777 138.848 27.0581 139.277 27.0617C139.569 27.0653 139.701 26.9495 139.7 26.638C139.693 22.641 139.693 18.6441 139.699 14.6471C139.699 14.3694 139.588 14.2804 139.33 14.2848C138.871 14.2928 138.411 14.2715 137.952 14.291C137.55 14.308 137.551 14.0667 137.546 13.773C137.54 13.4658 137.612 13.3136 137.962 13.3163C139.976 13.3279 141.992 13.3288 144.007 13.3145C144.393 13.3118 144.434 13.5006 144.44 13.8103C144.446 14.1442 144.345 14.3071 143.985 14.2893C143.586 14.2697 143.185 14.3017 142.786 14.2795C142.395 14.2581 142.272 14.4201 142.277 14.802C142.295 16.2228 142.281 17.6444 142.294 19.0651C142.297 19.2957 142.148 19.6464 142.46 19.731C142.798 19.8227 143.161 19.8458 143.495 19.5494C144.336 18.8007 145.113 17.9871 145.938 17.2242C146.873 16.3607 147.826 15.5168 148.717 14.6062C148.785 14.5367 148.919 14.4931 148.871 14.3667C148.822 14.243 148.693 14.2884 148.595 14.2875C148.151 14.2821 147.705 14.267 147.262 14.2857C146.861 14.3026 146.858 14.0578 146.85 13.7676C146.841 13.4578 146.928 13.3083 147.273 13.3109C148.858 13.3234 150.443 13.3225 152.028 13.3109C152.415 13.3083 152.486 13.4917 152.491 13.8335C152.495 14.2011 152.331 14.3329 152.009 14.283C150.975 14.1246 150.218 14.4994 149.482 15.2542C148.152 16.6171 146.704 17.866 145.298 19.1541C145.096 19.3393 145.097 19.4613 145.282 19.6616C146.726 21.2265 148.167 22.7941 149.596 24.3742C150.498 25.3721 151.38 26.3869 152.258 27.4062C152.405 27.5762 152.773 27.6857 152.672 27.9109C152.564 28.1548 152.217 27.9893 151.979 27.9946C151.194 28.0142 150.409 27.9973 149.624 28.0017C149.402 28.0035 149.26 27.927 149.104 27.748C147.998 26.4768 146.863 25.2306 145.75 23.9647C144.746 22.8226 143.758 21.6663 142.761 20.517C142.659 20.3995 142.586 20.1868 142.398 20.2464C142.19 20.3132 142.301 20.5295 142.3 20.6764C142.294 22.5858 142.296 24.4953 142.298 26.4056C142.298 27.0012 142.361 27.0608 142.964 27.0644C143.334 27.0661 143.705 27.0786 144.075 27.059C144.474 27.0377 144.431 27.2923 144.446 27.5549C144.462 27.8388 144.419 28.0071 144.078 28.0035C143.056 27.9911 142.033 27.9991 141.011 27.9991V27.9955L141.009 28Z" fill="#7C7E88"/>
<path d="M120.503 20.6203C120.62 24.814 117.063 28.0418 113.286 28.2056C108.582 28.4086 105.12 24.8309 105.121 20.7049C105.121 16.5495 108.192 13.1623 112.833 13.0555C116.552 12.9701 120.545 15.9317 120.504 20.6203H120.503ZM117.54 20.6239C117.644 19.6723 117.479 18.734 117.154 17.8243C116.685 16.5139 115.985 15.3691 114.745 14.64C113.51 13.9137 112.264 13.8665 111.016 14.6062C109.252 15.6522 108.501 17.3533 108.203 19.2494C108.026 20.372 108.059 21.5337 108.326 22.6776C108.707 24.3128 109.476 25.6793 110.874 26.6353C111.638 27.1579 112.507 27.4374 113.434 27.2282C114.951 26.8846 115.976 25.876 116.681 24.5532C117.327 23.3425 117.676 22.0384 117.541 20.6239H117.54Z" fill="#7C7E88"/>
<path d="M91.9997 17.2448C91.8743 17.3863 91.8966 17.4932 91.8966 17.5946C91.8966 20.5714 91.9072 23.5473 91.8903 26.5241C91.8876 26.9692 92.0469 27.0929 92.4579 27.0698C92.9161 27.044 93.377 27.0778 93.8351 27.0591C94.2026 27.044 94.2355 27.2461 94.2302 27.5372C94.2248 27.814 94.2302 28.0179 93.8449 28.0143C92.2444 27.9974 90.6439 28.0018 89.0434 28.0116C88.7079 28.0134 88.5692 27.9084 88.5709 27.5505C88.5727 27.1837 88.7044 27.0378 89.0674 27.0547C89.4072 27.0707 89.7489 27.052 90.0896 27.0591C90.6804 27.0716 90.7293 27.0289 90.7293 26.4476C90.7293 23.323 90.6875 20.1975 90.7533 17.0739C90.7738 16.092 90.5095 15.3558 89.7747 14.746C89.3966 14.4327 89.1047 14.0365 88.8058 13.6502C88.7515 13.5799 88.6644 13.5113 88.6964 13.4205C88.7382 13.303 88.861 13.3146 88.9642 13.3155C89.8832 13.3173 90.8014 13.3253 91.7204 13.3173C91.9775 13.3146 92.1261 13.4553 92.2764 13.6262C93.6145 15.1466 94.9526 16.6671 96.2942 18.1848C97.7933 19.8806 99.296 21.5729 100.794 23.2678C100.862 23.3444 100.899 23.4645 101.027 23.4334C101.188 23.3933 101.146 23.2464 101.146 23.1378C101.15 20.3097 101.148 17.4807 101.155 14.6526C101.155 14.3695 101.018 14.2894 100.775 14.2894C100.257 14.2894 99.7381 14.2751 99.2195 14.2911C98.8342 14.3027 98.844 14.0615 98.8413 13.7935C98.8387 13.5158 98.8538 13.3084 99.2328 13.3119C100.818 13.3262 102.404 13.3244 103.99 13.3119C104.34 13.3093 104.413 13.4748 104.412 13.7766C104.412 14.0757 104.388 14.3063 103.994 14.2894C103.566 14.2716 103.135 14.2929 102.705 14.2858C102.413 14.2805 102.292 14.3757 102.292 14.7006C102.305 19.1436 102.304 23.5856 102.3 28.0285C102.3 28.1745 102.404 28.3917 102.192 28.4532C102.017 28.5039 101.972 28.2876 101.879 28.1843C100.538 26.703 99.199 25.22 97.8627 23.7352C96.4677 22.1844 95.0789 20.6284 93.683 19.0786C93.1305 18.4652 92.5674 17.8635 91.998 17.2448H91.9997Z" fill="#7C7E88"/>
<path d="M39.2127 21.4055C40.1317 21.4055 41.0507 21.4224 41.9689 21.3975C42.3968 21.3859 42.4893 21.5675 42.4956 21.9538C42.5018 22.3517 42.3959 22.5298 41.9724 22.4862C41.6646 22.455 41.3505 22.4844 41.0392 22.4799C40.782 22.4764 40.6744 22.5725 40.6806 22.8511C40.6984 23.695 40.6868 24.5389 40.6886 25.3828C40.6895 25.949 40.7322 25.9837 41.2936 25.9793C41.444 25.9784 41.6593 25.8582 41.7313 26.0576C41.7972 26.2401 41.5845 26.3309 41.4609 26.419C40.5436 27.0769 39.5516 27.5549 38.4511 27.8629C37.1415 28.2297 35.8177 28.2724 34.4992 28.154C33.2501 28.0418 32.0534 27.6671 30.9663 26.9781C29.638 26.1368 28.6584 25.0188 28.065 23.566C27.7937 22.9001 27.6229 22.2084 27.5891 21.4865C27.5472 20.615 27.5561 19.7355 27.791 18.8978C28.057 17.9489 28.4805 17.0605 29.0721 16.2522C30.0864 14.8679 31.4324 13.9306 33.0339 13.4089C33.8977 13.1276 34.8177 13.0146 35.7634 13.0911C36.8862 13.1828 37.9324 13.4534 38.9191 13.9777C39.1237 14.0863 39.2785 14.0401 39.4502 13.9225C39.7794 13.6964 40.1192 13.4872 40.4484 13.262C40.686 13.0991 40.8087 13.1534 40.8105 13.4383C40.8159 14.8742 40.8167 16.3109 40.8194 17.7468C40.8194 17.8207 40.823 17.9026 40.7367 17.9328C40.629 17.9702 40.5739 17.8866 40.5231 17.8171C40.2696 17.4726 40.0312 17.1174 39.7651 16.7827C38.9458 15.7519 38.0329 14.8314 36.7474 14.389C35.1575 13.8415 33.7251 14.1567 32.4698 15.2427C31.4129 16.1569 30.8969 17.348 30.6415 18.7171C30.5001 19.4729 30.4405 20.2197 30.517 20.9586C30.7643 23.3479 31.896 25.8475 34.7999 26.8605C35.7358 27.1872 36.7269 27.2522 37.7091 26.9522C37.9182 26.8881 37.9831 26.7689 37.9822 26.5632C37.9769 25.3196 37.9751 24.076 37.9831 22.8316C37.9849 22.5823 37.8933 22.4844 37.6468 22.4879C37.2029 22.4951 36.7563 22.463 36.3141 22.4924C35.904 22.52 35.8541 22.3028 35.8559 21.9788C35.8577 21.6467 35.8915 21.3975 36.3257 21.4046C37.2883 21.4206 38.2518 21.4099 39.2153 21.4099V21.4037L39.2127 21.4055Z" fill="#7C7E88"/>
<path d="M72.8522 23.2081C72.5176 23.6123 72.6849 24.0823 72.5328 24.5176C72.3717 24.9796 72.3548 25.4914 72.2667 25.9793C72.168 26.525 72.0844 27.0733 71.9607 27.6154C71.8815 27.9635 71.6974 28.0107 71.3966 28.0098C68.8335 28.0018 66.2703 28.0053 63.7081 28.0053C62.5524 28.0053 61.3967 27.9956 60.2419 28.0116C59.8851 28.016 59.741 27.9154 59.7446 27.5335C59.7481 27.1561 59.8851 27.035 60.2455 27.0573C60.6289 27.0804 61.0168 27.0413 61.4003 27.068C61.7971 27.0956 61.9011 26.938 61.8994 26.5552C61.8851 23.7867 61.8914 21.0182 61.8922 18.2498C61.8922 17.0507 61.8869 15.8516 61.9056 14.6525C61.91 14.3668 61.7971 14.2849 61.5471 14.2866C61.1022 14.2884 60.6565 14.2626 60.2143 14.2902C59.8086 14.316 59.7526 14.1059 59.7481 13.7748C59.7437 13.4356 59.8522 13.3101 60.2108 13.3119C63.2623 13.3252 66.3148 13.3083 69.3664 13.3297C70.0203 13.3341 70.6297 13.2718 71.1742 12.8864C71.434 12.703 71.5666 12.7991 71.5692 13.0858C71.579 14.4175 71.579 15.7501 71.5826 17.0818C71.5826 17.1611 71.5612 17.2341 71.4785 17.2563C71.3762 17.2839 71.313 17.2136 71.2587 17.1415C71.0007 16.8005 70.7481 16.4542 70.4838 16.1186C70.0728 15.597 69.6431 15.0887 69.2418 14.5599C69.0906 14.3605 68.9233 14.2875 68.6796 14.2893C67.4652 14.2964 66.2499 14.2929 65.0355 14.2893C64.7712 14.2893 64.5933 14.3133 64.5995 14.673C64.6235 16.2273 64.6155 17.7815 64.6191 19.3358C64.6203 19.7494 64.8341 19.9563 65.2606 19.9563C65.838 19.9563 66.4162 19.9474 66.9936 19.9607C67.2232 19.966 67.3904 19.9002 67.5203 19.7088C67.9242 19.1141 68.4411 18.6014 68.7979 17.972C68.8522 17.8768 68.9385 17.802 69.0506 17.8323C69.1867 17.8688 69.144 17.9961 69.144 18.0949C69.1422 19.634 69.1404 21.174 69.1369 22.7132C69.1369 22.8244 69.1991 22.9829 69.0488 23.0185C68.9091 23.0514 68.8086 22.9233 68.7347 22.8111C68.3593 22.2431 67.9207 21.7233 67.5025 21.1874C67.3415 20.9809 67.1734 20.8874 66.9082 20.8945C66.2864 20.9123 65.6636 20.9105 65.0417 20.8954C64.7481 20.8883 64.6066 20.9728 64.6084 21.2924C64.6164 23.0835 64.6155 24.8754 64.6084 26.6665C64.6075 26.9781 64.7445 27.0733 65.0426 27.0715C66.346 27.0608 67.6502 27.06 68.9536 27.0715C69.2463 27.0742 69.4056 26.9273 69.5773 26.7252C70.5034 25.6312 71.4393 24.5461 72.378 23.4627C72.4767 23.3479 72.5595 23.1841 72.8548 23.2081H72.8522Z" fill="#7C7E88"/>
<path d="M80.3201 28.0054C78.4687 28.0054 76.6164 28.0072 74.765 28.0045C74.2401 28.0045 74.2178 27.9573 74.2276 27.4472C74.2338 27.1464 74.378 27.06 74.6413 27.0627C75.0417 27.0653 75.4429 27.0386 75.8406 27.0671C76.2534 27.0965 76.3762 26.9372 76.3735 26.533C76.3584 24.1348 76.3646 21.7367 76.3646 19.3385C76.3646 17.8287 76.3539 16.3181 76.3735 14.8083C76.3788 14.4033 76.2596 14.2448 75.8424 14.2787C75.4447 14.3116 75.0425 14.2742 74.6431 14.2876C74.305 14.2991 74.2116 14.1371 74.2178 13.8247C74.2249 13.5202 74.2614 13.3128 74.6466 13.3173C75.9055 13.3306 77.1653 13.3217 78.4242 13.3217C80.3646 13.3217 82.3059 13.3048 84.2462 13.3315C84.7658 13.3386 85.2026 13.1989 85.6101 12.9149C85.7222 12.8375 85.8156 12.7289 85.9606 12.8054C86.0852 12.8713 86.0718 13.0048 86.0718 13.1214C86.0736 14.4238 86.0736 15.727 86.0736 17.0294C86.0736 17.1148 86.1003 17.2199 85.9944 17.2608C85.8681 17.3098 85.8103 17.2056 85.748 17.1246C85.071 16.2496 84.3868 15.3789 83.7213 14.4941C83.5923 14.3223 83.4446 14.2929 83.264 14.2929C81.99 14.2894 80.716 14.2902 79.442 14.2805C79.1635 14.2787 79.0452 14.3721 79.047 14.6668C79.0577 16.3101 79.0568 17.9534 79.0505 19.5967C79.0496 19.8637 79.1457 19.9652 79.4153 19.9616C80.111 19.951 80.8076 19.9492 81.5043 19.9652C81.764 19.9714 81.9215 19.8406 82.0594 19.6608C82.5078 19.0741 82.9509 18.4839 83.3975 17.8964C83.4562 17.819 83.4838 17.6792 83.6128 17.7139C83.7427 17.7486 83.7071 17.8839 83.708 17.981C83.7107 19.6091 83.7115 21.2382 83.7089 22.8663C83.7089 22.9625 83.74 23.0969 83.6048 23.1263C83.4945 23.1503 83.4215 23.0604 83.3574 22.974C82.9064 22.3714 82.4464 21.7758 82.006 21.1661C81.869 20.9756 81.7142 20.8963 81.4865 20.899C80.805 20.907 80.1235 20.9106 79.442 20.899C79.1573 20.8937 79.047 20.9987 79.0479 21.2871C79.055 23.0782 79.055 24.8701 79.0479 26.6612C79.047 26.9461 79.1555 27.0627 79.4384 27.0618C80.8014 27.0573 82.1644 27.0573 83.5274 27.0636C83.7658 27.0645 83.9162 26.9398 84.0469 26.7743C84.9117 25.6864 85.9073 24.7108 86.7409 23.5972C86.7676 23.5616 86.7916 23.5179 86.8281 23.4975C86.958 23.4245 86.9936 23.1361 87.1884 23.2598C87.345 23.3595 87.2053 23.5562 87.1768 23.7111C87.0816 24.2301 86.9927 24.7509 86.9064 25.2716C86.7791 26.0399 86.6653 26.8099 86.5291 27.5754C86.4722 27.8977 86.2613 28.0161 85.9224 28.0134C84.0558 28 82.1893 28.0072 80.3228 28.0072L80.3201 28.0054Z" fill="#7C7E88"/>
<path d="M132.782 28.0054C131.744 28.0054 130.707 27.9947 129.67 28.0116C129.318 28.0169 129.163 27.9279 129.168 27.5416C129.172 27.1748 129.284 27.0386 129.657 27.0546C130.219 27.0796 130.783 27.0529 131.347 27.0644C131.704 27.0716 131.763 26.8811 131.654 26.6122C131.154 25.3846 130.638 24.1651 130.139 22.9375C130.043 22.6998 129.875 22.6402 129.653 22.6402C128.201 22.6402 126.748 22.6446 125.296 22.6357C125.006 22.634 124.864 22.7924 124.77 23.0248C124.295 24.198 123.827 25.3749 123.348 26.5472C123.154 27.0208 123.17 27.0582 123.708 27.0627C124.256 27.0671 124.805 27.0813 125.353 27.0573C125.774 27.0395 125.828 27.2549 125.839 27.6057C125.851 27.9893 125.634 28.0054 125.361 28.0054C123.805 28.0036 122.249 27.9965 120.693 28.0098C120.34 28.0125 120.229 27.8888 120.242 27.5416C120.253 27.2264 120.298 27.0235 120.681 27.0591C120.945 27.084 121.219 27.0333 121.48 27.0689C121.869 27.1223 122.051 26.9158 122.18 26.6051C122.901 24.8648 123.621 23.1236 124.341 21.3824C125.05 19.6696 125.759 17.956 126.47 16.2442C126.526 16.1089 126.584 15.9709 126.662 15.8472C127.151 15.0674 126.678 14.4051 126.382 13.7392C126.241 13.4205 126.321 13.3244 126.62 13.3217C127.331 13.3155 128.042 13.319 128.754 13.3217C129.226 13.3244 129.243 13.7597 129.367 14.0374C129.775 14.9516 130.13 15.8881 130.505 16.8166C131.105 18.3014 131.701 19.788 132.309 21.2702C132.851 22.5912 133.407 23.906 133.958 25.2235C134.168 25.7256 134.389 26.2241 134.586 26.7315C134.689 26.9986 134.864 27.0849 135.136 27.068C135.402 27.0511 135.67 27.0751 135.936 27.0573C136.336 27.0297 136.384 27.2487 136.389 27.5825C136.395 27.9279 136.256 28.0116 135.941 28.0071C134.889 27.9947 133.837 28.0027 132.784 28.0027V28.0045L132.782 28.0054ZM127.54 21.5453C128.116 21.5453 128.693 21.5497 129.269 21.5417C129.4 21.5399 129.618 21.5773 129.506 21.3165C128.874 19.8495 128.259 18.3753 127.704 16.8771C127.671 16.7872 127.649 16.6563 127.517 16.6617C127.38 16.667 127.324 16.7836 127.279 16.8949C126.704 18.2952 126.136 19.6981 125.55 21.0939C125.405 21.4402 125.502 21.5533 125.855 21.5479C126.416 21.539 126.978 21.5453 127.54 21.5444V21.5453Z" fill="#7C7E88"/>
<path d="M13.9379 9.83654C13.9379 11.0508 13.9299 12.265 13.9432 13.4792C13.9468 13.8059 13.8845 13.9385 13.5046 13.935C11.0749 13.9145 8.64433 13.9163 6.21462 13.9341C5.82762 13.9368 5.70306 13.8362 5.70573 13.44C5.72174 10.9965 5.72085 8.55378 5.70573 6.11021C5.70306 5.71408 5.83473 5.60993 6.21996 5.6126C8.60518 5.63218 10.9913 5.6393 13.3765 5.62239C13.8222 5.61972 13.9619 5.73544 13.9495 6.193C13.9165 7.40633 13.9379 8.62144 13.9379 9.83565V9.83654Z" fill="#7C7E88"/>
<path d="M163.48 15.5124C163.48 16.1783 163.48 16.8442 163.48 17.5109C163.48 17.6115 163.515 17.7433 163.384 17.7744C163.253 17.8047 163.242 17.6685 163.186 17.5839C162.339 16.2923 161.465 15.0309 159.963 14.3944C158.851 13.9226 157.678 14.2101 157.066 14.8955C156.346 15.7021 156.363 16.8255 157.094 17.6249C157.843 18.4438 158.861 18.7821 159.832 19.2121C161 19.7293 162.222 20.1761 163.119 21.1384C164.052 22.1408 164.217 23.3479 163.889 24.6404C163.442 26.4066 162.192 27.4009 160.549 27.9297C159.399 28.3 158.205 28.3036 157.009 28.0534C156.043 27.8514 155.139 27.5318 154.326 26.9594C154.093 26.7956 153.991 26.6238 153.989 26.3425C153.98 25.3811 154.038 24.4179 153.954 23.4574C153.944 23.3461 153.942 23.2357 154.074 23.2135C154.208 23.1912 154.233 23.3114 154.275 23.4066C154.809 24.5888 155.6 25.568 156.614 26.3719C157.797 27.3092 159.774 27.3858 160.736 26.5543C161.92 25.5306 161.918 23.6977 160.676 22.7435C159.9 22.1461 158.998 21.7829 158.103 21.4064C157.026 20.9524 155.923 20.5153 155.134 19.602C154.348 18.694 154.157 17.632 154.428 16.4641C154.765 15.0184 155.629 14.0285 156.976 13.4597C157.724 13.1445 158.504 13.0146 159.331 13.1098C160.2 13.2095 161.001 13.4365 161.701 13.9697C161.891 14.114 162.057 14.0561 162.228 13.935C162.53 13.7223 162.844 13.5255 163.135 13.2994C163.401 13.0929 163.467 13.2051 163.467 13.4712C163.468 14.1522 163.467 14.8332 163.467 15.5142C163.471 15.5142 163.474 15.5142 163.478 15.5142L163.48 15.5124Z" fill="#7C7E88"/>
</svg>
