<svg width="214" height="32" viewBox="0 0 214 32" fill="none" xmlns="http://www.w3.org/2000/svg">
<g clip-path="url(#clip0_45_1152)">
<path d="M113.776 16.5724C113.56 13.7961 112.329 11.5329 109.624 10.5329C106.599 9.41453 103.751 9.829 101.287 12.1053C100.929 12.4343 100.707 13.2435 100.27 13.0527C99.8206 12.8553 100.094 12.079 100.094 11.5658C100.094 10.9079 99.8206 10.6514 99.1818 10.6711C98.4127 10.6908 97.6436 10.7172 96.8745 10.6711C96.0206 10.6119 95.7338 10.9474 95.7469 11.8093C95.786 14.8816 95.7599 17.954 95.7664 21.0198C95.7664 24.1514 95.7795 27.2829 95.7599 30.4145C95.7599 31.1053 95.9946 31.3948 96.692 31.3619C97.4872 31.329 98.2889 31.3619 99.0906 31.3553C100.277 31.3553 100.329 31.2961 100.336 30.079C100.336 26.7698 100.336 23.4606 100.342 20.1514C100.349 18.5132 100.564 16.9145 101.724 15.6514C103.008 14.2501 104.611 13.6908 106.462 14.1711C108.294 14.6514 108.998 16.0922 109.233 17.829C109.337 18.6251 109.363 19.4343 109.363 20.2369C109.369 23.579 109.363 26.9145 109.356 30.2566C109.356 30.8158 109.356 31.3751 110.145 31.3685C111.181 31.3619 112.218 31.3553 113.248 31.3553C113.736 31.3553 113.932 31.0922 113.925 30.6185C113.854 25.9408 114.134 21.2566 113.776 16.5856V16.5724Z" fill="#7C7E88"/>
<path d="M52.9304 11.2105C46.7514 14.6052 46.2234 23.6052 49.9973 28.1579C52.7414 31.4671 56.3458 32.4145 60.3869 31.7895C63.1962 31.3552 65.3275 29.7566 66.7094 27.1973C67.0287 26.5987 66.9375 26.2763 66.2596 26.1052C65.51 25.921 64.767 25.7105 64.0435 25.4605C63.5481 25.2895 63.2418 25.3618 62.9355 25.8355C62.1729 27 61.1039 27.7631 59.7286 28.0526C56.3393 28.7697 53.2759 26.7368 52.4742 23.2434C52.2525 22.2763 52.3373 22.1316 53.3345 22.125C55.5832 22.1052 57.8319 22.125 60.4782 22.125C62.3619 22.3552 64.6366 22.0855 66.9114 22.125C67.6545 22.1381 67.9869 21.8684 67.9738 21.0789C67.9543 20.2697 67.8956 19.4737 67.7653 18.6776C66.4226 10.421 58.3273 8.24998 52.9304 11.2171V11.2105ZM62.3163 19.0789C60.778 19.0592 59.2463 19.0789 57.7081 19.0789C56.2611 19.0855 54.8141 19.0658 53.3671 19.0987C52.5784 19.1184 52.3112 18.8684 52.4937 18.046C53.0086 15.6579 54.6642 13.9934 57.0106 13.5987C59.2202 13.2237 61.306 14.1579 62.3945 16.0263C62.7856 16.7039 62.9941 17.4408 63.0984 18.2171C63.1766 18.8355 62.942 19.0921 62.3228 19.0855L62.3163 19.0789Z" fill="#7C7E88"/>
<path d="M91.2038 18.9934C90.0827 10.7829 82.4176 8.33551 76.7796 10.9934C71.2654 13.5921 69.7663 20.8355 72.0541 25.9145C74.1789 30.6316 78.8132 32.6579 83.9363 31.75C86.7064 31.2631 88.7922 29.6645 90.1414 27.1381C90.4086 26.6381 90.4021 26.3289 89.7699 26.171C89.0268 25.9868 88.2838 25.7631 87.5603 25.5131C86.9997 25.3224 86.6347 25.4408 86.2762 25.9408C85.5136 27.0066 84.5164 27.7763 83.1998 28.0658C79.7778 28.8026 76.7014 26.7895 75.8671 23.25C75.6389 22.2763 75.7302 22.125 76.7079 22.1184C78.9892 22.1052 81.2639 22.1184 83.5452 22.1184C85.7678 22.1184 87.9839 22.1184 90.2066 22.1118C91.3276 22.1118 91.4189 22.0197 91.3798 20.8684C91.3602 20.2434 91.295 19.6184 91.2103 19L91.2038 18.9934ZM85.7418 19.0855C84.2296 19.0658 82.724 19.0855 81.2118 19.0855C79.6736 19.0855 78.1353 19.0855 76.5971 19.0855C76.0822 19.0855 75.7237 18.9605 75.854 18.3026C76.8643 13.2566 81.7137 12.4803 84.5359 14.5592C85.7548 15.4539 86.2958 16.7631 86.5239 18.2302C86.6217 18.8487 86.361 19.1053 85.7418 19.0921V19.0855Z" fill="#7C7E88"/>
<path d="M44.5679 10.2434C42.6581 9.90129 40.2074 11.0789 38.956 12.9802C38.7865 13.2368 38.7278 13.6052 38.3107 13.7237C37.9717 13.0131 38.1673 12.2631 38.1412 11.546C38.1151 10.9539 37.9 10.6644 37.2939 10.6776C36.5834 10.6973 35.873 10.6776 35.1625 10.6776C33.9958 10.6776 33.9437 10.7237 33.9437 11.875C33.9437 15.5723 33.9371 19.2697 33.9371 22.9671C33.9371 25.4408 33.9567 27.9144 33.9371 30.3881C33.9371 31.0658 34.1653 31.375 34.8692 31.3487C35.6644 31.3158 36.4661 31.3487 37.2613 31.3421C38.441 31.3421 38.4671 31.3158 38.4671 30.1513C38.4801 27.0789 38.4019 24.0066 38.5127 20.9408C38.6561 16.9473 40.7354 14.3158 44.9003 14.7697C45.4609 14.8289 45.5652 14.5658 45.5586 14.1052C45.5521 13.2105 45.5195 12.3158 45.5651 11.421C45.6043 10.6644 45.2588 10.3684 44.5614 10.2434H44.5679Z" fill="#7C7E88"/>
<path d="M28.1621 15.1513C26.1806 15.1513 24.1992 15.1513 22.2112 15.1513V15.125C20.2558 15.125 18.307 15.1447 16.3516 15.1184C15.6085 15.1053 15.25 15.3553 15.2957 16.1513C15.3413 16.8947 15.2957 17.6447 15.3087 18.3881C15.3152 19.5066 15.3543 19.546 16.4689 19.5526C18.6263 19.5526 20.7903 19.5526 22.9477 19.5395C23.4822 19.5395 23.9124 19.6184 23.782 20.3289C23.2867 22.9803 22.0874 25.1645 19.6301 26.4408C14.7742 28.9671 8.83638 26.9934 6.35304 22.0921C5.44705 20.296 5.0299 18.3947 4.97124 16.4079C4.95169 15.5855 4.63231 15.3026 3.83712 15.3487C2.89201 15.4013 1.94039 15.3947 0.995292 15.3553C0.252246 15.3224 -0.0410612 15.6184 0.05019 16.3553C0.128405 16.9737 0.141441 17.6053 0.213139 18.2237C0.721538 22.6908 2.52049 26.4737 6.17054 29.1842C9.61853 31.7434 13.5489 32.3947 17.7203 31.7895C20.6339 31.3684 23.1628 30.1184 25.1247 27.9079C28.1621 24.4934 29.029 20.3158 29.0355 15.875C29.0355 15.25 28.6509 15.1513 28.1491 15.1513H28.1621Z" fill="#7C7E88"/>
<path d="M170.416 5.46711C173.082 5.47369 172.704 5.67764 172.717 3.11843C172.717 2.57896 172.704 2.04606 172.717 1.50659C172.737 0.901324 172.476 0.631588 171.876 0.644745C170.899 0.664482 169.928 0.657903 168.95 0.651324C168.435 0.651324 168.187 0.894746 168.194 1.41448C168.194 2.01317 168.187 2.60527 168.194 3.20396C168.207 5.6579 167.907 5.46054 170.423 5.46711H170.416Z" fill="#7C7E88"/>
<path d="M16.3452 4.63163C19.4021 5.00663 21.6834 6.58557 23.0391 9.4211C23.2542 9.87505 23.5149 9.97373 23.9516 9.80268C25.0271 9.38821 26.0895 8.94084 27.1845 8.579C27.8624 8.34873 27.8689 8.03952 27.5821 7.46057C25.4377 3.17768 21.9506 0.756628 17.2968 0.197417C14.7678 -0.105214 15.185 -0.407846 15.1393 2.08558C15.1393 2.11847 15.1393 2.14479 15.1393 2.17768C15.1393 2.50663 15.1784 2.83558 15.1328 3.15794C14.9959 4.11847 15.3479 4.50663 16.3452 4.63163Z" fill="#7C7E88"/>
<path d="M211.929 10.6579C210.749 10.7105 209.563 10.6316 208.383 10.6776C207.543 10.7105 207.21 10.3816 207.23 9.53291C207.262 8.01317 207.23 6.49343 207.23 4.9737C207.23 4.33554 206.969 4.04607 206.324 4.0658C205.437 4.09212 204.544 4.10528 203.664 4.0658C202.869 4.02633 202.628 4.36843 202.648 5.12501C202.687 6.58554 202.615 8.04607 202.674 9.50659C202.713 10.4211 202.361 10.6842 201.487 10.6908C198.9 10.6908 198.926 10.7237 198.906 13.3816C198.906 14.2105 199.128 14.6184 200.008 14.5263C200.536 14.4737 201.077 14.5592 201.605 14.5066C202.439 14.4276 202.68 14.8026 202.667 15.5987C202.635 18.0461 202.654 20.4869 202.654 22.9342H202.648C202.648 25.4079 202.661 27.8816 202.635 30.3553C202.628 31.079 202.876 31.3948 203.612 31.3553C204.408 31.3158 205.209 31.3553 206.011 31.3553C207.145 31.3553 207.23 31.2763 207.23 30.1448C207.23 26.8619 207.23 23.5855 207.23 20.3026C207.23 18.75 207.256 17.204 207.223 15.6513C207.204 14.8355 207.451 14.454 208.338 14.5066C209.485 14.5724 210.645 14.5263 211.799 14.5197C212.607 14.5197 213.013 14.0965 213.018 13.25C213.018 12.7697 212.979 12.2895 213.024 11.8224C213.109 10.9737 212.79 10.625 211.923 10.6645L211.929 10.6579Z" fill="#7C7E88"/>
<path d="M171.713 10.6578C170.977 10.6973 170.234 10.6644 169.497 10.671C168.22 10.671 168.187 10.7039 168.187 11.967C168.187 16.8026 168.187 21.6315 168.187 26.467C168.187 27.8092 168.194 29.1513 168.187 30.4934C168.187 31.092 168.428 31.3684 169.035 31.3552C169.862 31.3355 170.69 31.3552 171.518 31.3552C172.698 31.3552 172.73 31.3223 172.73 30.1644C172.73 27.092 172.73 24.0197 172.73 20.9473C172.73 17.8749 172.717 14.8026 172.743 11.7302C172.75 10.967 172.502 10.6249 171.72 10.671L171.713 10.6578Z" fill="#7C7E88"/>
<path d="M195.647 16.3026C195.269 13.6184 194.09 11.4342 191.424 10.5C188.413 9.44078 185.597 9.84867 183.166 12.1052C182.807 12.4408 182.566 13.2434 182.142 13.0658C181.679 12.8684 181.96 12.0987 181.96 11.5855C181.96 10.9408 181.725 10.6513 181.073 10.671C180.337 10.6908 179.594 10.7171 178.857 10.671C177.99 10.6118 177.723 11 177.73 11.8355C177.756 14.875 177.743 17.921 177.743 20.9605C177.743 24.0658 177.756 27.1645 177.73 30.2697C177.73 31.0658 177.997 31.4276 178.818 31.3684C179.463 31.3224 180.122 31.3618 180.773 31.3618C182.201 31.3618 182.194 31.3618 182.214 29.921C182.273 26.1974 182.071 22.4671 182.325 18.7434C182.449 16.8816 183.368 15.4802 184.984 14.5658C187.559 13.1052 190.407 14.3881 191.039 17.2895C191.209 18.0789 191.248 18.8816 191.248 19.6908C191.248 23.1776 191.248 26.671 191.248 30.1579C191.248 31.2895 191.326 31.3618 192.473 31.3684C193.242 31.3684 194.018 31.3289 194.781 31.3816C195.615 31.4408 195.856 31.0789 195.843 30.2763C195.804 28.0395 195.856 25.8026 195.823 23.5658C195.791 21.1513 195.999 18.7302 195.66 16.3289L195.647 16.3026Z" fill="#7C7E88"/>
<path d="M124.048 19.9606C123.103 19.9803 122.151 19.9869 121.206 19.9606C120.476 19.9343 120.202 20.2632 120.215 20.9803C120.241 22.5 120.222 24.0198 120.215 25.5461C120.215 27.125 120.228 28.7106 120.215 30.2895C120.215 30.9277 120.463 31.2237 121.115 31.2106C122.118 31.1908 123.129 31.1908 124.132 31.2106C124.739 31.2171 124.986 30.9408 124.98 30.3421C124.967 27.1777 124.96 24.0198 124.973 20.8553C124.973 20.1908 124.66 19.9606 124.041 19.9737L124.048 19.9606Z" fill="#7C7E88"/>
<path d="M153.887 9.98022C147.636 9.9539 143.184 14.5131 143.178 20.9473C143.178 27.4078 147.552 31.9276 153.841 31.9539C160.079 31.9802 164.518 27.4736 164.55 21.0921C164.583 14.5986 160.183 10.0131 153.887 9.98679V9.98022ZM158.821 25.1381C157.504 27.3749 155.38 28.1776 152.89 27.8223C150.452 27.4736 148.966 25.9144 148.197 23.6118C147.91 22.7565 147.806 21.8684 147.832 20.9671C147.89 18.4671 148.549 16.2368 150.804 14.8421C153.985 12.875 158.176 14.4276 159.375 17.9802C160.203 20.4407 160.157 22.8881 158.828 25.1447L158.821 25.1381Z" fill="#7C7E88"/>
<path d="M131.354 0.532839C127.985 0.40126 124.608 0.519681 121.238 0.486786C120.43 0.480207 120.222 0.822313 120.235 1.55915C120.261 3.61837 120.248 5.67758 120.248 7.73679C120.248 9.85521 120.261 11.9736 120.241 14.0921C120.235 14.8157 120.508 15.1315 121.232 15.0986C121.968 15.0657 122.712 15.0986 123.448 15.0986C124.474 15.0986 124.988 14.5942 124.993 13.5855C124.993 11.1118 125.019 8.63152 124.986 6.15784C124.973 5.28942 125.24 4.90784 126.146 4.921C127.893 4.94731 129.634 4.90784 131.38 5.05258C133.714 5.24337 135.676 6.62495 136.256 8.48679C137.273 11.7368 135.311 14.7368 131.915 15.1776C130.025 15.421 128.134 15.2828 126.244 15.3223C125.749 15.3355 125.247 15.3223 125.24 16.0197C125.234 17.0328 125.24 18.046 125.24 19.0592C125.24 19.4999 125.495 19.7171 125.918 19.7039C128.46 19.6381 131.022 19.9736 133.538 19.5263C140.799 18.2368 143.034 10.9342 140.545 5.88152C138.674 2.08547 135.304 0.684155 131.361 0.52626L131.354 0.532839Z" fill="#7C7E88"/>
</g>
<defs>
<clipPath id="clip0_45_1152">
<rect width="213" height="32" fill="white" transform="translate(0.0438232)"/>
</clipPath>
</defs>
</svg>
