<svg width="236" height="38" viewBox="0 0 236 38" fill="none" xmlns="http://www.w3.org/2000/svg">
<g clip-path="url(#clip0_45_1112)">
<path d="M29.1164 11.9393C28.2121 11.9536 28.1262 12.4826 28.1262 13.1926C28.1315 20.9113 28.135 28.63 28.1227 36.3487C28.1227 37.1627 28.2524 37.6916 29.2426 37.6844C30.217 37.6754 30.2679 37.1178 30.2661 36.3738C30.2538 32.5476 30.2608 28.7214 30.2591 24.897C30.2591 20.9704 30.2433 17.0439 30.2714 13.1173C30.2766 12.2495 29.9752 11.925 29.1182 11.9393H29.1164Z" fill="#7C7E88"/>
<path d="M131.913 37.6827C132.704 37.6898 133.051 37.4137 133.042 36.5746C133.016 34.0232 133.051 31.4736 133.026 28.9223C133.017 28.0796 133.294 27.7174 134.172 27.7425C136.044 27.7945 137.918 27.7927 139.789 27.7407C140.559 27.7192 140.981 28.024 141.344 28.6838C142.741 31.2298 144.241 33.7202 145.582 36.2967C146.144 37.3779 146.826 37.8136 147.993 37.6773C148.911 37.5697 148.987 37.5177 148.503 36.675C146.977 34.0107 145.438 31.3535 143.904 28.6928C143.182 27.4377 143.189 27.4556 144.483 26.95C147.129 25.9119 148.941 24.0741 149.323 21.1247C149.749 17.8418 148.652 15.1846 145.832 13.3863C144.341 12.4342 142.676 12.0362 140.955 11.9967C138.031 11.9286 135.108 11.9591 132.183 11.9591C130.984 11.9591 130.914 12.0362 130.913 13.2948C130.907 17.121 130.911 20.9472 130.909 24.7734C130.909 26.0822 130.909 27.3911 130.909 28.6999C130.909 31.3177 130.923 33.9354 130.906 36.5531C130.9 37.2882 131.118 37.6719 131.913 37.6791V37.6827ZM133.023 24.4757C133.058 22.932 133.033 21.3882 133.033 19.8445H133.037C133.037 18.2667 133.028 16.6907 133.042 15.1129C133.045 14.6431 133.047 14.0801 133.706 14.0945C136.75 14.159 139.824 13.7036 142.828 14.5176C145.929 15.3567 147.629 18.2093 146.914 21.2896C146.558 22.828 145.631 23.9127 144.29 24.6389C143.084 25.2897 141.803 25.6878 140.425 25.6913C138.356 25.6967 136.286 25.6519 134.218 25.7111C133.289 25.738 133.003 25.3632 133.023 24.4775V24.4757Z" fill="#7C7E88"/>
<path d="M220.178 37.6647C225.139 37.6539 230.103 37.6575 235.064 37.6629C235.614 37.6629 235.907 37.4513 235.94 36.8417C236 35.7731 235.835 35.5597 234.733 35.5597C230.756 35.5543 226.78 35.5292 222.803 35.5759C221.795 35.5884 221.492 35.228 221.517 34.2311C221.573 31.9164 221.531 29.5981 221.534 27.2816C221.536 25.763 221.541 25.7576 222.999 25.7558C226.252 25.7522 229.507 25.7612 232.759 25.7487C233.671 25.7451 233.932 25.3829 233.786 24.4954C233.66 23.7208 233.082 23.8087 232.57 23.8069C229.284 23.7961 225.998 23.8015 222.712 23.7961C222.093 23.7961 221.522 23.7764 221.531 22.8656C221.555 20.2478 221.55 17.6283 221.533 15.0088C221.527 14.3096 221.832 14.0334 222.488 14.0675C222.815 14.0854 223.145 14.0675 223.473 14.0675C227.251 14.0675 231.031 14.0496 234.81 14.0819C235.67 14.089 235.972 13.7806 235.953 12.9057C235.933 12.0253 235.448 11.9536 234.789 11.9536C230.057 11.9626 225.325 11.9572 220.591 11.9608C219.352 11.9608 219.309 12.0092 219.307 13.2679C219.303 17.0958 219.307 20.922 219.307 24.75C219.307 28.6783 219.312 32.6067 219.302 36.5351C219.302 37.1734 219.372 37.6665 220.176 37.6647H220.178Z" fill="#7C7E88"/>
<path d="M111.75 37.7131C113.935 37.2792 115.84 36.2859 117.416 34.6597C117.593 34.4768 117.758 34.1541 118.043 34.2599C118.387 34.3872 118.28 34.7727 118.292 35.0595C118.312 35.5616 118.324 36.0672 118.296 36.5692C118.255 37.3205 118.527 37.6701 119.314 37.6755C120.122 37.6808 120.439 37.3671 120.427 36.5477C120.399 34.735 120.418 32.9223 120.418 31.1096C120.418 29.331 120.399 27.5506 120.427 25.772C120.439 24.9562 120.127 24.6317 119.319 24.6406C116.822 24.6693 114.324 24.6604 111.827 24.646C111.128 24.6424 110.609 24.7124 110.625 25.6537C110.641 26.5555 111.161 26.586 111.803 26.5842C113.609 26.577 115.418 26.5788 117.225 26.5914C117.646 26.595 118.199 26.5519 118.231 27.1418C118.331 28.9706 118.559 30.7941 117.216 32.3952C114.013 36.216 107.183 36.9081 102.978 33.7596C98.2937 30.249 97.3105 22.9122 100.865 17.978C104.89 12.3893 113.606 12.4754 117.118 18.2021C117.721 19.1847 118.39 19.3765 119.372 19.3442C120.124 19.3191 120.332 19.104 119.983 18.3886C119.393 17.1783 118.692 16.0559 117.747 15.0949C114.191 11.4785 108.219 10.4924 103.462 12.8842C99.3768 14.9389 97.123 18.4047 96.5727 23.0055C95.4178 32.648 102.7 39.5115 111.752 37.7131H111.75Z" fill="#7C7E88"/>
<path d="M197.822 36.4867C198.239 37.6145 198.93 37.6647 199.873 37.6862C200.842 37.7095 201.418 37.4747 201.792 36.4437C203.472 31.8197 205.241 27.2297 206.979 22.6272C208.187 19.4339 209.385 16.2388 210.614 13.0527C210.912 12.28 210.791 11.9823 209.913 11.9321C208.923 11.8748 208.458 12.271 208.115 13.1998C205.574 20.074 202.985 26.932 200.409 33.7937C200.27 34.1631 200.2 34.5736 199.825 34.9C199.452 34.6382 199.392 34.2527 199.266 33.9174C196.891 27.6241 194.524 21.3273 192.152 15.0322C191.846 14.2182 191.551 13.397 191.215 12.5973C190.975 12.0236 189.729 11.6417 189.05 12.0003C188.323 12.384 188.968 12.8986 189.107 13.2697C192 21.0135 194.95 28.7358 197.819 36.4885L197.822 36.4867Z" fill="#7C7E88"/>
<path d="M169.96 37.9713C178.204 37.9821 182.888 31.0953 182.766 24.8594C182.783 17.4975 177.091 11.5986 169.967 11.5933C162.976 11.5879 157.219 17.51 157.173 24.698C157.133 31.1724 161.819 37.9623 169.958 37.9731L169.96 37.9713ZM169.944 13.8685C175.734 13.8596 180.44 18.7526 180.452 24.7912C180.463 30.8174 175.754 35.7462 169.977 35.7516C164.285 35.757 159.437 30.699 159.46 24.7787C159.483 18.8816 164.294 13.8775 169.944 13.8685Z" fill="#7C7E88"/>
<path d="M28.2174 5.33949C28.8308 4.99165 29.3583 5.006 29.9664 5.34666C30.9847 5.91682 32.038 6.42064 33.0772 6.95315C33.1263 6.89578 33.1754 6.83661 33.2245 6.77924C32.0047 4.68864 30.7674 2.60881 29.5756 0.502083C29.1392 -0.270683 28.9096 -0.0716645 28.5521 0.555872C27.483 2.43848 26.3702 4.29599 25.2888 6.17321C25.1767 6.36865 24.9033 6.56767 25.1556 6.92805C26.1809 6.40092 27.2184 5.90606 28.2174 5.33949Z" fill="#7C7E88"/>
<path d="M0.973695 24.6999C0.973695 28.6247 0.982458 32.5495 0.964932 36.4742C0.961427 37.2183 1.09462 37.6809 1.97792 37.6881C2.87523 37.6952 3.10657 37.2685 3.09605 36.4527C3.06977 34.5737 3.08379 32.6965 3.0908 30.8175C3.09605 29.2701 3.14863 29.2199 4.62429 29.2092C6.72562 29.1966 8.83747 29.3167 10.9265 29.1464C16.9676 28.6534 20.11 24.119 18.9848 18.4998C18.2347 14.7561 14.9241 12.1061 10.8652 11.995C7.97695 11.9161 5.08697 11.9896 2.19699 11.934C1.24359 11.9179 0.945654 12.2711 0.956169 13.2285C0.996478 17.0529 0.971942 20.8773 0.973695 24.7017V24.6999ZM4.22997 14.0622C6.58717 14.1662 8.95839 13.8596 11.3033 14.2451C14.8383 14.8242 17.1254 17.6015 16.9186 20.9831C16.7118 24.37 14.1442 26.8962 10.5953 27.0612C8.40108 27.1634 6.19985 27.0702 4.00213 27.106C3.1942 27.1186 3.0943 26.6345 3.0943 26.0087C3.0943 24.1656 3.0943 22.3224 3.0943 20.4792C3.0943 18.7365 3.11007 16.9937 3.08554 15.251C3.07327 14.419 3.35368 14.0246 4.23172 14.064L4.22997 14.0622Z" fill="#7C7E88"/>
<path d="M41.4107 36.6965C41.4107 37.3779 41.6736 37.6576 42.3448 37.6701C43.4822 37.6916 43.64 37.5715 43.6417 36.3666C43.647 29.7542 43.6452 23.1418 43.6575 16.5293C43.6575 16.1672 43.519 15.744 43.8538 15.4267C44.2481 15.6364 44.3796 16.0004 44.5723 16.3034C48.7399 22.8621 52.9426 29.3992 57.0296 36.0098C57.8498 37.3366 58.7524 37.8512 60.221 37.6809C60.9273 37.6002 61.2042 37.3671 61.2024 36.6392C61.1884 28.7501 61.1884 20.8629 61.2024 12.9739C61.2024 12.2477 60.9413 11.9447 60.2193 11.9465C59.1186 11.9483 58.9662 12.0613 58.9662 13.1926C58.9662 19.8051 58.9732 26.4175 58.9662 33.0317C58.9662 33.4172 59.0748 33.8296 58.7313 34.3496C58.4579 33.9533 58.2424 33.6629 58.0496 33.3581C53.8907 26.7922 49.6863 20.2569 45.6169 13.6337C44.7669 12.2495 43.8257 11.769 42.3378 11.9376C41.6736 12.0129 41.4125 12.2531 41.4125 12.9291C41.423 20.8504 41.423 28.7735 41.4125 36.6948L41.4107 36.6965Z" fill="#7C7E88"/>
<path d="M72.3681 24.8074C72.3681 28.7 72.3856 32.5943 72.3558 36.4868C72.3488 37.3474 72.6239 37.7239 73.4915 37.6737C74.3099 37.6271 75.1336 37.6648 75.9556 37.6648C79.9304 37.6648 83.9052 37.6522 87.88 37.6719C88.6477 37.6755 89.0157 37.4586 89.0174 36.589C89.0192 35.6835 88.5863 35.5437 87.8485 35.5473C83.8088 35.5652 79.7674 35.5365 75.7277 35.5652C74.883 35.5706 74.564 35.3034 74.5798 34.4087C74.6254 31.9596 74.6341 29.5086 74.5728 27.0594C74.5465 26.0464 74.8637 25.7147 75.8592 25.7308C79.1768 25.781 82.4944 25.7541 85.812 25.7434C86.7251 25.7398 86.9634 25.4009 86.8267 24.4865C86.7076 23.6976 86.1222 23.807 85.6157 23.8052C82.3629 23.7944 79.1102 23.7747 75.8592 23.8088C74.89 23.8195 74.5395 23.4842 74.5675 22.4623C74.6341 20.0812 74.6254 17.6966 74.571 15.3137C74.55 14.3419 74.8812 14.0371 75.8189 14.0461C79.7937 14.0855 83.7685 14.0551 87.7433 14.0676C88.4671 14.0694 89.0192 14.0461 89.0192 13.0331C89.0192 12.0667 88.5495 11.943 87.7836 11.9465C83.0535 11.9627 78.3233 11.9716 73.5913 11.9358C72.6397 11.9286 72.3383 12.2675 72.3488 13.2267C72.3891 17.0852 72.3663 20.9454 72.3663 24.8056L72.3681 24.8074Z" fill="#7C7E88"/>
</g>
<defs>
<clipPath id="clip0_45_1112">
<rect width="235" height="38" fill="white" transform="translate(0.956177)"/>
</clipPath>
</defs>
</svg>
