<svg width="1080" height="576" viewBox="0 0 1080 576" fill="none" xmlns="http://www.w3.org/2000/svg">
<rect x="0.25" y="0.25" width="1079.5" height="575.5" rx="11.75" fill="#15161A"/>
<rect x="0.25" y="0.25" width="1079.5" height="575.5" rx="11.75" stroke="#323339" stroke-width="0.5"/>
<circle cx="40" cy="40" r="8" fill="#27282D"/>
<circle cx="68" cy="40" r="8" fill="#27282D"/>
<circle cx="96" cy="40" r="8" fill="#27282D"/>
<path d="M32 72C32 67.5817 35.5817 64 40 64H1044C1048.42 64 1052 67.5817 1052 72V536C1052 540.418 1048.42 544 1044 544H40C35.5817 544 32 540.418 32 536V72Z" fill="black" fill-opacity="0.2"/>
<path d="M128 293L350 293" stroke="url(#paint0_linear_50_1806)" stroke-width="1.5"/>
<path d="M193 383V383C193 333.294 233.294 293 283 293H350" stroke="url(#paint1_linear_50_1806)" stroke-width="1.5"/>
<path d="M113 447V421.812C113 382.565 144.815 350.75 184.062 350.75V350.75C201.272 350.75 217.898 344.504 230.851 333.172L243.765 321.875C265.043 303.26 292.354 293 320.626 293H350" stroke="url(#paint2_linear_50_1806)" stroke-width="1.5"/>
<path d="M99 223H149.862C172.057 223 192.91 233.626 205.955 251.584V251.584C214.495 263.341 226.515 272.118 240.315 276.673L268.399 285.944C282.558 290.618 297.374 293 312.285 293H350" stroke="url(#paint3_linear_50_1806)" stroke-width="1.5"/>
<path d="M148 161V161C148 233.902 207.098 293 280 293H350" stroke="url(#paint4_linear_50_1806)" stroke-width="1.5"/>
<rect x="123.5" y="123.5" width="49" height="49" rx="24.5" fill="#111215"/>
<rect x="123.5" y="123.5" width="49" height="49" rx="24.5" stroke="#323339"/>
<path d="M144.993 139.446C147.018 139.446 149.048 139.446 151.074 139.446C152.228 139.446 153.361 139.592 154.456 139.97C157.248 140.931 159.021 142.867 159.754 145.781C159.926 146.472 160.015 147.18 159.998 147.893C159.952 150.219 159.143 152.236 157.551 153.91C156.304 155.219 154.767 155.983 153.024 156.339C151.962 156.553 150.893 156.592 149.819 156.519C149.044 156.463 148.269 156.39 147.498 156.287C146.226 156.116 144.988 155.789 143.775 155.377C141.906 154.742 140.107 153.953 138.423 152.901C137.812 152.519 137.227 152.103 136.692 151.614C136.599 151.528 136.506 151.429 136.448 151.322C136.325 151.103 136.435 150.88 136.675 150.832C136.747 150.82 136.818 150.811 136.89 150.811C138.372 150.811 139.85 150.811 141.333 150.811C141.413 150.811 141.497 150.807 141.569 150.781C141.834 150.695 141.91 150.412 141.716 150.206C141.644 150.129 141.552 150.068 141.459 150.021C140.04 149.317 138.654 148.558 137.294 147.742C135.9 146.905 134.536 146.026 133.289 144.97C132.935 144.669 132.598 144.348 132.266 144.021C132.16 143.918 132.072 143.777 132.03 143.635C131.95 143.382 132.122 143.163 132.388 143.146C132.459 143.146 132.531 143.146 132.602 143.146C135.849 143.146 139.092 143.146 142.339 143.146C142.445 143.146 142.554 143.133 142.651 143.099C142.891 143.008 142.946 142.704 142.752 142.532C142.672 142.459 142.571 142.403 142.47 142.365C141.438 141.936 140.419 141.472 139.446 140.914C139.046 140.682 138.667 140.416 138.279 140.163C138.225 140.124 138.174 140.077 138.132 140.026C138.039 139.918 138.031 139.79 138.077 139.661C138.124 139.528 138.233 139.472 138.364 139.459C138.427 139.451 138.49 139.455 138.553 139.455C140.701 139.455 142.853 139.455 145.001 139.455L144.993 139.446ZM151.676 153.721C154.864 153.721 157.399 151.137 157.399 147.88C157.399 144.704 154.919 142.193 151.798 142.129C148.61 142.064 145.927 144.648 145.923 147.884C145.923 151.086 148.517 153.717 151.676 153.717V153.721Z" fill="#98A2B3"/>
<path d="M155.209 148.502C155.075 148.489 154.919 148.476 154.763 148.455C154.544 148.42 154.418 148.287 154.371 148.068C154.317 147.802 154.291 147.532 154.215 147.274C153.895 146.167 153.201 145.459 152.08 145.219C151.929 145.184 151.769 145.176 151.617 145.154C151.356 145.116 151.213 145 151.187 144.738C151.162 144.459 151.162 144.171 151.196 143.892C151.225 143.618 151.377 143.51 151.651 143.51C152.729 143.51 153.697 143.832 154.536 144.532C155.42 145.27 155.951 146.219 156.111 147.373C156.136 147.558 156.14 147.751 156.14 147.94C156.14 148.262 155.988 148.425 155.677 148.459C155.529 148.476 155.382 148.48 155.214 148.493L155.209 148.502Z" fill="#98A2B3"/>
<rect x="89.5" y="268.5" width="49" height="49" rx="24.5" fill="#111215"/>
<rect x="89.5" y="268.5" width="49" height="49" rx="24.5" stroke="#323339"/>
<path fill-rule="evenodd" clip-rule="evenodd" d="M114 279C106.265 279 100 285.423 100 293.352C100 299.696 104.014 305.07 109.574 306.973C110.27 307.105 110.528 306.665 110.528 306.277C110.528 305.933 110.519 305.035 110.511 303.837C106.618 304.7 105.793 301.916 105.793 301.916C105.157 300.26 104.237 299.81 104.237 299.81C102.965 298.92 104.331 298.938 104.331 298.938C105.732 299.044 106.48 300.418 106.48 300.418C107.726 302.612 109.754 301.978 110.554 301.608C110.683 300.682 111.044 300.048 111.439 299.687C108.336 299.334 105.071 298.101 105.071 292.603C105.071 291.035 105.612 289.758 106.514 288.753C106.368 288.383 105.887 286.929 106.643 284.956C106.643 284.956 107.821 284.568 110.494 286.427C111.611 286.11 112.805 285.951 114 285.943C115.186 285.951 116.389 286.11 117.506 286.427C120.179 284.568 121.357 284.956 121.357 284.956C122.122 286.929 121.64 288.392 121.494 288.753C122.388 289.758 122.929 291.035 122.929 292.603C122.929 298.119 119.655 299.326 116.535 299.687C117.034 300.127 117.489 301.008 117.489 302.348C117.489 304.268 117.472 305.81 117.472 306.286C117.472 306.674 117.721 307.114 118.435 306.973C123.995 305.07 128 299.696 128 293.361C128 285.423 121.735 279 114 279Z" fill="#98A2B3"/>
<rect x="86.5" y="422.5" width="49" height="49" rx="24.5" fill="#111215"/>
<rect x="86.5" y="422.5" width="49" height="49" rx="24.5" stroke="#323339"/>
<g clip-path="url(#clip0_50_1806)">
<path fill-rule="evenodd" clip-rule="evenodd" d="M106.303 434.702C107.12 433.791 108.469 433.763 109.316 434.641C109.75 435.09 109.965 435.69 109.965 436.291H109.969V452.758H109.965C109.965 453.33 109.771 453.903 109.373 454.347C108.557 455.259 107.208 455.286 106.36 454.408C105.926 453.958 105.711 453.359 105.711 452.758H105.707V436.291H105.711C105.711 435.719 105.905 435.146 106.303 434.702ZM98.5962 437.057C99.4125 436.145 100.761 436.117 101.609 436.995C102.044 437.445 102.258 438.045 102.258 438.646H102.262V444.531H102.258C102.259 445.104 102.064 445.676 101.666 446.121C100.85 447.032 99.5007 447.06 98.6529 446.182C98.2186 445.732 98.0039 445.132 98.0039 444.531H98V438.646H98.0039C98.0039 438.073 98.1978 437.501 98.5962 437.057ZM113.898 457.072C113.081 457.921 113.106 459.272 113.954 460.09C114.802 460.908 116.151 460.883 116.968 460.034C117.784 459.184 117.758 457.833 116.911 457.015C116.063 456.197 114.714 456.223 113.898 457.072ZM113.898 454.408C114.746 455.286 116.095 455.259 116.911 454.347C117.309 453.903 117.504 453.33 117.504 452.758H117.507V436.291H117.504C117.504 435.69 117.289 435.09 116.854 434.641C116.007 433.763 114.658 433.791 113.841 434.702C113.443 435.146 113.249 435.719 113.249 436.291H113.245V452.758H113.249C113.249 453.359 113.464 453.958 113.898 454.408ZM125 450.41H124.997C124.997 450.982 124.802 451.554 124.404 451.999C123.587 452.911 122.239 452.938 121.391 452.06C120.957 451.611 120.742 451.01 120.742 450.41H120.738V444.524H120.742C120.742 443.952 120.936 443.38 121.334 442.935C122.15 442.023 123.5 441.996 124.347 442.874C124.781 443.324 124.997 443.923 124.997 444.524H125V450.41Z" fill="#98A2B3"/>
</g>
<rect x="168.5" y="378.5" width="49" height="49" rx="24.5" fill="#111215"/>
<rect x="168.5" y="378.5" width="49" height="49" rx="24.5" stroke="#323339"/>
<g clip-path="url(#clip1_50_1806)">
<path d="M178 403.253C178.012 403.067 178.025 402.88 178.036 402.692C178.122 401.155 178.447 399.666 178.999 398.229C179.622 396.611 180.499 395.141 181.636 393.825C182.834 392.439 184.241 391.307 185.855 390.43C185.951 390.378 186.06 390.34 186.167 390.318C186.318 390.287 186.397 390.355 186.373 390.504C186.352 390.633 186.309 390.76 186.257 390.881C185.962 391.576 185.737 392.291 185.6 393.033C185.452 393.835 185.417 394.642 185.508 395.454C185.67 396.898 186.216 398.196 187.015 399.399C187.78 400.55 188.722 401.546 189.754 402.463C190.429 403.062 191.143 403.611 191.866 404.152C192.339 404.506 192.785 404.897 193.243 405.271C193.641 405.596 194.043 405.918 194.437 406.247C195.458 407.101 196.144 408.169 196.444 409.46C196.878 411.336 196.532 413.066 195.356 414.608C194.672 415.507 193.785 416.155 192.722 416.554C192.289 416.717 191.837 416.825 191.378 416.884C190.929 416.942 190.476 416.991 190.024 416.999C188.737 417.024 187.492 416.783 186.29 416.33C185.203 415.921 184.203 415.356 183.267 414.673C182.521 414.128 181.842 413.511 181.236 412.815C180.511 411.983 179.955 411.044 179.479 410.058C178.914 408.888 178.513 407.664 178.269 406.391C178.127 405.648 178.041 404.898 178.018 404.141C178.016 404.061 178.005 403.982 178 403.903C178 403.687 178 403.471 178 403.255V403.253Z" fill="#98A2B3"/>
<path d="M195.703 389C195.866 389.014 196.03 389.028 196.194 389.039C197.015 389.097 197.811 389.27 198.591 389.532C200.499 390.171 202.103 391.281 203.51 392.68C205.512 394.671 206.868 397.033 207.558 399.764C207.732 400.45 207.847 401.148 207.922 401.853C207.996 402.564 208.018 403.276 207.986 403.988C207.882 406.398 207.239 408.659 206.046 410.763C204.932 412.729 203.433 414.349 201.58 415.649C201.408 415.769 201.234 415.891 201.051 415.993C200.961 416.043 200.847 416.067 200.742 416.073C200.58 416.08 200.49 415.967 200.533 415.811C200.575 415.657 200.629 415.506 200.697 415.362C201.076 414.566 201.307 413.727 201.456 412.861C201.581 412.126 201.643 411.387 201.618 410.642C201.604 410.249 201.56 409.856 201.53 409.463C201.498 409.047 201.422 408.639 201.31 408.238C201.112 407.524 200.803 406.858 200.412 406.227C199.805 405.243 199.043 404.388 198.218 403.585C197.17 402.566 196.027 401.658 194.871 400.767C193.923 400.037 193.001 399.273 192.18 398.399C191.876 398.075 191.582 397.737 191.324 397.377C190.938 396.839 190.67 396.239 190.513 395.593C190.39 395.09 190.335 394.579 190.359 394.063C190.455 391.973 191.752 390.101 193.773 389.339C194.275 389.15 194.794 389.036 195.333 389.019C195.376 389.018 195.418 389.006 195.461 389C195.542 389 195.622 389 195.704 389H195.703Z" fill="#98A2B3"/>
</g>
<rect x="61.5" y="198.5" width="49" height="49" rx="24.5" fill="#111215"/>
<rect x="61.5" y="198.5" width="49" height="49" rx="24.5" stroke="#323339"/>
<g clip-path="url(#clip2_50_1806)">
<path d="M88.4705 229.187C87.4285 229.277 86.4499 229.33 85.4807 229.456C84.8135 229.543 84.155 229.711 83.5016 229.879C81.5648 230.377 79.8022 231.198 78.4845 232.778C78.1856 233.137 77.958 233.555 77.662 233.999C77.3885 233.415 77.0567 232.866 76.8715 232.272C76.6053 231.418 76.434 230.533 76.2429 229.656C76.0919 228.963 76.283 228.628 76.905 228.307C77.5344 227.983 78.1243 227.562 78.7784 227.305C79.6156 226.977 80.495 226.752 81.365 226.516C82.0278 226.335 82.7068 226.215 83.3711 226.041C83.4557 226.019 83.5607 225.823 83.549 225.72C83.4177 224.594 83.4557 223.472 83.6409 222.36C83.7364 221.785 83.8968 221.219 84.0631 220.66C84.4481 219.366 85.0016 218.144 85.814 217.067C85.9897 216.835 85.9759 216.402 86.3988 216.377C86.5994 215.602 87.2608 215.184 87.7552 214.645C88.0068 214.371 88.3524 214.122 88.7017 214.014C90.1565 213.565 91.6252 213.161 93.096 212.768C93.7108 212.604 94.3423 212.505 95 212.444C94.6996 212.719 94.3977 212.992 94.1002 213.269C92.6942 214.583 91.4998 216.071 90.5423 217.742C90.1208 218.478 89.8036 219.274 89.3937 220.018C89.094 220.563 88.9861 221.162 88.8126 221.74C88.6339 222.333 88.5347 222.95 88.4005 223.556C88.1708 224.59 88.1344 225.641 88.192 226.692C88.2299 227.384 88.3451 228.072 88.4261 228.761C88.4428 228.902 88.4567 229.044 88.4727 229.187L88.4705 229.187Z" fill="#98A2B3"/>
<path d="M73.9672 222.055C75.1828 218.924 77.2414 216.44 79.9745 214.513C83.434 212.075 87.6015 211.108 90.1728 211C89.9934 211.151 89.8803 211.267 89.7476 211.354C88.54 212.143 87.4425 213.069 86.4019 214.066C85.4219 215.005 84.5942 216.067 83.8992 217.238C83.3567 218.152 82.9768 219.129 82.6771 220.149C82.3154 221.379 82.2402 222.641 82.1484 223.905C82.1389 224.038 82.1506 224.174 82.1454 224.309C82.136 224.555 82.206 224.95 82.0908 225.017C81.8151 225.176 81.4512 225.176 81.1245 225.25C80.9218 225.295 80.7235 225.356 80.5229 225.409C78.9806 225.818 77.4944 226.37 76.1753 227.293C75.6502 227.66 75.1573 228.08 74.6877 228.517C74.3391 228.842 74.0525 229.234 73.7389 229.597C73.6631 229.684 73.5894 229.774 73.4392 229.953C73.3466 229.541 73.273 229.231 73.2073 228.919C72.8121 227.032 73.0221 225.18 73.5355 223.348C73.6106 223.078 73.6842 222.807 73.7856 222.548C73.817 222.467 73.9387 222.421 74.0204 222.361C74.0715 222.324 74.1247 222.288 74.1765 222.252C74.1189 222.197 74.0613 222.142 73.9686 222.055H73.9672Z" fill="#98A2B3"/>
</g>
<path d="M523 288L557.313 287.881L668 287.497" stroke="url(#paint5_linear_50_1806)" stroke-width="1.5"/>
<path d="M523 288H534.769C564.95 288 594.324 278.246 618.511 260.193L667 224" stroke="url(#paint6_linear_50_1806)" stroke-width="1.5"/>
<path d="M523 288H565.281C576.007 288 586.697 286.767 597.141 284.326L667 268" stroke="url(#paint7_linear_50_1806)" stroke-width="1.5"/>
<path d="M523 288H540.487C550.841 288 561.164 289.149 571.265 291.425L667 313" stroke="url(#paint8_linear_50_1806)" stroke-width="1.5"/>
<path d="M523 288H535.75C565.923 288 595.289 297.748 619.472 315.792L668 352" stroke="url(#paint9_linear_50_1806)" stroke-width="1.5"/>
<path d="M303.537 356V343.4H306.831C307.719 343.4 308.529 343.556 309.261 343.868C310.005 344.168 310.647 344.594 311.187 345.146C311.727 345.686 312.147 346.346 312.447 347.126C312.747 347.894 312.896 348.752 312.896 349.7C312.896 350.636 312.747 351.494 312.447 352.274C312.147 353.054 311.727 353.72 311.187 354.272C310.647 354.812 310.005 355.238 309.261 355.55C308.529 355.85 307.719 356 306.831 356H303.537ZM304.761 354.938H306.812C307.521 354.938 308.169 354.818 308.757 354.578C309.357 354.326 309.873 353.966 310.305 353.498C310.737 353.03 311.073 352.478 311.312 351.842C311.553 351.194 311.673 350.48 311.673 349.7C311.673 348.656 311.463 347.744 311.043 346.964C310.635 346.172 310.065 345.56 309.333 345.128C308.613 344.684 307.773 344.462 306.812 344.462H304.761V354.938ZM318.007 356.144C317.383 356.144 316.837 356.036 316.369 355.82C315.901 355.604 315.535 355.304 315.271 354.92C315.019 354.536 314.893 354.098 314.893 353.606C314.893 352.682 315.235 351.986 315.919 351.518C316.615 351.05 317.719 350.738 319.231 350.582L321.643 350.33V351.248L319.285 351.5C318.529 351.584 317.911 351.704 317.431 351.86C316.951 352.016 316.597 352.232 316.369 352.508C316.153 352.784 316.045 353.138 316.045 353.57C316.045 354.062 316.231 354.458 316.603 354.758C316.987 355.046 317.503 355.19 318.151 355.19C318.799 355.19 319.357 355.046 319.825 354.758C320.305 354.47 320.677 354.062 320.941 353.534C321.205 353.006 321.337 352.376 321.337 351.644V350.024C321.337 349.568 321.223 349.178 320.995 348.854C320.779 348.518 320.479 348.26 320.095 348.08C319.723 347.888 319.291 347.792 318.799 347.792C318.295 347.792 317.857 347.882 317.485 348.062C317.113 348.23 316.813 348.476 316.585 348.8C316.357 349.124 316.201 349.514 316.117 349.97L314.983 349.808C315.091 349.196 315.319 348.668 315.667 348.224C316.027 347.768 316.477 347.414 317.017 347.162C317.557 346.91 318.151 346.784 318.799 346.784C319.507 346.784 320.137 346.922 320.689 347.198C321.253 347.462 321.691 347.84 322.003 348.332C322.315 348.812 322.471 349.388 322.471 350.06V356H321.337V354.128C321.205 354.5 320.977 354.842 320.653 355.154C320.341 355.454 319.957 355.694 319.501 355.874C319.045 356.054 318.547 356.144 318.007 356.144ZM330.091 356.144C329.455 356.144 328.903 356.036 328.435 355.82C327.967 355.604 327.601 355.274 327.337 354.83C327.073 354.374 326.941 353.804 326.941 353.12V344.57H328.093V353.012C328.093 353.756 328.273 354.296 328.633 354.632C329.005 354.956 329.521 355.118 330.181 355.118C330.445 355.118 330.691 355.1 330.919 355.064C331.147 355.028 331.339 354.986 331.495 354.938L331.585 355.928C331.405 355.988 331.177 356.036 330.901 356.072C330.637 356.12 330.367 356.144 330.091 356.144ZM324.835 347.882V346.928H331.513V347.882H324.835ZM336.991 356.144C336.367 356.144 335.821 356.036 335.353 355.82C334.885 355.604 334.519 355.304 334.255 354.92C334.003 354.536 333.877 354.098 333.877 353.606C333.877 352.682 334.219 351.986 334.903 351.518C335.599 351.05 336.703 350.738 338.215 350.582L340.627 350.33V351.248L338.269 351.5C337.513 351.584 336.895 351.704 336.415 351.86C335.935 352.016 335.581 352.232 335.353 352.508C335.137 352.784 335.029 353.138 335.029 353.57C335.029 354.062 335.215 354.458 335.587 354.758C335.971 355.046 336.487 355.19 337.135 355.19C337.783 355.19 338.341 355.046 338.809 354.758C339.289 354.47 339.661 354.062 339.925 353.534C340.189 353.006 340.321 352.376 340.321 351.644V350.024C340.321 349.568 340.207 349.178 339.979 348.854C339.763 348.518 339.463 348.26 339.079 348.08C338.707 347.888 338.275 347.792 337.783 347.792C337.279 347.792 336.841 347.882 336.469 348.062C336.097 348.23 335.797 348.476 335.569 348.8C335.341 349.124 335.185 349.514 335.101 349.97L333.967 349.808C334.075 349.196 334.303 348.668 334.651 348.224C335.011 347.768 335.461 347.414 336.001 347.162C336.541 346.91 337.135 346.784 337.783 346.784C338.491 346.784 339.121 346.922 339.673 347.198C340.237 347.462 340.675 347.84 340.987 348.332C341.299 348.812 341.455 349.388 341.455 350.06V356H340.321V354.128C340.189 354.5 339.961 354.842 339.637 355.154C339.325 355.454 338.941 355.694 338.485 355.874C338.029 356.054 337.531 356.144 336.991 356.144ZM352.551 356V343.4H360.615V344.462H353.757V348.818H359.445V349.88H353.757V354.938H360.633V356H352.551ZM362.903 356V346.928H364.037V348.962C364.217 348.554 364.469 348.182 364.793 347.846C365.129 347.51 365.525 347.252 365.981 347.072C366.437 346.88 366.941 346.784 367.493 346.784C368.117 346.784 368.675 346.91 369.167 347.162C369.659 347.414 370.043 347.78 370.319 348.26C370.607 348.74 370.751 349.328 370.751 350.024V356H369.617V350.258C369.617 349.718 369.521 349.268 369.329 348.908C369.137 348.536 368.867 348.26 368.519 348.08C368.183 347.9 367.775 347.81 367.295 347.81C366.635 347.81 366.059 347.99 365.567 348.35C365.087 348.698 364.709 349.196 364.433 349.844C364.169 350.492 364.037 351.254 364.037 352.13V356H362.903ZM374.078 356V346.928H375.212V349.052C375.392 348.584 375.644 348.182 375.968 347.846C376.304 347.51 376.7 347.252 377.156 347.072C377.624 346.88 378.134 346.784 378.686 346.784C378.95 346.784 379.226 346.808 379.514 346.856C379.802 346.904 380.06 346.97 380.288 347.054L380.198 348.134C379.91 348.038 379.64 347.972 379.388 347.936C379.136 347.888 378.878 347.864 378.614 347.864C378.086 347.864 377.606 347.972 377.174 348.188C376.754 348.392 376.394 348.692 376.094 349.088C375.806 349.472 375.584 349.94 375.428 350.492C375.284 351.044 375.212 351.668 375.212 352.364V356H374.078ZM384.43 356V346.928H385.582V356H384.43ZM382.36 356V355.046H387.634V356H382.36ZM382.828 347.882V346.928H385.582V347.882H382.828ZM385.006 345.146C384.742 345.146 384.52 345.062 384.34 344.894C384.172 344.714 384.088 344.498 384.088 344.246C384.088 344.078 384.13 343.928 384.214 343.796C384.298 343.664 384.406 343.562 384.538 343.49C384.67 343.406 384.826 343.364 385.006 343.364C385.27 343.364 385.486 343.448 385.654 343.616C385.834 343.784 385.924 343.994 385.924 344.246C385.924 344.414 385.882 344.564 385.798 344.696C385.714 344.828 385.606 344.936 385.474 345.02C385.342 345.104 385.186 345.146 385.006 345.146ZM394.444 356.144C393.604 356.144 392.848 355.94 392.176 355.532C391.516 355.124 390.994 354.566 390.61 353.858C390.226 353.15 390.034 352.352 390.034 351.464C390.034 350.564 390.226 349.766 390.61 349.07C390.994 348.362 391.516 347.804 392.176 347.396C392.848 346.988 393.604 346.784 394.444 346.784C395.128 346.784 395.746 346.904 396.298 347.144C396.85 347.384 397.312 347.72 397.684 348.152C398.056 348.584 398.296 349.094 398.404 349.682L397.27 349.88C397.186 349.46 397.018 349.094 396.766 348.782C396.514 348.458 396.19 348.212 395.794 348.044C395.398 347.876 394.948 347.792 394.444 347.792C393.832 347.792 393.28 347.948 392.788 348.26C392.296 348.572 391.906 349.004 391.618 349.556C391.342 350.108 391.204 350.744 391.204 351.464C391.204 352.172 391.342 352.802 391.618 353.354C391.906 353.906 392.296 354.344 392.788 354.668C393.28 354.98 393.832 355.136 394.444 355.136C394.984 355.136 395.458 355.046 395.866 354.866C396.274 354.686 396.604 354.434 396.856 354.11C397.12 353.786 397.288 353.414 397.36 352.994L398.512 353.138C398.416 353.714 398.188 354.23 397.828 354.686C397.468 355.142 396.994 355.502 396.406 355.766C395.83 356.018 395.176 356.144 394.444 356.144ZM400.836 356V343.256H401.97V348.962C402.15 348.554 402.402 348.182 402.726 347.846C403.062 347.51 403.458 347.252 403.914 347.072C404.37 346.88 404.874 346.784 405.426 346.784C406.05 346.784 406.608 346.91 407.1 347.162C407.604 347.414 407.994 347.78 408.27 348.26C408.558 348.74 408.702 349.328 408.702 350.024V356H407.55V350.258C407.55 349.718 407.454 349.268 407.262 348.908C407.07 348.536 406.8 348.26 406.452 348.08C406.116 347.9 405.708 347.81 405.228 347.81C404.568 347.81 403.992 347.99 403.5 348.35C403.02 348.698 402.642 349.196 402.366 349.844C402.102 350.492 401.97 351.254 401.97 352.13V356H400.836ZM415.431 356.144C414.567 356.144 413.805 355.946 413.145 355.55C412.485 355.142 411.963 354.59 411.579 353.894C411.207 353.186 411.021 352.376 411.021 351.464C411.021 350.78 411.129 350.156 411.345 349.592C411.561 349.016 411.861 348.518 412.245 348.098C412.629 347.678 413.091 347.354 413.631 347.126C414.171 346.898 414.759 346.784 415.395 346.784C416.067 346.784 416.667 346.904 417.195 347.144C417.723 347.372 418.167 347.702 418.527 348.134C418.899 348.566 419.163 349.064 419.319 349.628C419.487 350.192 419.529 350.804 419.445 351.464H411.669V350.528H418.311C418.311 349.964 418.185 349.478 417.933 349.07C417.681 348.662 417.339 348.35 416.907 348.134C416.475 347.906 415.971 347.792 415.395 347.792C414.927 347.792 414.495 347.876 414.099 348.044C413.703 348.212 413.361 348.458 413.073 348.782C412.785 349.094 412.563 349.472 412.407 349.916C412.263 350.36 412.191 350.864 412.191 351.428C412.191 352.16 412.323 352.808 412.587 353.372C412.863 353.924 413.241 354.356 413.721 354.668C414.213 354.98 414.783 355.136 415.431 355.136C415.935 355.136 416.391 355.046 416.799 354.866C417.219 354.686 417.561 354.446 417.825 354.146C418.101 353.834 418.275 353.486 418.347 353.102L419.409 353.354C419.289 353.906 419.037 354.392 418.653 354.812C418.281 355.232 417.819 355.562 417.267 355.802C416.715 356.03 416.103 356.144 415.431 356.144ZM425.585 356.144C424.697 356.144 423.917 355.946 423.245 355.55C422.573 355.154 422.045 354.608 421.661 353.912C421.289 353.204 421.103 352.388 421.103 351.464C421.103 350.768 421.211 350.132 421.427 349.556C421.643 348.98 421.949 348.488 422.345 348.08C422.741 347.66 423.209 347.342 423.749 347.126C424.301 346.898 424.913 346.784 425.585 346.784C426.077 346.784 426.545 346.868 426.989 347.036C427.445 347.204 427.847 347.438 428.195 347.738C428.543 348.026 428.807 348.368 428.987 348.764V343.256H430.139V356H428.987V354.164C428.807 354.548 428.543 354.89 428.195 355.19C427.847 355.49 427.445 355.724 426.989 355.892C426.545 356.06 426.077 356.144 425.585 356.144ZM425.639 355.136C426.119 355.136 426.563 355.046 426.971 354.866C427.391 354.686 427.751 354.434 428.051 354.11C428.351 353.774 428.579 353.384 428.735 352.94C428.903 352.496 428.987 352.004 428.987 351.464C428.987 350.744 428.843 350.108 428.555 349.556C428.267 349.004 427.871 348.572 427.367 348.26C426.863 347.948 426.287 347.792 425.639 347.792C425.159 347.792 424.709 347.882 424.289 348.062C423.881 348.242 423.527 348.494 423.227 348.818C422.927 349.142 422.693 349.532 422.525 349.988C422.357 350.432 422.273 350.924 422.273 351.464C422.273 352.184 422.417 352.82 422.705 353.372C423.005 353.924 423.407 354.356 423.911 354.668C424.415 354.98 424.991 355.136 425.639 355.136ZM442.248 356L439.782 346.928H440.952L442.968 354.506L444.966 346.928H446.118L448.134 354.506L450.132 346.928H451.284L448.8 356H447.54L445.524 348.62L443.544 356H442.248ZM455.059 356V346.928H456.211V356H455.059ZM452.989 356V355.046H458.263V356H452.989ZM453.457 347.882V346.928H456.211V347.882H453.457ZM455.635 345.146C455.371 345.146 455.149 345.062 454.969 344.894C454.801 344.714 454.717 344.498 454.717 344.246C454.717 344.078 454.759 343.928 454.843 343.796C454.927 343.664 455.035 343.562 455.167 343.49C455.299 343.406 455.455 343.364 455.635 343.364C455.899 343.364 456.115 343.448 456.283 343.616C456.463 343.784 456.553 343.994 456.553 344.246C456.553 344.414 456.511 344.564 456.427 344.696C456.343 344.828 456.235 344.936 456.103 345.02C455.971 345.104 455.815 345.146 455.635 345.146ZM465.865 356.144C465.229 356.144 464.677 356.036 464.209 355.82C463.741 355.604 463.375 355.274 463.111 354.83C462.847 354.374 462.715 353.804 462.715 353.12V344.57H463.867V353.012C463.867 353.756 464.047 354.296 464.407 354.632C464.779 354.956 465.295 355.118 465.955 355.118C466.219 355.118 466.465 355.1 466.693 355.064C466.921 355.028 467.113 354.986 467.269 354.938L467.359 355.928C467.179 355.988 466.951 356.036 466.675 356.072C466.411 356.12 466.141 356.144 465.865 356.144ZM460.609 347.882V346.928H467.287V347.882H460.609ZM469.831 356V343.256H470.965V348.962C471.145 348.554 471.397 348.182 471.721 347.846C472.057 347.51 472.453 347.252 472.909 347.072C473.365 346.88 473.869 346.784 474.421 346.784C475.045 346.784 475.603 346.91 476.095 347.162C476.599 347.414 476.989 347.78 477.265 348.26C477.553 348.74 477.697 349.328 477.697 350.024V356H476.545V350.258C476.545 349.718 476.449 349.268 476.257 348.908C476.065 348.536 475.795 348.26 475.447 348.08C475.111 347.9 474.703 347.81 474.223 347.81C473.563 347.81 472.987 347.99 472.495 348.35C472.015 348.698 471.637 349.196 471.361 349.844C471.097 350.492 470.965 351.254 470.965 352.13V356H469.831ZM492.852 356.144C492 356.144 491.226 356 490.53 355.712C489.846 355.412 489.27 354.974 488.802 354.398C488.346 353.822 488.028 353.114 487.848 352.274L488.964 351.968C489.156 352.976 489.6 353.75 490.296 354.29C491.004 354.818 491.856 355.082 492.852 355.082C493.404 355.082 493.908 354.998 494.364 354.83C494.832 354.65 495.204 354.38 495.48 354.02C495.756 353.648 495.894 353.174 495.894 352.598C495.894 352.082 495.756 351.662 495.48 351.338C495.216 351.014 494.862 350.756 494.418 350.564C493.974 350.372 493.488 350.204 492.96 350.06C492.432 349.916 491.898 349.766 491.358 349.61C490.83 349.454 490.344 349.256 489.9 349.016C489.456 348.764 489.096 348.44 488.82 348.044C488.556 347.648 488.424 347.138 488.424 346.514C488.424 345.83 488.604 345.248 488.964 344.768C489.324 344.288 489.81 343.916 490.422 343.652C491.034 343.388 491.724 343.256 492.492 343.256C493.248 343.256 493.926 343.376 494.526 343.616C495.126 343.856 495.624 344.21 496.02 344.678C496.416 345.134 496.686 345.686 496.83 346.334L495.75 346.694C495.534 345.902 495.138 345.308 494.562 344.912C493.998 344.516 493.302 344.318 492.474 344.318C491.898 344.318 491.394 344.408 490.962 344.588C490.542 344.768 490.212 345.02 489.972 345.344C489.744 345.668 489.63 346.04 489.63 346.46C489.63 346.928 489.762 347.306 490.026 347.594C490.302 347.87 490.662 348.098 491.106 348.278C491.55 348.446 492.036 348.596 492.564 348.728C493.104 348.86 493.638 349.01 494.166 349.178C494.694 349.346 495.18 349.562 495.624 349.826C496.068 350.09 496.422 350.438 496.686 350.87C496.962 351.302 497.1 351.848 497.1 352.508C497.1 353.348 496.902 354.038 496.506 354.578C496.122 355.106 495.606 355.502 494.958 355.766C494.31 356.018 493.608 356.144 492.852 356.144ZM500.931 359.276L502.587 355.208L505.809 346.928H506.997L502.119 359.276H500.931ZM502.407 356.666L498.537 346.928H499.743L502.983 355.136L502.407 356.666ZM509.188 356V346.928H510.322V348.962C510.502 348.554 510.754 348.182 511.078 347.846C511.414 347.51 511.81 347.252 512.266 347.072C512.722 346.88 513.226 346.784 513.778 346.784C514.402 346.784 514.96 346.91 515.452 347.162C515.944 347.414 516.328 347.78 516.604 348.26C516.892 348.74 517.036 349.328 517.036 350.024V356H515.902V350.258C515.902 349.718 515.806 349.268 515.614 348.908C515.422 348.536 515.152 348.26 514.804 348.08C514.468 347.9 514.06 347.81 513.58 347.81C512.92 347.81 512.344 347.99 511.852 348.35C511.372 348.698 510.994 349.196 510.718 349.844C510.454 350.492 510.322 351.254 510.322 352.13V356H509.188ZM522.757 356.144C522.133 356.144 521.587 356.036 521.119 355.82C520.651 355.604 520.285 355.304 520.021 354.92C519.769 354.536 519.643 354.098 519.643 353.606C519.643 352.682 519.985 351.986 520.669 351.518C521.365 351.05 522.469 350.738 523.981 350.582L526.393 350.33V351.248L524.035 351.5C523.279 351.584 522.661 351.704 522.181 351.86C521.701 352.016 521.347 352.232 521.119 352.508C520.903 352.784 520.795 353.138 520.795 353.57C520.795 354.062 520.981 354.458 521.353 354.758C521.737 355.046 522.253 355.19 522.901 355.19C523.549 355.19 524.107 355.046 524.575 354.758C525.055 354.47 525.427 354.062 525.691 353.534C525.955 353.006 526.087 352.376 526.087 351.644V350.024C526.087 349.568 525.973 349.178 525.745 348.854C525.529 348.518 525.229 348.26 524.845 348.08C524.473 347.888 524.041 347.792 523.549 347.792C523.045 347.792 522.607 347.882 522.235 348.062C521.863 348.23 521.563 348.476 521.335 348.8C521.107 349.124 520.951 349.514 520.867 349.97L519.733 349.808C519.841 349.196 520.069 348.668 520.417 348.224C520.777 347.768 521.227 347.414 521.767 347.162C522.307 346.91 522.901 346.784 523.549 346.784C524.257 346.784 524.887 346.922 525.439 347.198C526.003 347.462 526.441 347.84 526.753 348.332C527.065 348.812 527.221 349.388 527.221 350.06V356H526.087V354.128C525.955 354.5 525.727 354.842 525.403 355.154C525.091 355.454 524.707 355.694 524.251 355.874C523.795 356.054 523.297 356.144 522.757 356.144ZM529.908 359.276V346.928H531.06V348.746C531.252 348.35 531.516 348.008 531.852 347.72C532.2 347.42 532.596 347.192 533.04 347.036C533.496 346.868 533.97 346.784 534.462 346.784C535.362 346.784 536.142 346.982 536.802 347.378C537.474 347.762 537.996 348.308 538.368 349.016C538.752 349.712 538.944 350.528 538.944 351.464C538.944 352.16 538.836 352.796 538.62 353.372C538.404 353.948 538.098 354.446 537.702 354.866C537.306 355.274 536.832 355.592 536.28 355.82C535.74 356.036 535.134 356.144 534.462 356.144C533.982 356.144 533.514 356.06 533.058 355.892C532.614 355.724 532.218 355.496 531.87 355.208C531.522 354.908 531.252 354.56 531.06 354.164V359.276H529.908ZM534.426 355.136C535.074 355.136 535.65 354.98 536.154 354.668C536.658 354.356 537.054 353.924 537.342 353.372C537.63 352.82 537.774 352.184 537.774 351.464C537.774 350.744 537.63 350.108 537.342 349.556C537.054 349.004 536.658 348.572 536.154 348.26C535.65 347.948 535.074 347.792 534.426 347.792C533.934 347.792 533.484 347.882 533.076 348.062C532.668 348.242 532.308 348.494 531.996 348.818C531.696 349.142 531.462 349.526 531.294 349.97C531.138 350.414 531.06 350.912 531.06 351.464C531.06 352.172 531.204 352.802 531.492 353.354C531.78 353.906 532.176 354.344 532.68 354.668C533.196 354.98 533.778 355.136 534.426 355.136ZM545.775 356.144C545.139 356.144 544.587 356.036 544.119 355.82C543.651 355.604 543.285 355.274 543.021 354.83C542.757 354.374 542.625 353.804 542.625 353.12V344.57H543.777V353.012C543.777 353.756 543.957 354.296 544.317 354.632C544.689 354.956 545.205 355.118 545.865 355.118C546.129 355.118 546.375 355.1 546.603 355.064C546.831 355.028 547.023 354.986 547.179 354.938L547.269 355.928C547.089 355.988 546.861 356.036 546.585 356.072C546.321 356.12 546.051 356.144 545.775 356.144ZM540.519 347.882V346.928H547.197V347.882H540.519ZM551.721 356V346.928H552.873V356H551.721ZM549.651 356V355.046H554.925V356H549.651ZM550.119 347.882V346.928H552.873V347.882H550.119ZM552.297 345.146C552.033 345.146 551.811 345.062 551.631 344.894C551.463 344.714 551.379 344.498 551.379 344.246C551.379 344.078 551.421 343.928 551.505 343.796C551.589 343.664 551.697 343.562 551.829 343.49C551.961 343.406 552.117 343.364 552.297 343.364C552.561 343.364 552.777 343.448 552.945 343.616C553.125 343.784 553.215 343.994 553.215 344.246C553.215 344.414 553.173 344.564 553.089 344.696C553.005 344.828 552.897 344.936 552.765 345.02C552.633 345.104 552.477 345.146 552.297 345.146ZM561.735 356.144C560.895 356.144 560.139 355.94 559.467 355.532C558.807 355.124 558.285 354.566 557.901 353.858C557.517 353.15 557.325 352.352 557.325 351.464C557.325 350.564 557.517 349.766 557.901 349.07C558.285 348.362 558.807 347.804 559.467 347.396C560.139 346.988 560.895 346.784 561.735 346.784C562.419 346.784 563.037 346.904 563.589 347.144C564.141 347.384 564.603 347.72 564.975 348.152C565.347 348.584 565.587 349.094 565.695 349.682L564.561 349.88C564.477 349.46 564.309 349.094 564.057 348.782C563.805 348.458 563.481 348.212 563.085 348.044C562.689 347.876 562.239 347.792 561.735 347.792C561.123 347.792 560.571 347.948 560.079 348.26C559.587 348.572 559.197 349.004 558.909 349.556C558.633 350.108 558.495 350.744 558.495 351.464C558.495 352.172 558.633 352.802 558.909 353.354C559.197 353.906 559.587 354.344 560.079 354.668C560.571 354.98 561.123 355.136 561.735 355.136C562.275 355.136 562.749 355.046 563.157 354.866C563.565 354.686 563.895 354.434 564.147 354.11C564.411 353.786 564.579 353.414 564.651 352.994L565.803 353.138C565.707 353.714 565.479 354.23 565.119 354.686C564.759 355.142 564.285 355.502 563.697 355.766C563.121 356.018 562.467 356.144 561.735 356.144ZM323.435 378V365.4H326.729C327.617 365.4 328.427 365.556 329.159 365.868C329.903 366.168 330.545 366.594 331.085 367.146C331.625 367.686 332.045 368.346 332.345 369.126C332.645 369.894 332.795 370.752 332.795 371.7C332.795 372.636 332.645 373.494 332.345 374.274C332.045 375.054 331.625 375.72 331.085 376.272C330.545 376.812 329.903 377.238 329.159 377.55C328.427 377.85 327.617 378 326.729 378H323.435ZM324.659 376.938H326.711C327.419 376.938 328.067 376.818 328.655 376.578C329.255 376.326 329.771 375.966 330.203 375.498C330.635 375.03 330.971 374.478 331.211 373.842C331.451 373.194 331.571 372.48 331.571 371.7C331.571 370.656 331.361 369.744 330.941 368.964C330.533 368.172 329.963 367.56 329.231 367.128C328.511 366.684 327.671 366.462 326.711 366.462H324.659V376.938ZM337.905 378.144C337.281 378.144 336.735 378.036 336.267 377.82C335.799 377.604 335.433 377.304 335.169 376.92C334.917 376.536 334.791 376.098 334.791 375.606C334.791 374.682 335.133 373.986 335.817 373.518C336.513 373.05 337.617 372.738 339.129 372.582L341.541 372.33V373.248L339.183 373.5C338.427 373.584 337.809 373.704 337.329 373.86C336.849 374.016 336.495 374.232 336.267 374.508C336.051 374.784 335.943 375.138 335.943 375.57C335.943 376.062 336.129 376.458 336.501 376.758C336.885 377.046 337.401 377.19 338.049 377.19C338.697 377.19 339.255 377.046 339.723 376.758C340.203 376.47 340.575 376.062 340.839 375.534C341.103 375.006 341.235 374.376 341.235 373.644V372.024C341.235 371.568 341.121 371.178 340.893 370.854C340.677 370.518 340.377 370.26 339.993 370.08C339.621 369.888 339.189 369.792 338.697 369.792C338.193 369.792 337.755 369.882 337.383 370.062C337.011 370.23 336.711 370.476 336.483 370.8C336.255 371.124 336.099 371.514 336.015 371.97L334.881 371.808C334.989 371.196 335.217 370.668 335.565 370.224C335.925 369.768 336.375 369.414 336.915 369.162C337.455 368.91 338.049 368.784 338.697 368.784C339.405 368.784 340.035 368.922 340.587 369.198C341.151 369.462 341.589 369.84 341.901 370.332C342.213 370.812 342.369 371.388 342.369 372.06V378H341.235V376.128C341.103 376.5 340.875 376.842 340.551 377.154C340.239 377.454 339.855 377.694 339.399 377.874C338.943 378.054 338.445 378.144 337.905 378.144ZM349.99 378.144C349.354 378.144 348.802 378.036 348.334 377.82C347.866 377.604 347.5 377.274 347.236 376.83C346.972 376.374 346.84 375.804 346.84 375.12V366.57H347.992V375.012C347.992 375.756 348.172 376.296 348.532 376.632C348.904 376.956 349.42 377.118 350.08 377.118C350.344 377.118 350.59 377.1 350.818 377.064C351.046 377.028 351.238 376.986 351.394 376.938L351.484 377.928C351.304 377.988 351.076 378.036 350.8 378.072C350.536 378.12 350.266 378.144 349.99 378.144ZM344.734 369.882V368.928H351.412V369.882H344.734ZM356.89 378.144C356.266 378.144 355.72 378.036 355.252 377.82C354.784 377.604 354.418 377.304 354.154 376.92C353.902 376.536 353.776 376.098 353.776 375.606C353.776 374.682 354.118 373.986 354.802 373.518C355.498 373.05 356.602 372.738 358.114 372.582L360.526 372.33V373.248L358.168 373.5C357.412 373.584 356.794 373.704 356.314 373.86C355.834 374.016 355.48 374.232 355.252 374.508C355.036 374.784 354.928 375.138 354.928 375.57C354.928 376.062 355.114 376.458 355.486 376.758C355.87 377.046 356.386 377.19 357.034 377.19C357.682 377.19 358.24 377.046 358.708 376.758C359.188 376.47 359.56 376.062 359.824 375.534C360.088 375.006 360.22 374.376 360.22 373.644V372.024C360.22 371.568 360.106 371.178 359.878 370.854C359.662 370.518 359.362 370.26 358.978 370.08C358.606 369.888 358.174 369.792 357.682 369.792C357.178 369.792 356.74 369.882 356.368 370.062C355.996 370.23 355.696 370.476 355.468 370.8C355.24 371.124 355.084 371.514 355 371.97L353.866 371.808C353.974 371.196 354.202 370.668 354.55 370.224C354.91 369.768 355.36 369.414 355.9 369.162C356.44 368.91 357.034 368.784 357.682 368.784C358.39 368.784 359.02 368.922 359.572 369.198C360.136 369.462 360.574 369.84 360.886 370.332C361.198 370.812 361.354 371.388 361.354 372.06V378H360.22V376.128C360.088 376.5 359.86 376.842 359.536 377.154C359.224 377.454 358.84 377.694 358.384 377.874C357.928 378.054 357.43 378.144 356.89 378.144ZM368.613 378.144C368.121 378.144 367.647 378.06 367.191 377.892C366.747 377.724 366.345 377.49 365.985 377.19C365.637 376.89 365.373 376.548 365.193 376.164V378H364.041V365.256H365.193V370.764C365.373 370.368 365.637 370.026 365.985 369.738C366.333 369.438 366.735 369.204 367.191 369.036C367.647 368.868 368.121 368.784 368.613 368.784C369.501 368.784 370.275 368.982 370.935 369.378C371.607 369.762 372.129 370.308 372.501 371.016C372.885 371.712 373.077 372.528 373.077 373.464C373.077 374.16 372.969 374.796 372.753 375.372C372.537 375.948 372.231 376.446 371.835 376.866C371.439 377.274 370.965 377.592 370.413 377.82C369.873 378.036 369.273 378.144 368.613 378.144ZM368.559 377.136C369.207 377.136 369.783 376.98 370.287 376.668C370.791 376.356 371.187 375.924 371.475 375.372C371.763 374.82 371.907 374.184 371.907 373.464C371.907 372.744 371.763 372.108 371.475 371.556C371.187 371.004 370.791 370.572 370.287 370.26C369.783 369.948 369.207 369.792 368.559 369.792C368.079 369.792 367.635 369.882 367.227 370.062C366.819 370.242 366.459 370.494 366.147 370.818C365.847 371.142 365.613 371.532 365.445 371.988C365.277 372.432 365.193 372.924 365.193 373.464C365.193 374.172 365.337 374.802 365.625 375.354C365.913 375.906 366.309 376.344 366.813 376.668C367.329 376.98 367.911 377.136 368.559 377.136ZM378.089 378.144C377.465 378.144 376.919 378.036 376.451 377.82C375.983 377.604 375.617 377.304 375.353 376.92C375.101 376.536 374.975 376.098 374.975 375.606C374.975 374.682 375.317 373.986 376.001 373.518C376.697 373.05 377.801 372.738 379.313 372.582L381.725 372.33V373.248L379.367 373.5C378.611 373.584 377.993 373.704 377.513 373.86C377.033 374.016 376.679 374.232 376.451 374.508C376.235 374.784 376.127 375.138 376.127 375.57C376.127 376.062 376.313 376.458 376.685 376.758C377.069 377.046 377.585 377.19 378.233 377.19C378.881 377.19 379.439 377.046 379.907 376.758C380.387 376.47 380.759 376.062 381.023 375.534C381.287 375.006 381.419 374.376 381.419 373.644V372.024C381.419 371.568 381.305 371.178 381.077 370.854C380.861 370.518 380.561 370.26 380.177 370.08C379.805 369.888 379.373 369.792 378.881 369.792C378.377 369.792 377.939 369.882 377.567 370.062C377.195 370.23 376.895 370.476 376.667 370.8C376.439 371.124 376.283 371.514 376.199 371.97L375.065 371.808C375.173 371.196 375.401 370.668 375.749 370.224C376.109 369.768 376.559 369.414 377.099 369.162C377.639 368.91 378.233 368.784 378.881 368.784C379.589 368.784 380.219 368.922 380.771 369.198C381.335 369.462 381.773 369.84 382.085 370.332C382.397 370.812 382.553 371.388 382.553 372.06V378H381.419V376.128C381.287 376.5 381.059 376.842 380.735 377.154C380.423 377.454 380.039 377.694 379.583 377.874C379.127 378.054 378.629 378.144 378.089 378.144ZM389.02 378.144C388.336 378.144 387.73 378.036 387.202 377.82C386.674 377.592 386.236 377.28 385.888 376.884C385.54 376.476 385.294 376.002 385.15 375.462L386.212 375.156C386.368 375.78 386.686 376.266 387.166 376.614C387.658 376.962 388.27 377.136 389.002 377.136C389.47 377.136 389.872 377.07 390.208 376.938C390.556 376.806 390.826 376.62 391.018 376.38C391.222 376.128 391.324 375.822 391.324 375.462C391.324 375.102 391.222 374.82 391.018 374.616C390.814 374.4 390.538 374.232 390.19 374.112C389.854 373.98 389.482 373.872 389.074 373.788C388.678 373.692 388.276 373.59 387.868 373.482C387.472 373.374 387.1 373.236 386.752 373.068C386.416 372.888 386.14 372.648 385.924 372.348C385.72 372.048 385.618 371.664 385.618 371.196C385.618 370.716 385.75 370.296 386.014 369.936C386.278 369.576 386.644 369.294 387.112 369.09C387.592 368.886 388.138 368.784 388.75 368.784C389.338 368.784 389.872 368.874 390.352 369.054C390.832 369.234 391.24 369.492 391.576 369.828C391.912 370.164 392.146 370.572 392.278 371.052L391.234 371.43C391.066 370.854 390.748 370.44 390.28 370.188C389.824 369.924 389.308 369.792 388.732 369.792C388.36 369.792 388.024 369.846 387.724 369.954C387.424 370.062 387.184 370.218 387.004 370.422C386.836 370.626 386.752 370.872 386.752 371.16C386.752 371.484 386.854 371.742 387.058 371.934C387.274 372.114 387.55 372.264 387.886 372.384C388.222 372.492 388.594 372.594 389.002 372.69C389.41 372.774 389.812 372.876 390.208 372.996C390.616 373.104 390.988 373.254 391.324 373.446C391.672 373.638 391.948 373.896 392.152 374.22C392.356 374.532 392.458 374.934 392.458 375.426C392.458 375.978 392.308 376.458 392.008 376.866C391.72 377.274 391.312 377.592 390.784 377.82C390.268 378.036 389.68 378.144 389.02 378.144ZM399.136 378.144C398.272 378.144 397.51 377.946 396.85 377.55C396.19 377.142 395.668 376.59 395.284 375.894C394.912 375.186 394.726 374.376 394.726 373.464C394.726 372.78 394.834 372.156 395.05 371.592C395.266 371.016 395.566 370.518 395.95 370.098C396.334 369.678 396.796 369.354 397.336 369.126C397.876 368.898 398.464 368.784 399.1 368.784C399.772 368.784 400.372 368.904 400.9 369.144C401.428 369.372 401.872 369.702 402.232 370.134C402.604 370.566 402.868 371.064 403.024 371.628C403.192 372.192 403.234 372.804 403.15 373.464H395.374V372.528H402.016C402.016 371.964 401.89 371.478 401.638 371.07C401.386 370.662 401.044 370.35 400.612 370.134C400.18 369.906 399.676 369.792 399.1 369.792C398.632 369.792 398.2 369.876 397.804 370.044C397.408 370.212 397.066 370.458 396.778 370.782C396.49 371.094 396.268 371.472 396.112 371.916C395.968 372.36 395.896 372.864 395.896 373.428C395.896 374.16 396.028 374.808 396.292 375.372C396.568 375.924 396.946 376.356 397.426 376.668C397.918 376.98 398.488 377.136 399.136 377.136C399.64 377.136 400.096 377.046 400.504 376.866C400.924 376.686 401.266 376.446 401.53 376.146C401.806 375.834 401.98 375.486 402.052 375.102L403.114 375.354C402.994 375.906 402.742 376.392 402.358 376.812C401.986 377.232 401.524 377.562 400.972 377.802C400.42 378.03 399.808 378.144 399.136 378.144ZM416.636 378.144C415.904 378.144 415.262 378.006 414.71 377.73C414.17 377.442 413.75 377.052 413.45 376.56C413.15 376.056 413 375.468 413 374.796C413 374.136 413.108 373.584 413.324 373.14C413.552 372.696 413.84 372.324 414.188 372.024C414.548 371.712 414.944 371.448 415.376 371.232C415.808 371.016 416.24 370.812 416.672 370.62C417.116 370.428 417.512 370.218 417.86 369.99C418.22 369.762 418.508 369.486 418.724 369.162C418.952 368.838 419.066 368.436 419.066 367.956C419.066 367.464 418.886 367.062 418.526 366.75C418.178 366.426 417.728 366.264 417.176 366.264C416.816 366.264 416.492 366.342 416.204 366.498C415.928 366.642 415.706 366.84 415.538 367.092C415.382 367.344 415.304 367.632 415.304 367.956C415.304 368.256 415.358 368.532 415.466 368.784C415.574 369.024 415.736 369.282 415.952 369.558C416.18 369.822 416.45 370.14 416.762 370.512L423.296 378H421.838L415.826 371.07C415.502 370.698 415.214 370.356 414.962 370.044C414.722 369.732 414.53 369.414 414.386 369.09C414.242 368.754 414.17 368.388 414.17 367.992C414.17 367.452 414.302 366.978 414.566 366.57C414.83 366.162 415.19 365.844 415.646 365.616C416.114 365.376 416.624 365.256 417.176 365.256C417.74 365.256 418.25 365.376 418.706 365.616C419.162 365.844 419.522 366.162 419.786 366.57C420.05 366.978 420.182 367.446 420.182 367.974C420.182 368.562 420.074 369.054 419.858 369.45C419.642 369.846 419.354 370.182 418.994 370.458C418.646 370.722 418.256 370.956 417.824 371.16C417.392 371.364 416.96 371.568 416.528 371.772C416.096 371.976 415.7 372.204 415.34 372.456C414.992 372.708 414.704 373.02 414.476 373.392C414.26 373.764 414.152 374.22 414.152 374.76C414.152 375.468 414.386 376.038 414.854 376.47C415.322 376.902 415.928 377.118 416.672 377.118C417.104 377.118 417.506 377.052 417.878 376.92C418.25 376.788 418.616 376.584 418.976 376.308C419.348 376.02 419.714 375.66 420.074 375.228L422.198 372.726L422.99 373.428L420.866 375.948C420.47 376.428 420.056 376.836 419.624 377.172C419.192 377.496 418.73 377.742 418.238 377.91C417.758 378.066 417.224 378.144 416.636 378.144ZM434.933 378V365.4H436.157V378H434.933ZM432.953 366.462V365.4H438.137V366.462H432.953ZM432.953 378V376.938H438.137V378H432.953ZM441.038 378V368.928H442.172V370.962C442.352 370.554 442.604 370.182 442.928 369.846C443.264 369.51 443.66 369.252 444.116 369.072C444.572 368.88 445.076 368.784 445.628 368.784C446.252 368.784 446.81 368.91 447.302 369.162C447.794 369.414 448.178 369.78 448.454 370.26C448.742 370.74 448.886 371.328 448.886 372.024V378H447.752V372.258C447.752 371.718 447.656 371.268 447.464 370.908C447.272 370.536 447.002 370.26 446.654 370.08C446.318 369.9 445.91 369.81 445.43 369.81C444.77 369.81 444.194 369.99 443.702 370.35C443.222 370.698 442.844 371.196 442.568 371.844C442.304 372.492 442.172 373.254 442.172 374.13V378H441.038ZM456.425 378.144C455.789 378.144 455.237 378.036 454.769 377.82C454.301 377.604 453.935 377.274 453.671 376.83C453.407 376.374 453.275 375.804 453.275 375.12V366.57H454.427V375.012C454.427 375.756 454.607 376.296 454.967 376.632C455.339 376.956 455.855 377.118 456.515 377.118C456.779 377.118 457.025 377.1 457.253 377.064C457.481 377.028 457.673 376.986 457.829 376.938L457.919 377.928C457.739 377.988 457.511 378.036 457.235 378.072C456.971 378.12 456.701 378.144 456.425 378.144ZM451.169 369.882V368.928H457.847V369.882H451.169ZM464.246 378.144C463.382 378.144 462.62 377.946 461.96 377.55C461.3 377.142 460.778 376.59 460.394 375.894C460.022 375.186 459.836 374.376 459.836 373.464C459.836 372.78 459.944 372.156 460.16 371.592C460.376 371.016 460.676 370.518 461.06 370.098C461.444 369.678 461.906 369.354 462.446 369.126C462.986 368.898 463.574 368.784 464.21 368.784C464.882 368.784 465.482 368.904 466.01 369.144C466.538 369.372 466.982 369.702 467.342 370.134C467.714 370.566 467.978 371.064 468.134 371.628C468.302 372.192 468.344 372.804 468.26 373.464H460.484V372.528H467.126C467.126 371.964 467 371.478 466.748 371.07C466.496 370.662 466.154 370.35 465.722 370.134C465.29 369.906 464.786 369.792 464.21 369.792C463.742 369.792 463.31 369.876 462.914 370.044C462.518 370.212 462.176 370.458 461.888 370.782C461.6 371.094 461.378 371.472 461.222 371.916C461.078 372.36 461.006 372.864 461.006 373.428C461.006 374.16 461.138 374.808 461.402 375.372C461.678 375.924 462.056 376.356 462.536 376.668C463.028 376.98 463.598 377.136 464.246 377.136C464.75 377.136 465.206 377.046 465.614 376.866C466.034 376.686 466.376 376.446 466.64 376.146C466.916 375.834 467.09 375.486 467.162 375.102L468.224 375.354C468.104 375.906 467.852 376.392 467.468 376.812C467.096 377.232 466.634 377.562 466.082 377.802C465.53 378.03 464.918 378.144 464.246 378.144ZM474.381 381.42C473.733 381.42 473.133 381.312 472.581 381.096C472.041 380.892 471.585 380.598 471.213 380.214C470.841 379.842 470.589 379.392 470.457 378.864L471.555 378.612C471.711 379.212 472.047 379.662 472.563 379.962C473.091 380.262 473.703 380.412 474.399 380.412C475.335 380.412 476.097 380.166 476.685 379.674C477.273 379.182 477.567 378.492 477.567 377.604V375.84C477.387 376.188 477.123 376.5 476.775 376.776C476.439 377.04 476.055 377.25 475.623 377.406C475.191 377.55 474.735 377.622 474.255 377.622C473.439 377.622 472.713 377.436 472.077 377.064C471.453 376.692 470.961 376.176 470.601 375.516C470.253 374.844 470.079 374.076 470.079 373.212C470.079 372.54 470.181 371.934 470.385 371.394C470.589 370.854 470.871 370.392 471.231 370.008C471.603 369.612 472.047 369.312 472.563 369.108C473.091 368.892 473.667 368.784 474.291 368.784C474.771 368.784 475.221 368.862 475.641 369.018C476.073 369.162 476.457 369.366 476.793 369.63C477.129 369.882 477.387 370.188 477.567 370.548V368.928H478.719V377.514C478.719 378.318 478.533 379.014 478.161 379.602C477.789 380.19 477.279 380.64 476.631 380.952C475.983 381.264 475.233 381.42 474.381 381.42ZM474.399 376.614C474.855 376.614 475.275 376.53 475.659 376.362C476.055 376.194 476.391 375.96 476.667 375.66C476.955 375.348 477.177 374.988 477.333 374.58C477.501 374.16 477.585 373.704 477.585 373.212C477.585 372.528 477.447 371.934 477.171 371.43C476.895 370.914 476.517 370.512 476.037 370.224C475.557 369.936 475.011 369.792 474.399 369.792C473.787 369.792 473.241 369.936 472.761 370.224C472.281 370.512 471.903 370.914 471.627 371.43C471.351 371.934 471.213 372.528 471.213 373.212C471.213 373.872 471.351 374.46 471.627 374.976C471.903 375.48 472.281 375.882 472.761 376.182C473.241 376.47 473.787 376.614 474.399 376.614ZM482.025 378V368.928H483.159V371.052C483.339 370.584 483.591 370.182 483.915 369.846C484.251 369.51 484.647 369.252 485.103 369.072C485.571 368.88 486.081 368.784 486.633 368.784C486.897 368.784 487.173 368.808 487.461 368.856C487.749 368.904 488.007 368.97 488.235 369.054L488.145 370.134C487.857 370.038 487.587 369.972 487.335 369.936C487.083 369.888 486.825 369.864 486.561 369.864C486.033 369.864 485.553 369.972 485.121 370.188C484.701 370.392 484.341 370.692 484.041 371.088C483.753 371.472 483.531 371.94 483.375 372.492C483.231 373.044 483.159 373.668 483.159 374.364V378H482.025ZM493.155 378.144C492.531 378.144 491.985 378.036 491.517 377.82C491.049 377.604 490.683 377.304 490.419 376.92C490.167 376.536 490.041 376.098 490.041 375.606C490.041 374.682 490.383 373.986 491.067 373.518C491.763 373.05 492.867 372.738 494.379 372.582L496.791 372.33V373.248L494.433 373.5C493.677 373.584 493.059 373.704 492.579 373.86C492.099 374.016 491.745 374.232 491.517 374.508C491.301 374.784 491.193 375.138 491.193 375.57C491.193 376.062 491.379 376.458 491.751 376.758C492.135 377.046 492.651 377.19 493.299 377.19C493.947 377.19 494.505 377.046 494.973 376.758C495.453 376.47 495.825 376.062 496.089 375.534C496.353 375.006 496.485 374.376 496.485 373.644V372.024C496.485 371.568 496.371 371.178 496.143 370.854C495.927 370.518 495.627 370.26 495.243 370.08C494.871 369.888 494.439 369.792 493.947 369.792C493.443 369.792 493.005 369.882 492.633 370.062C492.261 370.23 491.961 370.476 491.733 370.8C491.505 371.124 491.349 371.514 491.265 371.97L490.131 371.808C490.239 371.196 490.467 370.668 490.815 370.224C491.175 369.768 491.625 369.414 492.165 369.162C492.705 368.91 493.299 368.784 493.947 368.784C494.655 368.784 495.285 368.922 495.837 369.198C496.401 369.462 496.839 369.84 497.151 370.332C497.463 370.812 497.619 371.388 497.619 372.06V378H496.485V376.128C496.353 376.5 496.125 376.842 495.801 377.154C495.489 377.454 495.105 377.694 494.649 377.874C494.193 378.054 493.695 378.144 493.155 378.144ZM505.24 378.144C504.604 378.144 504.052 378.036 503.584 377.82C503.116 377.604 502.75 377.274 502.486 376.83C502.222 376.374 502.09 375.804 502.09 375.12V366.57H503.242V375.012C503.242 375.756 503.422 376.296 503.782 376.632C504.154 376.956 504.67 377.118 505.33 377.118C505.594 377.118 505.84 377.1 506.068 377.064C506.296 377.028 506.488 376.986 506.644 376.938L506.734 377.928C506.554 377.988 506.326 378.036 506.05 378.072C505.786 378.12 505.516 378.144 505.24 378.144ZM499.984 369.882V368.928H506.662V369.882H499.984ZM511.186 378V368.928H512.338V378H511.186ZM509.116 378V377.046H514.39V378H509.116ZM509.584 369.882V368.928H512.338V369.882H509.584ZM511.762 367.146C511.498 367.146 511.276 367.062 511.096 366.894C510.928 366.714 510.844 366.498 510.844 366.246C510.844 366.078 510.886 365.928 510.97 365.796C511.054 365.664 511.162 365.562 511.294 365.49C511.426 365.406 511.582 365.364 511.762 365.364C512.026 365.364 512.242 365.448 512.41 365.616C512.59 365.784 512.68 365.994 512.68 366.246C512.68 366.414 512.638 366.564 512.554 366.696C512.47 366.828 512.362 366.936 512.23 367.02C512.098 367.104 511.942 367.146 511.762 367.146ZM521.092 378.144C520.228 378.144 519.454 377.946 518.77 377.55C518.086 377.142 517.552 376.59 517.168 375.894C516.784 375.186 516.592 374.376 516.592 373.464C516.592 372.78 516.7 372.156 516.916 371.592C517.144 371.016 517.456 370.518 517.852 370.098C518.26 369.678 518.734 369.354 519.274 369.126C519.826 368.898 520.432 368.784 521.092 368.784C521.968 368.784 522.742 368.988 523.414 369.396C524.086 369.792 524.614 370.344 524.998 371.052C525.394 371.748 525.592 372.552 525.592 373.464C525.592 374.148 525.478 374.778 525.25 375.354C525.034 375.918 524.722 376.41 524.314 376.83C523.906 377.25 523.432 377.574 522.892 377.802C522.352 378.03 521.752 378.144 521.092 378.144ZM521.092 377.136C521.572 377.136 522.016 377.046 522.424 376.866C522.832 376.686 523.186 376.434 523.486 376.11C523.786 375.786 524.02 375.402 524.188 374.958C524.356 374.502 524.44 374.004 524.44 373.464C524.44 372.744 524.296 372.108 524.008 371.556C523.72 371.004 523.324 370.572 522.82 370.26C522.316 369.948 521.74 369.792 521.092 369.792C520.6 369.792 520.15 369.882 519.742 370.062C519.334 370.242 518.98 370.494 518.68 370.818C518.392 371.142 518.164 371.532 517.996 371.988C517.828 372.432 517.744 372.924 517.744 373.464C517.744 374.184 517.888 374.82 518.176 375.372C518.464 375.924 518.86 376.356 519.364 376.668C519.868 376.98 520.444 377.136 521.092 377.136ZM527.856 378V368.928H528.99V370.962C529.17 370.554 529.422 370.182 529.746 369.846C530.082 369.51 530.478 369.252 530.934 369.072C531.39 368.88 531.894 368.784 532.446 368.784C533.07 368.784 533.628 368.91 534.12 369.162C534.612 369.414 534.996 369.78 535.272 370.26C535.56 370.74 535.704 371.328 535.704 372.024V378H534.57V372.258C534.57 371.718 534.474 371.268 534.282 370.908C534.09 370.536 533.82 370.26 533.472 370.08C533.136 369.9 532.728 369.81 532.248 369.81C531.588 369.81 531.012 369.99 530.52 370.35C530.04 370.698 529.662 371.196 529.386 371.844C529.122 372.492 528.99 373.254 528.99 374.13V378H527.856ZM542.073 378.144C541.389 378.144 540.783 378.036 540.255 377.82C539.727 377.592 539.289 377.28 538.941 376.884C538.593 376.476 538.347 376.002 538.203 375.462L539.265 375.156C539.421 375.78 539.739 376.266 540.219 376.614C540.711 376.962 541.323 377.136 542.055 377.136C542.523 377.136 542.925 377.07 543.261 376.938C543.609 376.806 543.879 376.62 544.071 376.38C544.275 376.128 544.377 375.822 544.377 375.462C544.377 375.102 544.275 374.82 544.071 374.616C543.867 374.4 543.591 374.232 543.243 374.112C542.907 373.98 542.535 373.872 542.127 373.788C541.731 373.692 541.329 373.59 540.921 373.482C540.525 373.374 540.153 373.236 539.805 373.068C539.469 372.888 539.193 372.648 538.977 372.348C538.773 372.048 538.671 371.664 538.671 371.196C538.671 370.716 538.803 370.296 539.067 369.936C539.331 369.576 539.697 369.294 540.165 369.09C540.645 368.886 541.191 368.784 541.803 368.784C542.391 368.784 542.925 368.874 543.405 369.054C543.885 369.234 544.293 369.492 544.629 369.828C544.965 370.164 545.199 370.572 545.331 371.052L544.287 371.43C544.119 370.854 543.801 370.44 543.333 370.188C542.877 369.924 542.361 369.792 541.785 369.792C541.413 369.792 541.077 369.846 540.777 369.954C540.477 370.062 540.237 370.218 540.057 370.422C539.889 370.626 539.805 370.872 539.805 371.16C539.805 371.484 539.907 371.742 540.111 371.934C540.327 372.114 540.603 372.264 540.939 372.384C541.275 372.492 541.647 372.594 542.055 372.69C542.463 372.774 542.865 372.876 543.261 372.996C543.669 373.104 544.041 373.254 544.377 373.446C544.725 373.638 545.001 373.896 545.205 374.22C545.409 374.532 545.511 374.934 545.511 375.426C545.511 375.978 545.361 376.458 545.061 376.866C544.773 377.274 544.365 377.592 543.837 377.82C543.321 378.036 542.733 378.144 542.073 378.144Z" fill="#5F616D"/>
<rect x="343" y="261" width="182" height="64" rx="8" fill="#0A0A0A"/>
<path d="M351 269V317" stroke="#6CFFE6" stroke-width="0.5"/>
<path d="M378.667 269.25V316.75" stroke="#6CFFE6" stroke-width="0.5"/>
<path d="M406.333 269.25V316.75" stroke="#6CFFE6" stroke-width="0.5"/>
<path d="M434 269.25V316.75" stroke="#6CFFE6" stroke-width="0.5"/>
<path d="M461.667 269.25V316.75" stroke="#6CFFE6" stroke-width="0.5"/>
<path d="M489.333 269.25V316.75" stroke="#6CFFE6" stroke-width="0.5"/>
<path d="M517 269.25V316.75" stroke="#6CFFE6" stroke-width="0.5"/>
<path d="M351 269H517" stroke="#6CFFE6" stroke-width="0.5"/>
<path d="M351 281H517" stroke="#6CFFE6" stroke-width="0.5"/>
<path d="M351 293H517" stroke="#6CFFE6" stroke-width="0.5"/>
<path d="M351 305H517" stroke="#6CFFE6" stroke-width="0.5"/>
<path d="M351 317H517" stroke="#6CFFE6" stroke-width="0.5"/>
<rect x="662.25" y="173.25" width="362.5" height="238.5" rx="11.75" fill="#15161A"/>
<rect x="662.25" y="173.25" width="362.5" height="238.5" rx="11.75" stroke="#323339" stroke-width="0.5"/>
<circle cx="690" cy="201" r="8" fill="#27282D"/>
<circle cx="718" cy="201" r="8" fill="#27282D"/>
<circle cx="746" cy="201" r="8" fill="#27282D"/>
<path d="M785.539 208V196.8H789.523C790.173 196.8 790.749 196.928 791.251 197.184C791.752 197.429 792.141 197.776 792.419 198.224C792.696 198.672 792.835 199.189 792.835 199.776C792.835 200.192 792.755 200.581 792.595 200.944C792.435 201.307 792.205 201.627 791.907 201.904C791.608 202.171 791.256 202.379 790.851 202.528C790.456 202.677 790.013 202.752 789.523 202.752H786.627V208H785.539ZM792.291 208L789.107 202.48L790.211 202.384L793.507 208H792.291ZM786.627 201.808H789.395C789.864 201.808 790.275 201.723 790.627 201.552C790.989 201.371 791.267 201.131 791.459 200.832C791.661 200.523 791.763 200.171 791.763 199.776C791.763 199.371 791.661 199.019 791.459 198.72C791.267 198.421 790.989 198.187 790.627 198.016C790.275 197.835 789.864 197.744 789.395 197.744H786.627V201.808ZM798.589 208.128C797.821 208.128 797.144 207.952 796.557 207.6C795.97 207.237 795.506 206.747 795.165 206.128C794.834 205.499 794.669 204.779 794.669 203.968C794.669 203.36 794.765 202.805 794.957 202.304C795.149 201.792 795.416 201.349 795.757 200.976C796.098 200.603 796.509 200.315 796.989 200.112C797.469 199.909 797.992 199.808 798.557 199.808C799.154 199.808 799.688 199.915 800.157 200.128C800.626 200.331 801.021 200.624 801.341 201.008C801.672 201.392 801.906 201.835 802.045 202.336C802.194 202.837 802.232 203.381 802.157 203.968H795.245V203.136H801.149C801.149 202.635 801.037 202.203 800.813 201.84C800.589 201.477 800.285 201.2 799.901 201.008C799.517 200.805 799.069 200.704 798.557 200.704C798.141 200.704 797.757 200.779 797.405 200.928C797.053 201.077 796.749 201.296 796.493 201.584C796.237 201.861 796.04 202.197 795.901 202.592C795.773 202.987 795.709 203.435 795.709 203.936C795.709 204.587 795.826 205.163 796.061 205.664C796.306 206.155 796.642 206.539 797.069 206.816C797.506 207.093 798.013 207.232 798.589 207.232C799.037 207.232 799.442 207.152 799.805 206.992C800.178 206.832 800.482 206.619 800.717 206.352C800.962 206.075 801.117 205.765 801.181 205.424L802.125 205.648C802.018 206.139 801.794 206.571 801.453 206.944C801.122 207.317 800.712 207.611 800.221 207.824C799.73 208.027 799.186 208.128 798.589 208.128ZM804.174 210.912V199.936H805.198V201.552C805.369 201.2 805.604 200.896 805.902 200.64C806.212 200.373 806.564 200.171 806.958 200.032C807.364 199.883 807.785 199.808 808.222 199.808C809.022 199.808 809.716 199.984 810.302 200.336C810.9 200.677 811.364 201.163 811.694 201.792C812.036 202.411 812.206 203.136 812.206 203.968C812.206 204.587 812.11 205.152 811.918 205.664C811.726 206.176 811.454 206.619 811.102 206.992C810.75 207.355 810.329 207.637 809.838 207.84C809.358 208.032 808.82 208.128 808.222 208.128C807.796 208.128 807.38 208.053 806.974 207.904C806.58 207.755 806.228 207.552 805.918 207.296C805.609 207.029 805.369 206.72 805.198 206.368V210.912H804.174ZM808.19 207.232C808.766 207.232 809.278 207.093 809.726 206.816C810.174 206.539 810.526 206.155 810.782 205.664C811.038 205.173 811.166 204.608 811.166 203.968C811.166 203.328 811.038 202.763 810.782 202.272C810.526 201.781 810.174 201.397 809.726 201.12C809.278 200.843 808.766 200.704 808.19 200.704C807.753 200.704 807.353 200.784 806.99 200.944C806.628 201.104 806.308 201.328 806.03 201.616C805.764 201.904 805.556 202.245 805.406 202.64C805.268 203.035 805.198 203.477 805.198 203.968C805.198 204.597 805.326 205.157 805.582 205.648C805.838 206.139 806.19 206.528 806.638 206.816C807.097 207.093 807.614 207.232 808.19 207.232ZM817.525 208.128C816.757 208.128 816.069 207.952 815.461 207.6C814.853 207.237 814.378 206.747 814.037 206.128C813.696 205.499 813.525 204.779 813.525 203.968C813.525 203.36 813.621 202.805 813.813 202.304C814.016 201.792 814.293 201.349 814.645 200.976C815.008 200.603 815.429 200.315 815.909 200.112C816.4 199.909 816.938 199.808 817.525 199.808C818.304 199.808 818.992 199.989 819.589 200.352C820.186 200.704 820.656 201.195 820.997 201.824C821.349 202.443 821.525 203.157 821.525 203.968C821.525 204.576 821.424 205.136 821.221 205.648C821.029 206.149 820.752 206.587 820.389 206.96C820.026 207.333 819.605 207.621 819.125 207.824C818.645 208.027 818.112 208.128 817.525 208.128ZM817.525 207.232C817.952 207.232 818.346 207.152 818.709 206.992C819.072 206.832 819.386 206.608 819.653 206.32C819.92 206.032 820.128 205.691 820.277 205.296C820.426 204.891 820.501 204.448 820.501 203.968C820.501 203.328 820.373 202.763 820.117 202.272C819.861 201.781 819.509 201.397 819.061 201.12C818.613 200.843 818.101 200.704 817.525 200.704C817.088 200.704 816.688 200.784 816.325 200.944C815.962 201.104 815.648 201.328 815.381 201.616C815.125 201.904 814.922 202.251 814.773 202.656C814.624 203.051 814.549 203.488 814.549 203.968C814.549 204.608 814.677 205.173 814.933 205.664C815.189 206.155 815.541 206.539 815.989 206.816C816.437 207.093 816.949 207.232 817.525 207.232ZM823.858 208V199.936H824.866V201.824C825.036 201.397 825.271 201.035 825.57 200.736C825.868 200.437 826.22 200.208 826.626 200.048C827.031 199.888 827.463 199.808 827.922 199.808C828.124 199.808 828.327 199.824 828.53 199.856C828.732 199.888 828.914 199.931 829.074 199.984L828.994 200.96C828.802 200.896 828.615 200.848 828.434 200.816C828.252 200.784 828.066 200.768 827.874 200.768C827.404 200.768 826.983 200.864 826.61 201.056C826.236 201.237 825.916 201.504 825.65 201.856C825.394 202.197 825.196 202.619 825.058 203.12C824.93 203.611 824.866 204.171 824.866 204.8V208H823.858ZM835.481 208.128C834.916 208.128 834.425 208.032 834.009 207.84C833.593 207.648 833.268 207.355 833.033 206.96C832.799 206.555 832.681 206.048 832.681 205.44V197.84H833.705V205.344C833.705 206.005 833.865 206.485 834.185 206.784C834.516 207.072 834.975 207.216 835.561 207.216C835.796 207.216 836.015 207.2 836.217 207.168C836.42 207.136 836.591 207.099 836.729 207.056L836.809 207.936C836.649 207.989 836.447 208.032 836.201 208.064C835.967 208.107 835.727 208.128 835.481 208.128ZM830.809 200.784V199.936H836.745V200.784H830.809ZM842.191 208.128C841.583 208.128 841.044 208.032 840.575 207.84C840.105 207.637 839.716 207.36 839.407 207.008C839.097 206.645 838.879 206.224 838.751 205.744L839.695 205.472C839.833 206.027 840.116 206.459 840.543 206.768C840.98 207.077 841.524 207.232 842.175 207.232C842.591 207.232 842.948 207.173 843.247 207.056C843.556 206.939 843.796 206.773 843.967 206.56C844.148 206.336 844.239 206.064 844.239 205.744C844.239 205.424 844.148 205.173 843.967 204.992C843.785 204.8 843.54 204.651 843.231 204.544C842.932 204.427 842.601 204.331 842.239 204.256C841.887 204.171 841.529 204.08 841.167 203.984C840.815 203.888 840.484 203.765 840.175 203.616C839.876 203.456 839.631 203.243 839.439 202.976C839.257 202.709 839.167 202.368 839.167 201.952C839.167 201.525 839.284 201.152 839.519 200.832C839.753 200.512 840.079 200.261 840.495 200.08C840.921 199.899 841.407 199.808 841.951 199.808C842.473 199.808 842.948 199.888 843.375 200.048C843.801 200.208 844.164 200.437 844.463 200.736C844.761 201.035 844.969 201.397 845.087 201.824L844.159 202.16C844.009 201.648 843.727 201.28 843.311 201.056C842.905 200.821 842.447 200.704 841.935 200.704C841.604 200.704 841.305 200.752 841.039 200.848C840.772 200.944 840.559 201.083 840.399 201.264C840.249 201.445 840.175 201.664 840.175 201.92C840.175 202.208 840.265 202.437 840.447 202.608C840.639 202.768 840.884 202.901 841.183 203.008C841.481 203.104 841.812 203.195 842.175 203.28C842.537 203.355 842.895 203.445 843.247 203.552C843.609 203.648 843.94 203.781 844.239 203.952C844.548 204.123 844.793 204.352 844.975 204.64C845.156 204.917 845.247 205.275 845.247 205.712C845.247 206.203 845.113 206.629 844.847 206.992C844.591 207.355 844.228 207.637 843.759 207.84C843.3 208.032 842.777 208.128 842.191 208.128ZM857.457 208.128C856.807 208.128 856.236 208.005 855.745 207.76C855.265 207.504 854.892 207.157 854.625 206.72C854.359 206.272 854.225 205.749 854.225 205.152C854.225 204.565 854.321 204.075 854.513 203.68C854.716 203.285 854.972 202.955 855.281 202.688C855.601 202.411 855.953 202.176 856.337 201.984C856.721 201.792 857.105 201.611 857.489 201.44C857.884 201.269 858.236 201.083 858.545 200.88C858.865 200.677 859.121 200.432 859.313 200.144C859.516 199.856 859.617 199.499 859.617 199.072C859.617 198.635 859.457 198.277 859.137 198C858.828 197.712 858.428 197.568 857.937 197.568C857.617 197.568 857.329 197.637 857.073 197.776C856.828 197.904 856.631 198.08 856.481 198.304C856.343 198.528 856.273 198.784 856.273 199.072C856.273 199.339 856.321 199.584 856.417 199.808C856.513 200.021 856.657 200.251 856.849 200.496C857.052 200.731 857.292 201.013 857.569 201.344L863.377 208H862.081L856.737 201.84C856.449 201.509 856.193 201.205 855.969 200.928C855.756 200.651 855.585 200.368 855.457 200.08C855.329 199.781 855.265 199.456 855.265 199.104C855.265 198.624 855.383 198.203 855.617 197.84C855.852 197.477 856.172 197.195 856.577 196.992C856.993 196.779 857.447 196.672 857.937 196.672C858.439 196.672 858.892 196.779 859.297 196.992C859.703 197.195 860.023 197.477 860.257 197.84C860.492 198.203 860.609 198.619 860.609 199.088C860.609 199.611 860.513 200.048 860.321 200.4C860.129 200.752 859.873 201.051 859.553 201.296C859.244 201.531 858.897 201.739 858.513 201.92C858.129 202.101 857.745 202.283 857.361 202.464C856.977 202.645 856.625 202.848 856.305 203.072C855.996 203.296 855.74 203.573 855.537 203.904C855.345 204.235 855.249 204.64 855.249 205.12C855.249 205.749 855.457 206.256 855.873 206.64C856.289 207.024 856.828 207.216 857.489 207.216C857.873 207.216 858.231 207.157 858.561 207.04C858.892 206.923 859.217 206.741 859.537 206.496C859.868 206.24 860.193 205.92 860.513 205.536L862.401 203.312L863.105 203.936L861.217 206.176C860.865 206.603 860.497 206.965 860.113 207.264C859.729 207.552 859.319 207.771 858.881 207.92C858.455 208.059 857.98 208.128 857.457 208.128ZM870.718 208L874.766 196.8H876.078L880.11 208H879.006L877.886 204.896H872.926L871.806 208H870.718ZM873.214 203.952H877.598L875.422 197.84L873.214 203.952ZM881.71 208V199.936H882.718V201.744C882.878 201.381 883.102 201.051 883.39 200.752C883.688 200.453 884.04 200.224 884.446 200.064C884.851 199.893 885.299 199.808 885.79 199.808C886.344 199.808 886.84 199.92 887.278 200.144C887.715 200.368 888.056 200.693 888.302 201.12C888.558 201.547 888.686 202.069 888.686 202.688V208H887.678V202.896C887.678 202.416 887.592 202.016 887.422 201.696C887.251 201.365 887.011 201.12 886.702 200.96C886.403 200.8 886.04 200.72 885.614 200.72C885.027 200.72 884.515 200.88 884.078 201.2C883.651 201.509 883.315 201.952 883.07 202.528C882.835 203.104 882.718 203.781 882.718 204.56V208H881.71ZM893.771 208.128C893.216 208.128 892.731 208.032 892.315 207.84C891.899 207.648 891.573 207.381 891.339 207.04C891.115 206.699 891.003 206.309 891.003 205.872C891.003 205.051 891.307 204.432 891.915 204.016C892.533 203.6 893.515 203.323 894.859 203.184L897.003 202.96V203.776L894.907 204C894.235 204.075 893.685 204.181 893.259 204.32C892.832 204.459 892.517 204.651 892.315 204.896C892.123 205.141 892.027 205.456 892.027 205.84C892.027 206.277 892.192 206.629 892.523 206.896C892.864 207.152 893.323 207.28 893.899 207.28C894.475 207.28 894.971 207.152 895.387 206.896C895.813 206.64 896.144 206.277 896.379 205.808C896.613 205.339 896.731 204.779 896.731 204.128V202.688C896.731 202.283 896.629 201.936 896.427 201.648C896.235 201.349 895.968 201.12 895.627 200.96C895.296 200.789 894.912 200.704 894.475 200.704C894.027 200.704 893.637 200.784 893.307 200.944C892.976 201.093 892.709 201.312 892.507 201.6C892.304 201.888 892.165 202.235 892.091 202.64L891.083 202.496C891.179 201.952 891.381 201.483 891.691 201.088C892.011 200.683 892.411 200.368 892.891 200.144C893.371 199.92 893.899 199.808 894.475 199.808C895.104 199.808 895.664 199.931 896.155 200.176C896.656 200.411 897.045 200.747 897.323 201.184C897.6 201.611 897.739 202.123 897.739 202.72V208H896.731V206.336C896.613 206.667 896.411 206.971 896.123 207.248C895.845 207.515 895.504 207.728 895.099 207.888C894.693 208.048 894.251 208.128 893.771 208.128ZM902.079 208V196.672H903.103V208H902.079ZM900.255 208V207.152H904.927V208H900.255ZM900.655 197.52V196.672H903.103V197.52H900.655ZM908.933 210.912L910.405 207.296L913.269 199.936H914.325L909.989 210.912H908.933ZM910.245 208.592L906.805 199.936L907.877 199.936L910.757 207.232L910.245 208.592ZM920.528 208.128C919.963 208.128 919.472 208.032 919.056 207.84C918.64 207.648 918.315 207.355 918.08 206.96C917.846 206.555 917.728 206.048 917.728 205.44V197.84H918.752V205.344C918.752 206.005 918.912 206.485 919.232 206.784C919.563 207.072 920.022 207.216 920.608 207.216C920.843 207.216 921.062 207.2 921.264 207.168C921.467 207.136 921.638 207.099 921.776 207.056L921.856 207.936C921.696 207.989 921.494 208.032 921.248 208.064C921.014 208.107 920.774 208.128 920.528 208.128ZM915.856 200.784V199.936H921.792V200.784H915.856ZM925.813 208V199.936H926.837V208H925.813ZM923.973 208V207.152H928.661V208H923.973ZM924.389 200.784V199.936H926.837V200.784H924.389ZM926.325 198.352C926.091 198.352 925.893 198.277 925.733 198.128C925.584 197.968 925.509 197.776 925.509 197.552C925.509 197.403 925.547 197.269 925.621 197.152C925.696 197.035 925.792 196.944 925.909 196.88C926.027 196.805 926.165 196.768 926.325 196.768C926.56 196.768 926.752 196.843 926.901 196.992C927.061 197.141 927.141 197.328 927.141 197.552C927.141 197.701 927.104 197.835 927.029 197.952C926.955 198.069 926.859 198.165 926.741 198.24C926.624 198.315 926.485 198.352 926.325 198.352ZM934.715 208.128C933.968 208.128 933.296 207.947 932.699 207.584C932.112 207.221 931.648 206.725 931.307 206.096C930.965 205.467 930.795 204.757 930.795 203.968C930.795 203.168 930.965 202.459 931.307 201.84C931.648 201.211 932.112 200.715 932.699 200.352C933.296 199.989 933.968 199.808 934.715 199.808C935.323 199.808 935.872 199.915 936.363 200.128C936.853 200.341 937.264 200.64 937.595 201.024C937.925 201.408 938.139 201.861 938.235 202.384L937.227 202.56C937.152 202.187 937.003 201.861 936.779 201.584C936.555 201.296 936.267 201.077 935.915 200.928C935.563 200.779 935.163 200.704 934.715 200.704C934.171 200.704 933.68 200.843 933.243 201.12C932.805 201.397 932.459 201.781 932.203 202.272C931.957 202.763 931.835 203.328 931.835 203.968C931.835 204.597 931.957 205.157 932.203 205.648C932.459 206.139 932.805 206.528 933.243 206.816C933.68 207.093 934.171 207.232 934.715 207.232C935.195 207.232 935.616 207.152 935.979 206.992C936.341 206.832 936.635 206.608 936.859 206.32C937.093 206.032 937.243 205.701 937.307 205.328L938.331 205.456C938.245 205.968 938.043 206.427 937.723 206.832C937.403 207.237 936.981 207.557 936.459 207.792C935.947 208.016 935.365 208.128 934.715 208.128ZM943.581 208.128C942.973 208.128 942.435 208.032 941.965 207.84C941.496 207.637 941.107 207.36 940.797 207.008C940.488 206.645 940.269 206.224 940.141 205.744L941.085 205.472C941.224 206.027 941.507 206.459 941.933 206.768C942.371 207.077 942.915 207.232 943.565 207.232C943.981 207.232 944.339 207.173 944.637 207.056C944.947 206.939 945.187 206.773 945.357 206.56C945.539 206.336 945.629 206.064 945.629 205.744C945.629 205.424 945.539 205.173 945.357 204.992C945.176 204.8 944.931 204.651 944.621 204.544C944.323 204.427 943.992 204.331 943.629 204.256C943.277 204.171 942.92 204.08 942.557 203.984C942.205 203.888 941.875 203.765 941.565 203.616C941.267 203.456 941.021 203.243 940.829 202.976C940.648 202.709 940.557 202.368 940.557 201.952C940.557 201.525 940.675 201.152 940.909 200.832C941.144 200.512 941.469 200.261 941.885 200.08C942.312 199.899 942.797 199.808 943.341 199.808C943.864 199.808 944.339 199.888 944.765 200.048C945.192 200.208 945.555 200.437 945.853 200.736C946.152 201.035 946.36 201.397 946.477 201.824L945.549 202.16C945.4 201.648 945.117 201.28 944.701 201.056C944.296 200.821 943.837 200.704 943.325 200.704C942.995 200.704 942.696 200.752 942.429 200.848C942.163 200.944 941.949 201.083 941.789 201.264C941.64 201.445 941.565 201.664 941.565 201.92C941.565 202.208 941.656 202.437 941.837 202.608C942.029 202.768 942.275 202.901 942.573 203.008C942.872 203.104 943.203 203.195 943.565 203.28C943.928 203.355 944.285 203.445 944.637 203.552C945 203.648 945.331 203.781 945.629 203.952C945.939 204.123 946.184 204.352 946.365 204.64C946.547 204.917 946.637 205.275 946.637 205.712C946.637 206.203 946.504 206.629 946.237 206.992C945.981 207.355 945.619 207.637 945.149 207.84C944.691 208.032 944.168 208.128 943.581 208.128Z" fill="#5F616D"/>
<rect x="682" y="225" width="323" height="167" rx="8" fill="black" fill-opacity="0.2"/>
<rect x="869.999" y="248" width="74" height="8" rx="1" fill="#27282D"/>
<rect x="869.999" y="264" width="119" height="8" rx="1" fill="#27282D"/>
<rect x="869.999" y="280" width="119" height="8" rx="1" fill="#27282D"/>
<rect x="869.999" y="296" width="119" height="8" rx="1" fill="#27282D"/>
<rect x="869.999" y="312" width="99" height="8" rx="1" fill="#27282D"/>
<rect x="869.999" y="328" width="119" height="8" rx="1" fill="#27282D"/>
<rect x="869.999" y="344" width="119" height="8" rx="1" fill="#27282D"/>
<rect x="869.999" y="360" width="119" height="8" rx="1" fill="#27282D"/>
<rect x="692" y="245" width="161" height="123" rx="4" fill="#15161A"/>
<g clip-path="url(#clip3_50_1806)">
<path d="M703 257V357" stroke="#383838" stroke-width="0.5"/>
<path d="M726.333 257V357" stroke="#383838" stroke-width="0.5"/>
<path d="M749.667 257V357" stroke="#383838" stroke-width="0.5"/>
<path d="M773 257V357" stroke="#383838" stroke-width="0.5"/>
<path d="M796.333 257V357" stroke="#383838" stroke-width="0.5"/>
<path d="M819.667 257V357" stroke="#383838" stroke-width="0.5"/>
<path d="M843 257V357" stroke="#383838" stroke-width="0.5"/>
<path d="M703 257H843" stroke="#383838" stroke-width="0.5"/>
<path d="M703 282H843" stroke="#383838" stroke-width="0.5"/>
<path d="M703 307H843" stroke="#383838" stroke-width="0.5"/>
<path d="M703 332H843" stroke="#383838" stroke-width="0.5"/>
<path d="M703 357H843" stroke="#383838" stroke-width="0.5"/>
</g>
<path d="M704 280.13H713.619V288.681H723.384V272.674H733.149V322.668H743.06V311.266H752.679V331H762.589V325.957H772.5V304.03H782.119V297.89H792.03V307.977H811.56V279.252H821.324V265H831.235V271.578H841" stroke="#9CA6B5" stroke-linecap="round"/>
<rect x="748" y="293" width="49" height="11" fill="white" fill-opacity="0.01"/>
<defs>
<linearGradient id="paint0_linear_50_1806" x1="128" y1="293.5" x2="350" y2="293.5" gradientUnits="userSpaceOnUse">
<stop stop-color="#5BA9E1"/>
<stop offset="1" stop-color="#1CE4FF"/>
</linearGradient>
<linearGradient id="paint1_linear_50_1806" x1="229.574" y1="338" x2="350" y2="338" gradientUnits="userSpaceOnUse">
<stop stop-color="#5BA9E1"/>
<stop offset="1" stop-color="#91FF1C"/>
</linearGradient>
<linearGradient id="paint2_linear_50_1806" x1="113" y1="370" x2="350" y2="370" gradientUnits="userSpaceOnUse">
<stop stop-color="#5BA9E1"/>
<stop offset="1" stop-color="#1CFF45"/>
</linearGradient>
<linearGradient id="paint3_linear_50_1806" x1="156.208" y1="258" x2="350" y2="258" gradientUnits="userSpaceOnUse">
<stop stop-color="#5BA9E1"/>
<stop offset="1" stop-color="#FF1C1C"/>
</linearGradient>
<linearGradient id="paint4_linear_50_1806" x1="194.171" y1="227" x2="350" y2="227" gradientUnits="userSpaceOnUse">
<stop stop-color="#5BA9E1"/>
<stop offset="1" stop-color="#FF1C1C"/>
</linearGradient>
<linearGradient id="paint5_linear_50_1806" x1="672" y1="287" x2="546.501" y2="288.144" gradientUnits="userSpaceOnUse">
<stop stop-color="white" stop-opacity="0.8"/>
<stop offset="1" stop-color="#2B2D34"/>
</linearGradient>
<linearGradient id="paint6_linear_50_1806" x1="595" y1="224" x2="595" y2="288" gradientUnits="userSpaceOnUse">
<stop stop-color="white" stop-opacity="0.8"/>
<stop offset="1" stop-color="#2B2D34"/>
</linearGradient>
<linearGradient id="paint7_linear_50_1806" x1="595" y1="268" x2="595" y2="288" gradientUnits="userSpaceOnUse">
<stop stop-color="white" stop-opacity="0.8"/>
<stop offset="1" stop-color="#2B2D34"/>
</linearGradient>
<linearGradient id="paint8_linear_50_1806" x1="595" y1="313" x2="595" y2="288" gradientUnits="userSpaceOnUse">
<stop stop-color="white" stop-opacity="0.8"/>
<stop offset="1" stop-color="#2B2D34"/>
</linearGradient>
<linearGradient id="paint9_linear_50_1806" x1="595.5" y1="352" x2="595.5" y2="288" gradientUnits="userSpaceOnUse">
<stop stop-color="white" stop-opacity="0.8"/>
<stop offset="1" stop-color="#2B2D34"/>
</linearGradient>
<clipPath id="clip0_50_1806">
<rect width="27" height="27" fill="white" transform="translate(98 434)"/>
</clipPath>
<clipPath id="clip1_50_1806">
<rect width="30" height="28" fill="white" transform="translate(178 389)"/>
</clipPath>
<clipPath id="clip2_50_1806">
<rect width="22" height="23" fill="white" transform="translate(73 211)"/>
</clipPath>
<clipPath id="clip3_50_1806">
<rect width="143" height="100" fill="white" transform="translate(700 257)"/>
</clipPath>
</defs>
</svg>
