<svg width="347" height="191" viewBox="0 0 347 191" fill="none" xmlns="http://www.w3.org/2000/svg">
<rect x="0.25" y="0.25" width="346.5" height="190.5" rx="7.75" stroke="#27282D" stroke-width="0.5"/>
<rect x="20.5" y="20.5" width="305" height="62" rx="7.5" fill="#1C1D21"/>
<rect x="20.5" y="20.5" width="305" height="62" rx="7.5" stroke="#15161A"/>
<path d="M40.4166 39.25L45 42.4583L49.5833 39.25" stroke="#3D3E48" stroke-linecap="round" stroke-linejoin="round"/>
<path d="M35.8334 46.5833V37.4166C35.8334 36.4041 36.6542 35.5833 37.6667 35.5833H52.3334C53.3459 35.5833 54.1667 36.4041 54.1667 37.4166V46.5833C54.1667 47.5958 53.3459 48.4166 52.3334 48.4166H37.6667C36.6542 48.4166 35.8334 47.5958 35.8334 46.5833Z" stroke="#3D3E48"/>
<rect x="64" y="35" width="238" height="15" fill="#27282D"/>
<rect x="64" y="57" width="134" height="15" fill="#27282D"/>
<rect x="20" y="91" width="220" height="87" rx="8" fill="#1C1D21"/>
<rect x="40" y="107" width="176" height="15" fill="#27282D"/>
<rect x="40" y="127" width="133" height="15" fill="#27282D"/>
<rect x="40" y="147" width="94" height="15" fill="#27282D"/>
<rect x="228" y="102" width="83" height="24" rx="4" fill="#4A0D0D"/>
<rect x="238" y="111" width="6" height="6" rx="3" fill="#C53434"/>
<path d="M251.484 119V111.291C251.259 111.551 250.964 111.776 250.6 111.967C250.245 112.158 249.833 112.309 249.365 112.422L249.235 111.382C249.53 111.321 249.82 111.226 250.106 111.096C250.392 110.957 250.669 110.788 250.938 110.589C251.207 110.39 251.445 110.16 251.653 109.9H252.667V119H251.484ZM248.988 119V117.986H255.033V119H248.988ZM261.914 119.104C261.446 119.104 261.025 119.013 260.653 118.831C260.289 118.64 260.003 118.372 259.795 118.025C259.587 117.678 259.483 117.254 259.483 116.751V112.448H260.601V116.491C260.601 116.838 260.661 117.137 260.783 117.388C260.913 117.631 261.09 117.817 261.316 117.947C261.55 118.068 261.818 118.129 262.122 118.129C262.555 118.129 262.928 118.012 263.24 117.778C263.56 117.544 263.807 117.21 263.981 116.777C264.154 116.344 264.241 115.837 264.241 115.256V112.448H265.346V119H264.241V117.869C264.102 118.094 263.92 118.302 263.695 118.493C263.478 118.684 263.218 118.835 262.915 118.948C262.611 119.052 262.278 119.104 261.914 119.104ZM267.114 119V112.448H268.219V113.579C268.349 113.354 268.527 113.146 268.752 112.955C268.978 112.764 269.242 112.617 269.545 112.513C269.849 112.4 270.182 112.344 270.546 112.344C271.006 112.344 271.417 112.439 271.781 112.63C272.145 112.812 272.431 113.081 272.639 113.436C272.856 113.783 272.964 114.207 272.964 114.71V119H271.859V114.957C271.859 114.602 271.794 114.303 271.664 114.06C271.534 113.817 271.357 113.635 271.131 113.514C270.906 113.384 270.637 113.319 270.325 113.319C269.901 113.319 269.528 113.436 269.207 113.67C268.895 113.904 268.653 114.238 268.479 114.671C268.306 115.096 268.219 115.603 268.219 116.192V119H267.114ZM274.668 119V112.448H275.773V113.605C275.903 113.328 276.072 113.094 276.28 112.903C276.488 112.712 276.727 112.574 276.995 112.487C277.264 112.392 277.537 112.344 277.814 112.344C277.953 112.344 278.096 112.357 278.243 112.383C278.391 112.4 278.516 112.435 278.62 112.487L278.542 113.54C278.395 113.471 278.252 113.432 278.113 113.423C277.975 113.406 277.836 113.397 277.697 113.397C277.429 113.397 277.173 113.462 276.93 113.592C276.696 113.722 276.493 113.913 276.319 114.164C276.146 114.415 276.012 114.727 275.916 115.1C275.821 115.473 275.773 115.897 275.773 116.374V119H274.668ZM282.022 119.104C281.38 119.104 280.813 118.961 280.319 118.675C279.833 118.38 279.452 117.982 279.175 117.479C278.906 116.968 278.772 116.383 278.772 115.724C278.772 115.23 278.85 114.779 279.006 114.372C279.162 113.956 279.383 113.596 279.669 113.293C279.955 112.99 280.293 112.756 280.683 112.591C281.081 112.426 281.515 112.344 281.983 112.344C282.485 112.344 282.932 112.435 283.322 112.617C283.72 112.79 284.054 113.042 284.323 113.371C284.6 113.692 284.795 114.069 284.908 114.502C285.029 114.927 285.055 115.382 284.986 115.867H279.435V114.983H283.855C283.855 114.628 283.772 114.324 283.608 114.073C283.443 113.822 283.222 113.631 282.945 113.501C282.667 113.362 282.347 113.293 281.983 113.293C281.679 113.293 281.398 113.349 281.138 113.462C280.878 113.575 280.657 113.735 280.475 113.943C280.293 114.151 280.15 114.402 280.046 114.697C279.95 114.992 279.903 115.325 279.903 115.698C279.903 116.175 279.989 116.599 280.163 116.972C280.345 117.336 280.592 117.622 280.904 117.83C281.224 118.038 281.597 118.142 282.022 118.142C282.334 118.142 282.624 118.086 282.893 117.973C283.161 117.852 283.387 117.696 283.569 117.505C283.751 117.306 283.868 117.089 283.92 116.855L284.934 117.115C284.83 117.505 284.643 117.852 284.375 118.155C284.106 118.45 283.768 118.684 283.361 118.857C282.953 119.022 282.507 119.104 282.022 119.104ZM288.362 119.104C287.886 119.104 287.474 119.026 287.127 118.87C286.781 118.705 286.512 118.48 286.321 118.194C286.139 117.908 286.048 117.587 286.048 117.232C286.048 116.573 286.282 116.071 286.75 115.724C287.227 115.377 287.99 115.152 289.038 115.048L290.65 114.879V115.737L289.103 115.919C288.653 115.971 288.284 116.049 287.998 116.153C287.712 116.248 287.5 116.378 287.361 116.543C287.231 116.708 287.166 116.924 287.166 117.193C287.166 117.514 287.283 117.765 287.517 117.947C287.751 118.12 288.063 118.207 288.453 118.207C288.843 118.207 289.186 118.112 289.48 117.921C289.784 117.722 290.018 117.462 290.182 117.141C290.356 116.812 290.442 116.456 290.442 116.075V114.671C290.442 114.376 290.373 114.129 290.234 113.93C290.104 113.731 289.922 113.575 289.688 113.462C289.454 113.349 289.177 113.293 288.856 113.293C288.553 113.293 288.284 113.345 288.05 113.449C287.825 113.544 287.639 113.696 287.491 113.904C287.353 114.112 287.262 114.368 287.218 114.671L286.152 114.489C286.23 114.073 286.386 113.705 286.62 113.384C286.854 113.055 287.162 112.799 287.543 112.617C287.925 112.435 288.362 112.344 288.856 112.344C289.376 112.344 289.84 112.444 290.247 112.643C290.655 112.834 290.975 113.115 291.209 113.488C291.443 113.852 291.56 114.285 291.56 114.788V119H290.442V117.908C290.356 118.116 290.208 118.311 290 118.493C289.792 118.675 289.545 118.822 289.259 118.935C288.973 119.048 288.674 119.104 288.362 119.104ZM296.076 119.104C295.426 119.104 294.854 118.965 294.36 118.688C293.874 118.402 293.493 118.008 293.216 117.505C292.947 116.994 292.813 116.4 292.813 115.724C292.813 115.213 292.891 114.753 293.047 114.346C293.203 113.93 293.424 113.575 293.71 113.28C293.996 112.977 294.338 112.747 294.737 112.591C295.135 112.426 295.582 112.344 296.076 112.344C296.396 112.344 296.704 112.392 296.999 112.487C297.302 112.582 297.566 112.717 297.792 112.89C298.026 113.063 298.208 113.271 298.338 113.514V109.796H299.456V119H298.338V117.921C298.208 118.164 298.026 118.376 297.792 118.558C297.558 118.731 297.293 118.866 296.999 118.961C296.704 119.056 296.396 119.104 296.076 119.104ZM296.141 118.142C296.461 118.142 296.756 118.086 297.025 117.973C297.293 117.852 297.527 117.683 297.727 117.466C297.926 117.249 298.078 116.994 298.182 116.699C298.286 116.404 298.338 116.079 298.338 115.724C298.338 115.247 298.242 114.827 298.052 114.463C297.87 114.099 297.614 113.817 297.285 113.618C296.955 113.41 296.578 113.306 296.154 113.306C295.833 113.306 295.538 113.367 295.27 113.488C295.001 113.609 294.767 113.774 294.568 113.982C294.377 114.19 294.225 114.446 294.113 114.749C294 115.044 293.944 115.369 293.944 115.724C293.944 116.201 294.039 116.621 294.23 116.985C294.42 117.349 294.68 117.635 295.01 117.843C295.339 118.042 295.716 118.142 296.141 118.142Z" fill="#FFEBEB"/>
</svg>
