<svg width="348" height="191" viewBox="0 0 348 191" fill="none" xmlns="http://www.w3.org/2000/svg">
<rect x="0.75" y="0.25" width="346.5" height="190.5" rx="7.75" stroke="#27282D" stroke-width="0.5"/>
<rect x="28" y="11" width="213" height="81" rx="8" fill="#1C1D21"/>
<rect x="44" y="23" width="57" height="15" fill="#27282D"/>
<rect x="106" y="23" width="57" height="15" fill="#27282D"/>
<rect x="168" y="23" width="57" height="15" fill="#27282D"/>
<rect x="44" y="42" width="57" height="15" fill="#27282D"/>
<rect x="106" y="42" width="57" height="15" fill="#27282D"/>
<rect x="168" y="42" width="57" height="15" fill="#27282D"/>
<rect x="44" y="61" width="57" height="15" fill="#27282D"/>
<rect x="106" y="61" width="57" height="15" fill="#27282D"/>
<rect x="168" y="61" width="57" height="15" fill="#27282D"/>
<rect x="103.25" y="20.25" width="124.5" height="58.5" stroke="#999BA3" stroke-width="0.5"/>
<rect x="102.25" y="19.25" width="2.5" height="2.5" fill="#1C1D21" stroke="#999BA3" stroke-width="0.5"/>
<rect x="102.25" y="77.25" width="2.5" height="2.5" fill="#1C1D21" stroke="#999BA3" stroke-width="0.5"/>
<rect x="226.25" y="19.25" width="2.5" height="2.5" fill="#1C1D21" stroke="#999BA3" stroke-width="0.5"/>
<rect x="100" y="98" width="220" height="85" rx="8" fill="#1C1D21"/>
<g clip-path="url(#clip0_13_422)">
<path d="M123.014 111.749C123.543 111.168 124.457 111.168 124.986 111.749L125.666 112.496C125.933 112.789 126.317 112.949 126.714 112.93L127.723 112.883C128.508 112.846 129.154 113.492 129.117 114.277L129.07 115.286C129.051 115.683 129.211 116.067 129.504 116.334L130.251 117.014C130.832 117.543 130.832 118.457 130.251 118.986L129.504 119.666C129.211 119.933 129.051 120.317 129.07 120.714L129.117 121.723C129.154 122.508 128.508 123.154 127.723 123.117L126.714 123.07C126.317 123.051 125.933 123.21 125.666 123.504L124.986 124.251C124.457 124.832 123.543 124.832 123.014 124.251L122.334 123.504C122.067 123.21 121.683 123.051 121.286 123.07L120.277 123.117C119.492 123.154 118.846 122.508 118.883 121.723L118.93 120.714C118.949 120.317 118.789 119.933 118.496 119.666L117.749 118.986C117.168 118.457 117.168 117.543 117.749 117.014L118.496 116.334C118.789 116.067 118.949 115.683 118.93 115.286L118.883 114.277C118.846 113.492 119.492 112.846 120.277 112.883L121.286 112.93C121.683 112.949 122.067 112.789 122.334 112.496L123.014 111.749Z" stroke="#108548"/>
<path d="M122 118L123.333 119.333L126 116.667" stroke="#108548" stroke-linecap="round" stroke-linejoin="round"/>
</g>
<path d="M137.904 122L135.044 114.3H136.419L138.663 120.394L140.907 114.3H142.249L139.378 122H137.904ZM144.656 122.088C144.099 122.088 143.607 121.967 143.182 121.725C142.764 121.476 142.438 121.138 142.203 120.713C141.968 120.28 141.851 119.785 141.851 119.228C141.851 118.81 141.917 118.429 142.049 118.084C142.188 117.732 142.379 117.428 142.621 117.171C142.87 116.914 143.164 116.716 143.501 116.577C143.838 116.438 144.209 116.368 144.612 116.368C145.052 116.368 145.444 116.449 145.789 116.61C146.141 116.764 146.434 116.984 146.669 117.27C146.904 117.549 147.069 117.875 147.164 118.249C147.267 118.623 147.289 119.023 147.23 119.448H142.676V118.535H145.987C145.98 118.286 145.917 118.073 145.8 117.897C145.683 117.714 145.521 117.574 145.316 117.479C145.111 117.384 144.876 117.336 144.612 117.336C144.377 117.336 144.161 117.376 143.963 117.457C143.772 117.538 143.607 117.659 143.468 117.82C143.336 117.981 143.233 118.179 143.16 118.414C143.087 118.641 143.05 118.902 143.05 119.195C143.05 119.569 143.116 119.899 143.248 120.185C143.38 120.464 143.567 120.684 143.809 120.845C144.051 120.999 144.333 121.076 144.656 121.076C144.883 121.076 145.096 121.036 145.294 120.955C145.492 120.867 145.657 120.753 145.789 120.614C145.928 120.467 146.02 120.306 146.064 120.13L147.186 120.427C147.098 120.757 146.933 121.047 146.691 121.296C146.456 121.545 146.163 121.74 145.811 121.879C145.466 122.018 145.081 122.088 144.656 122.088ZM148.282 122V116.456H149.481V117.303C149.591 117.098 149.731 116.925 149.899 116.786C150.068 116.647 150.259 116.544 150.471 116.478C150.684 116.405 150.911 116.368 151.153 116.368C151.263 116.368 151.381 116.379 151.505 116.401C151.637 116.416 151.747 116.441 151.835 116.478L151.747 117.622C151.63 117.571 151.513 117.538 151.395 117.523C151.278 117.508 151.161 117.501 151.043 117.501C150.831 117.501 150.629 117.549 150.438 117.644C150.248 117.739 150.079 117.886 149.932 118.084C149.793 118.275 149.683 118.517 149.602 118.81C149.522 119.103 149.481 119.452 149.481 119.855V122H148.282ZM152.986 122V115.928C152.986 115.51 153.067 115.162 153.228 114.883C153.39 114.604 153.61 114.395 153.888 114.256C154.167 114.117 154.479 114.047 154.823 114.047C154.977 114.047 155.124 114.058 155.263 114.08C155.403 114.102 155.527 114.135 155.637 114.179L155.549 115.213C155.439 115.169 155.337 115.14 155.241 115.125C155.153 115.103 155.062 115.092 154.966 115.092C154.812 115.092 154.677 115.129 154.559 115.202C154.449 115.268 154.361 115.367 154.295 115.499C154.229 115.631 154.196 115.796 154.196 115.994V122H152.986ZM152.073 117.446V116.456H155.549V117.446H152.073ZM156.35 122V116.456H157.549V122H156.35ZM156.35 122V121.01H157.549V122H156.35ZM156.35 117.446V116.456H157.549V117.446H156.35ZM156.955 115.62C156.727 115.62 156.537 115.547 156.383 115.4C156.229 115.253 156.152 115.066 156.152 114.839C156.152 114.685 156.185 114.553 156.251 114.443C156.324 114.326 156.419 114.234 156.537 114.168C156.661 114.095 156.801 114.058 156.955 114.058C157.189 114.058 157.384 114.131 157.538 114.278C157.692 114.425 157.769 114.612 157.769 114.839C157.769 114.986 157.732 115.118 157.659 115.235C157.585 115.352 157.486 115.448 157.362 115.521C157.244 115.587 157.109 115.62 156.955 115.62ZM161.382 122.088C160.824 122.088 160.333 121.967 159.908 121.725C159.49 121.476 159.163 121.138 158.929 120.713C158.694 120.28 158.577 119.785 158.577 119.228C158.577 118.81 158.643 118.429 158.775 118.084C158.914 117.732 159.105 117.428 159.347 117.171C159.596 116.914 159.889 116.716 160.227 116.577C160.564 116.438 160.934 116.368 161.338 116.368C161.778 116.368 162.17 116.449 162.515 116.61C162.867 116.764 163.16 116.984 163.395 117.27C163.629 117.549 163.794 117.875 163.89 118.249C163.992 118.623 164.014 119.023 163.956 119.448H159.402V118.535H162.713C162.705 118.286 162.643 118.073 162.526 117.897C162.408 117.714 162.247 117.574 162.042 117.479C161.836 117.384 161.602 117.336 161.338 117.336C161.103 117.336 160.887 117.376 160.689 117.457C160.498 117.538 160.333 117.659 160.194 117.82C160.062 117.981 159.959 118.179 159.886 118.414C159.812 118.641 159.776 118.902 159.776 119.195C159.776 119.569 159.842 119.899 159.974 120.185C160.106 120.464 160.293 120.684 160.535 120.845C160.777 120.999 161.059 121.076 161.382 121.076C161.609 121.076 161.822 121.036 162.02 120.955C162.218 120.867 162.383 120.753 162.515 120.614C162.654 120.467 162.746 120.306 162.79 120.13L163.912 120.427C163.824 120.757 163.659 121.047 163.417 121.296C163.182 121.545 162.889 121.74 162.537 121.879C162.192 122.018 161.807 122.088 161.382 122.088ZM167.417 122.088C166.874 122.088 166.398 121.971 165.987 121.736C165.576 121.494 165.257 121.16 165.03 120.735C164.81 120.31 164.7 119.807 164.7 119.228C164.7 118.795 164.762 118.403 164.887 118.051C165.019 117.699 165.202 117.398 165.437 117.149C165.679 116.9 165.965 116.709 166.295 116.577C166.632 116.438 167.006 116.368 167.417 116.368C167.674 116.368 167.919 116.405 168.154 116.478C168.389 116.551 168.598 116.654 168.781 116.786C168.964 116.911 169.107 117.057 169.21 117.226V114.212H170.431V122H169.21V121.219C169.107 121.388 168.961 121.538 168.77 121.67C168.587 121.802 168.378 121.905 168.143 121.978C167.916 122.051 167.674 122.088 167.417 122.088ZM167.571 121.054C167.813 121.054 168.033 121.01 168.231 120.922C168.429 120.834 168.601 120.709 168.748 120.548C168.902 120.379 169.016 120.185 169.089 119.965C169.17 119.738 169.21 119.492 169.21 119.228C169.21 118.869 169.14 118.553 169.001 118.282C168.862 118.003 168.667 117.787 168.418 117.633C168.176 117.479 167.894 117.402 167.571 117.402C167.329 117.402 167.105 117.446 166.9 117.534C166.702 117.622 166.53 117.747 166.383 117.908C166.236 118.069 166.123 118.264 166.042 118.491C165.961 118.711 165.921 118.957 165.921 119.228C165.921 119.587 165.991 119.906 166.13 120.185C166.277 120.456 166.471 120.669 166.713 120.823C166.962 120.977 167.248 121.054 167.571 121.054Z" fill="#5F616D"/>
<rect x="116" y="130" width="43.25" height="15" fill="#27282D"/>
<rect x="164.25" y="130" width="43.25" height="15" fill="#27282D"/>
<rect x="212.5" y="130" width="43.25" height="15" fill="#27282D"/>
<rect x="260.75" y="130" width="43.25" height="15" fill="#27282D"/>
<rect x="116" y="149" width="43.25" height="15" fill="#27282D"/>
<rect x="164.25" y="149" width="43.25" height="15" fill="#27282D"/>
<rect x="212.5" y="149" width="43.25" height="15" fill="#27282D"/>
<rect x="260.75" y="149" width="43.25" height="15" fill="#27282D"/>
<rect x="207" y="66" width="81" height="24" rx="4" fill="#999BA3"/>
<g clip-path="url(#clip1_13_422)">
<path d="M222.333 79.9999C225.583 79.9999 227 78.6326 227 75.3333C227 78.6326 228.407 79.9999 231.667 79.9999C228.407 79.9999 227 81.4069 227 84.6666C227 81.4069 225.583 79.9999 222.333 79.9999Z" stroke="#15161A" stroke-linejoin="round"/>
<path d="M218.333 74.3333C220.422 74.3333 221.333 73.4543 221.333 71.3333C221.333 73.4543 222.238 74.3333 224.333 74.3333C222.238 74.3333 221.333 75.2377 221.333 77.3333C221.333 75.2377 220.422 74.3333 218.333 74.3333Z" stroke="#15161A" stroke-linejoin="round"/>
</g>
<path d="M238.001 83V73.9H243.851V74.927H239.197V77.709H243.019V78.736H239.197V81.973H243.877V83H238.001ZM248.966 83L244.52 76.448H245.82L250.266 83H248.966ZM244.364 83L248.797 76.448H250.071L245.638 83H244.364ZM253.49 83.104C253.117 83.104 252.784 83.026 252.489 82.87C252.194 82.714 251.96 82.4843 251.787 82.181C251.622 81.8777 251.54 81.505 251.54 81.063V74.784H252.658V80.972C252.658 81.3533 252.745 81.6393 252.918 81.83C253.091 82.0207 253.325 82.116 253.62 82.116C253.741 82.116 253.858 82.103 253.971 82.077C254.092 82.051 254.205 82.0207 254.309 81.986L254.4 82.935C254.279 82.9957 254.131 83.039 253.958 83.065C253.793 83.091 253.637 83.104 253.49 83.104ZM250.435 77.371V76.448H254.322V77.371H250.435ZM255.492 83V76.448H256.597V77.605C256.727 77.3277 256.896 77.0937 257.104 76.903C257.312 76.7123 257.551 76.5737 257.819 76.487C258.088 76.3917 258.361 76.344 258.638 76.344C258.777 76.344 258.92 76.357 259.067 76.383C259.215 76.4003 259.34 76.435 259.444 76.487L259.366 77.54C259.219 77.4707 259.076 77.4317 258.937 77.423C258.799 77.4057 258.66 77.397 258.521 77.397C258.253 77.397 257.997 77.462 257.754 77.592C257.52 77.722 257.317 77.9127 257.143 78.164C256.97 78.4153 256.836 78.7273 256.74 79.1C256.645 79.4727 256.597 79.8973 256.597 80.374V83H255.492ZM262.141 83.104C261.664 83.104 261.252 83.026 260.906 82.87C260.559 82.7053 260.29 82.48 260.1 82.194C259.918 81.908 259.827 81.5873 259.827 81.232C259.827 80.5733 260.061 80.0707 260.529 79.724C261.005 79.3773 261.768 79.152 262.817 79.048L264.429 78.879V79.737L262.882 79.919C262.431 79.971 262.063 80.049 261.777 80.153C261.491 80.2483 261.278 80.3783 261.14 80.543C261.01 80.7077 260.945 80.9243 260.945 81.193C260.945 81.5137 261.062 81.765 261.296 81.947C261.53 82.1203 261.842 82.207 262.232 82.207C262.622 82.207 262.964 82.1117 263.259 81.921C263.562 81.7217 263.796 81.4617 263.961 81.141C264.134 80.8117 264.221 80.4563 264.221 80.075V78.671C264.221 78.3763 264.151 78.1293 264.013 77.93C263.883 77.7307 263.701 77.5747 263.467 77.462C263.233 77.3493 262.955 77.293 262.635 77.293C262.331 77.293 262.063 77.345 261.829 77.449C261.603 77.5443 261.417 77.696 261.27 77.904C261.131 78.112 261.04 78.3677 260.997 78.671L259.931 78.489C260.009 78.073 260.165 77.7047 260.399 77.384C260.633 77.0547 260.94 76.799 261.322 76.617C261.703 76.435 262.141 76.344 262.635 76.344C263.155 76.344 263.618 76.4437 264.026 76.643C264.433 76.8337 264.754 77.1153 264.988 77.488C265.222 77.852 265.339 78.2853 265.339 78.788V83H264.221V81.908C264.134 82.116 263.987 82.311 263.779 82.493C263.571 82.675 263.324 82.8223 263.038 82.935C262.752 83.0477 262.453 83.104 262.141 83.104ZM269.828 83.104C269.204 83.104 268.645 82.9567 268.151 82.662C267.666 82.3673 267.284 81.9643 267.007 81.453C266.73 80.9417 266.591 80.3653 266.591 79.724C266.591 79.0653 266.73 78.4847 267.007 77.982C267.284 77.4793 267.666 77.0807 268.151 76.786C268.645 76.4913 269.204 76.344 269.828 76.344C270.339 76.344 270.803 76.435 271.219 76.617C271.635 76.7903 271.977 77.0417 272.246 77.371C272.523 77.6917 272.701 78.0817 272.779 78.541L271.674 78.71C271.613 78.424 271.501 78.177 271.336 77.969C271.18 77.7523 270.972 77.5877 270.712 77.475C270.452 77.3623 270.157 77.306 269.828 77.306C269.429 77.306 269.07 77.41 268.749 77.618C268.428 77.8173 268.177 78.099 267.995 78.463C267.813 78.827 267.722 79.2473 267.722 79.724C267.722 80.192 267.813 80.608 267.995 80.972C268.177 81.336 268.428 81.622 268.749 81.83C269.07 82.0293 269.429 82.129 269.828 82.129C270.183 82.129 270.491 82.0727 270.751 81.96C271.02 81.8387 271.236 81.674 271.401 81.466C271.566 81.2493 271.67 81.0023 271.713 80.725L272.844 80.855C272.783 81.297 272.619 81.687 272.35 82.025C272.081 82.363 271.73 82.6273 271.297 82.818C270.864 83.0087 270.374 83.104 269.828 83.104ZM276.367 83.104C275.994 83.104 275.661 83.026 275.366 82.87C275.071 82.714 274.837 82.4843 274.664 82.181C274.499 81.8777 274.417 81.505 274.417 81.063V74.784H275.535V80.972C275.535 81.3533 275.622 81.6393 275.795 81.83C275.968 82.0207 276.202 82.116 276.497 82.116C276.618 82.116 276.735 82.103 276.848 82.077C276.969 82.051 277.082 82.0207 277.186 81.986L277.277 82.935C277.156 82.9957 277.008 83.039 276.835 83.065C276.67 83.091 276.514 83.104 276.367 83.104ZM273.312 77.371V76.448H277.199V77.371H273.312Z" fill="#15161A"/>
<defs>
<clipPath id="clip0_13_422">
<rect width="16" height="16" fill="white" transform="translate(116 110)"/>
</clipPath>
<clipPath id="clip1_13_422">
<rect width="16" height="16" fill="white" transform="translate(217 70)"/>
</clipPath>
</defs>
</svg>
