<svg width="283" height="191" viewBox="0 0 283 191" fill="none" xmlns="http://www.w3.org/2000/svg">
<path d="M40.6079 13.965C39.0577 13.9635 37.5714 13.347 36.4752 12.2509C35.379 11.1547 34.7625 9.66837 34.761 8.11814V5.26903e-07H8.63719C7.63491 -0.00037193 6.64232 0.196721 5.71623 0.580019C4.79013 0.963317 3.94862 1.52531 3.23977 2.2339C2.53092 2.94248 1.96861 3.78379 1.58497 4.70974C1.20132 5.63569 1.00388 6.62814 1.00388 7.63043V53.6285C1.00388 54.6308 1.20132 55.6233 1.58497 56.5492C1.96861 57.4752 2.53092 58.3165 3.23977 59.0251C3.94862 59.7337 4.79013 60.2957 5.71623 60.6789C6.64232 61.0622 7.63491 61.2593 8.63719 61.259H39.9982C42.0219 61.259 43.9628 60.455 45.3938 59.0241C46.8247 57.5931 47.6287 55.6522 47.6287 53.6285V13.965H40.6079Z" fill="#1C1D21"/>
<path d="M47.6246 13.965H40.6038C39.0536 13.9635 37.5673 13.347 36.4711 12.2509C35.3749 11.1547 34.7584 9.66837 34.7569 8.11814V0L47.6246 13.965Z" fill="#3D3E48"/>
<path d="M53.1557 48.377H17.7002C15.1852 48.377 13.1463 50.4158 13.1463 52.9308V63.5017C13.1463 66.0167 15.1852 68.0556 17.7002 68.0556H53.1557C55.6707 68.0556 57.7096 66.0167 57.7096 63.5017V52.9308C57.7096 50.4158 55.6707 48.377 53.1557 48.377Z" fill="#482909"/>
<path d="M23.8266 60.4309V62.4867H21.7V60.4309H23.8266Z" fill="#FEB872"/>
<path d="M31.4565 54.7656C32.1733 55.3471 32.6606 56.1639 32.8317 57.0709H30.6569C30.5107 56.6951 30.2536 56.3726 29.9196 56.1465C29.5689 55.9166 29.1565 55.7989 28.7372 55.8091C28.4603 55.8003 28.1851 55.8553 27.9329 55.9699C27.6806 56.0844 27.4582 56.2555 27.2826 56.4698C26.9227 56.987 26.7297 57.602 26.7297 58.2321C26.7297 58.8622 26.9227 59.4772 27.2826 59.9944C27.459 60.2073 27.6818 60.377 27.9339 60.4906C28.186 60.6041 28.4608 60.6584 28.7372 60.6494C29.1565 60.6596 29.5689 60.5419 29.9196 60.3119C30.2518 60.0889 30.5088 59.7706 30.6569 59.3989H32.8317C32.6568 60.3029 32.1702 61.1167 31.4565 61.6985C30.6887 62.2879 29.7384 62.5889 28.7713 62.5492C28.0112 62.5658 27.2607 62.3767 26.5992 62.0019C25.9785 61.643 25.476 61.1109 25.1531 60.4707C24.8171 59.7703 24.6426 59.0033 24.6426 58.2264C24.6426 57.4495 24.8171 56.6825 25.1531 55.9821C25.476 55.3419 25.9785 54.8098 26.5992 54.4509C27.2607 54.0761 28.0112 53.887 28.7713 53.9036C29.7396 53.8683 30.6897 54.1733 31.4565 54.7656Z" fill="#FEB872"/>
<path d="M39.7426 61.3327C39.4989 61.7233 39.1487 62.0362 38.7331 62.2344C38.229 62.4708 37.6763 62.5854 37.1197 62.569C36.2801 62.603 35.4528 62.3588 34.7662 61.8743C34.4626 61.6468 34.2141 61.3538 34.0393 61.017C33.8646 60.6802 33.768 60.3084 33.7568 59.9291H35.9429C35.9573 60.2144 36.0789 60.4838 36.2833 60.6834C36.4866 60.8733 36.7566 60.9752 37.0347 60.9669C37.2627 60.9785 37.4863 60.9013 37.6585 60.7514C37.7341 60.6781 37.7936 60.5898 37.8331 60.4921C37.8727 60.3944 37.8914 60.2896 37.8882 60.1843C37.8909 60.0848 37.8735 59.9858 37.8369 59.8932C37.8004 59.8006 37.7455 59.7164 37.6755 59.6456C37.5271 59.4937 37.3496 59.3731 37.1537 59.2911C36.9467 59.1975 36.6575 59.0898 36.3031 58.9593C35.854 58.8114 35.4154 58.6333 34.9902 58.4263C34.6401 58.2452 34.3393 57.9814 34.114 57.6578C33.87 57.2607 33.7422 56.803 33.7452 56.3369C33.7482 55.8707 33.8819 55.4148 34.1311 55.0208C34.3977 54.6421 34.7665 54.3471 35.1944 54.1701C35.6874 53.9699 36.2163 53.8734 36.7483 53.8866C37.5539 53.8435 38.3495 54.0809 38.9997 54.5586C39.2734 54.7808 39.4981 55.0572 39.6596 55.3705C39.8211 55.6838 39.916 56.0272 39.9382 56.379H37.718C37.6925 56.1291 37.5849 55.8947 37.4118 55.7127C37.323 55.629 37.2182 55.564 37.1037 55.5216C36.9892 55.4792 36.8674 55.4603 36.7454 55.466C36.5393 55.4594 36.3377 55.5279 36.1783 55.6588C36.1006 55.7303 36.0402 55.8185 36.0014 55.9167C35.9626 56.0149 35.9465 56.1206 35.9543 56.2259C35.9507 56.4155 36.022 56.5989 36.1528 56.7363C36.2939 56.8836 36.4637 57.0004 36.6518 57.0794C36.8532 57.1673 37.1395 57.2807 37.5025 57.4168C37.9599 57.5642 38.4055 57.7462 38.8353 57.9612C39.1889 58.1506 39.493 58.4207 39.7227 58.7495C39.988 59.146 40.1191 59.6171 40.0971 60.0936C40.0965 60.5315 39.9738 60.9607 39.7426 61.3327Z" fill="#FEB872"/>
<path d="M42.8101 53.9971L44.8857 60.3855L46.9642 53.9971H49.1617L46.2071 62.4867H43.553L40.6125 53.9971H42.8101Z" fill="#FEB872"/>
<path d="M34.7124 42.7682H13.9137C12.1131 42.7682 10.65 40.9761 10.65 38.7701V23.6794C10.65 21.4761 12.1131 19.6841 13.9137 19.6841H34.7124C36.513 19.6841 37.9761 21.4761 37.9761 23.6794V38.7616C37.9761 40.9676 36.513 42.7682 34.7124 42.7682ZM13.9137 21.737C13.0347 21.737 12.3202 22.6104 12.3202 23.6879V38.7701C12.3202 39.8476 13.0347 40.7238 13.9137 40.7238H34.7124C35.5914 40.7238 36.3088 39.8476 36.3088 38.7701V23.6794C36.3088 22.6019 35.5914 21.7285 34.7124 21.7285L13.9137 21.737Z" fill="#27282D"/>
<path d="M37.142 33.6777H11.4832V35.7222H37.142V33.6777Z" fill="#27282D"/>
<path d="M37.142 26.6655H11.4832V28.7099H37.142V26.6655Z" fill="#27282D"/>
<path d="M30.5721 20.7051H28.5276V41.7363H30.5721V20.7051Z" fill="#27282D"/>
<path d="M20.0974 20.7051H18.053V41.7363H20.0974V20.7051Z" fill="#27282D"/>
<path d="M153.242 13.965C151.692 13.9635 150.205 13.3471 149.108 12.251C148.012 11.1549 147.395 9.66863 147.392 8.11814V0H121.269C119.245 0 117.304 0.803915 115.873 2.2349C114.442 3.66588 113.638 5.60671 113.638 7.63043V53.6285C113.638 55.6522 114.442 57.5931 115.873 59.0241C117.304 60.455 119.245 61.259 121.269 61.259H152.63C154.653 61.259 156.594 60.455 158.025 59.0241C159.456 57.5931 160.26 55.6522 160.26 53.6285V13.965H153.242Z" fill="#1C1D21"/>
<path d="M160.262 13.965H153.244C151.694 13.9635 150.207 13.3471 149.11 12.251C148.014 11.1549 147.397 9.66863 147.394 8.11814V0L160.262 13.965Z" fill="#3D3E48"/>
<path d="M150.67 42.7683H121.396C121.124 42.7542 120.868 42.6362 120.68 42.4386C120.492 42.241 120.388 41.9789 120.388 41.7064C120.388 41.4339 120.492 41.1718 120.68 40.9742C120.868 40.7766 121.124 40.6586 121.396 40.6445H150.67C150.814 40.637 150.958 40.659 151.094 40.709C151.229 40.759 151.353 40.836 151.457 40.9353C151.562 41.0347 151.645 41.1543 151.702 41.2868C151.759 41.4194 151.789 41.5621 151.789 41.7064C151.789 41.8507 151.759 41.9934 151.702 42.126C151.645 42.2585 151.562 42.3781 151.457 42.4774C151.353 42.5768 151.229 42.6538 151.094 42.7038C150.958 42.7538 150.814 42.7757 150.67 42.7683Z" fill="#27282D"/>
<path d="M150.67 30.7939H121.396C121.124 30.7799 120.868 30.6619 120.68 30.4642C120.492 30.2666 120.388 30.0045 120.388 29.732C120.388 29.4595 120.492 29.1974 120.68 28.9998C120.868 28.8022 121.124 28.6842 121.396 28.6701H150.67C150.814 28.6627 150.958 28.6846 151.094 28.7346C151.229 28.7846 151.353 28.8616 151.457 28.961C151.562 29.0603 151.645 29.1799 151.702 29.3125C151.759 29.445 151.789 29.5878 151.789 29.732C151.789 29.8763 151.759 30.019 151.702 30.1516C151.645 30.2841 151.562 30.4037 151.457 30.5031C151.353 30.6024 151.229 30.6794 151.094 30.7294C150.958 30.7794 150.814 30.8014 150.67 30.7939Z" fill="#27282D"/>
<path d="M150.67 36.7827H121.396C121.124 36.7686 120.868 36.6506 120.68 36.453C120.492 36.2554 120.388 35.9933 120.388 35.7208C120.388 35.4483 120.492 35.1862 120.68 34.9886C120.868 34.791 121.124 34.673 121.396 34.6589H150.67C150.814 34.6514 150.958 34.6734 151.094 34.7234C151.229 34.7734 151.353 34.8504 151.457 34.9497C151.562 35.0491 151.645 35.1687 151.702 35.3012C151.759 35.4338 151.789 35.5765 151.789 35.7208C151.789 35.8651 151.759 36.0078 151.702 36.1404C151.645 36.2729 151.562 36.3925 151.457 36.4918C151.353 36.5912 151.229 36.6682 151.094 36.7182C150.958 36.7682 150.814 36.7902 150.67 36.7827Z" fill="#27282D"/>
<path d="M139.124 24.8052H121.396C121.124 24.7911 120.868 24.6731 120.68 24.4755C120.492 24.2779 120.388 24.0158 120.388 23.7433C120.388 23.4708 120.492 23.2087 120.68 23.0111C120.868 22.8135 121.124 22.6955 121.396 22.6814H139.124C139.396 22.6955 139.653 22.8135 139.84 23.0111C140.028 23.2087 140.132 23.4708 140.132 23.7433C140.132 24.0158 140.028 24.2779 139.84 24.4755C139.653 24.6731 139.396 24.7911 139.124 24.8052Z" fill="#27282D"/>
<path d="M139.124 18.8164H121.396C121.124 18.8024 120.868 18.6844 120.68 18.4868C120.492 18.2892 120.388 18.027 120.388 17.7545C120.388 17.482 120.492 17.2199 120.68 17.0223C120.868 16.8247 121.124 16.7067 121.396 16.6926H139.124C139.396 16.7067 139.653 16.8247 139.84 17.0223C140.028 17.2199 140.132 17.482 140.132 17.7545C140.132 18.027 140.028 18.2892 139.84 18.4868C139.653 18.6844 139.396 18.8024 139.124 18.8164Z" fill="#27282D"/>
<path d="M165.797 48.3772H130.341C127.826 48.3772 125.787 50.416 125.787 52.9311V63.502C125.787 66.017 127.826 68.0558 130.341 68.0558H165.797C168.312 68.0558 170.35 66.017 170.35 63.502V52.9311C170.35 50.416 168.312 48.3772 165.797 48.3772Z" fill="#4A0D0D"/>
<path d="M137.418 60.5046V62.5661H135.283V60.5046H137.418Z" fill="#F49090"/>
<path d="M140.555 59.5745V62.566H138.49V54.0396H141.831C142.846 54.0396 143.618 54.291 144.147 54.7938C144.416 55.0573 144.626 55.3747 144.763 55.7251C144.9 56.0755 144.962 56.451 144.944 56.8269C144.953 57.3229 144.83 57.8123 144.587 58.2447C144.341 58.6694 143.974 59.0103 143.532 59.2229C143.001 59.475 142.418 59.5965 141.831 59.5774L140.555 59.5745ZM142.846 56.8269C142.846 56.0707 142.432 55.6927 141.604 55.6927H140.555V57.9129H141.604C142.432 57.9204 142.846 57.5585 142.846 56.8269Z" fill="#F49090"/>
<path d="M153.09 60.5103C152.734 61.1552 152.197 61.6816 151.545 62.0244C150.813 62.3996 149.999 62.5857 149.177 62.566H145.956V54.0396H149.177C150.001 54.0196 150.816 54.2016 151.553 54.5698C152.202 54.9066 152.737 55.4274 153.09 56.067C153.443 56.7546 153.626 57.516 153.626 58.2886C153.626 59.0612 153.443 59.8227 153.09 60.5103ZM150.87 60.0821C151.302 59.5833 151.539 58.9456 151.539 58.2858C151.539 57.626 151.302 56.9883 150.87 56.4895C150.354 56.0367 149.681 55.8063 148.996 55.8487H148.017V60.7201H149.01C149.689 60.7585 150.357 60.5295 150.87 60.0821Z" fill="#F49090"/>
<path d="M160.352 54.0396V55.6813H156.856V57.5499H159.558V59.118H156.856V62.566H154.794V54.0396H160.352Z" fill="#F49090"/>
<path d="M150.151 16.6926H145.138C144.264 16.6926 143.556 17.401 143.556 18.2749V23.2881C143.556 24.1619 144.264 24.8703 145.138 24.8703H150.151C151.025 24.8703 151.733 24.1619 151.733 23.2881V18.2749C151.733 17.401 151.025 16.6926 150.151 16.6926Z" fill="#27282D"/>
<path d="M265.883 13.965C264.332 13.9635 262.846 13.3471 261.749 12.251C260.653 11.1549 260.035 9.66863 260.033 8.11814V0H233.909C231.886 0 229.945 0.803915 228.514 2.2349C227.083 3.66588 226.279 5.60671 226.279 7.63043V53.6285C226.279 55.6522 227.083 57.5931 228.514 59.0241C229.945 60.455 231.886 61.259 233.909 61.259H265.27C267.294 61.259 269.235 60.455 270.666 59.0241C272.097 57.5931 272.901 55.6522 272.901 53.6285V13.965H265.883Z" fill="#1C1D21"/>
<path d="M272.903 13.965H265.885C264.334 13.9635 262.848 13.3471 261.751 12.251C260.655 11.1549 260.037 9.66863 260.035 8.11814V0L272.903 13.965Z" fill="#3D3E48"/>
<path d="M263.308 23.7419H234.034C233.762 23.7279 233.505 23.6099 233.318 23.4122C233.13 23.2146 233.025 22.9525 233.025 22.68C233.025 22.4075 233.13 22.1454 233.318 21.9478C233.505 21.7502 233.762 21.6322 234.034 21.6181H263.308C263.452 21.6107 263.596 21.6326 263.731 21.6826C263.867 21.7326 263.99 21.8096 264.095 21.909C264.2 22.0083 264.283 22.1279 264.34 22.2605C264.397 22.393 264.426 22.5358 264.426 22.68C264.426 22.8243 264.397 22.967 264.34 23.0996C264.283 23.2321 264.2 23.3517 264.095 23.4511C263.99 23.5504 263.867 23.6274 263.731 23.6774C263.596 23.7274 263.452 23.7494 263.308 23.7419Z" fill="#27282D"/>
<path d="M263.308 30.0852H234.034C233.762 30.0711 233.505 29.9531 233.318 29.7555C233.13 29.5579 233.025 29.2958 233.025 29.0233C233.025 28.7508 233.13 28.4887 233.318 28.2911C233.505 28.0935 233.762 27.9754 234.034 27.9614H263.308C263.452 27.9539 263.596 27.9759 263.731 28.0259C263.867 28.0759 263.99 28.1529 264.095 28.2522C264.2 28.3516 264.283 28.4712 264.34 28.6037C264.397 28.7363 264.426 28.879 264.426 29.0233C264.426 29.1675 264.397 29.3103 264.34 29.4429C264.283 29.5754 264.2 29.695 264.095 29.7943C263.99 29.8937 263.867 29.9707 263.731 30.0207C263.596 30.0707 263.452 30.0926 263.308 30.0852Z" fill="#27282D"/>
<path d="M263.308 36.4282H234.034C233.762 36.4141 233.505 36.2961 233.318 36.0985C233.13 35.9009 233.025 35.6388 233.025 35.3663C233.025 35.0938 233.13 34.8317 233.318 34.6341C233.505 34.4365 233.762 34.3185 234.034 34.3044H263.308C263.452 34.2969 263.596 34.3189 263.731 34.3689C263.867 34.4189 263.99 34.4959 264.095 34.5953C264.2 34.6946 264.283 34.8142 264.34 34.9467C264.397 35.0793 264.426 35.222 264.426 35.3663C264.426 35.5106 264.397 35.6533 264.34 35.7859C264.283 35.9184 264.2 36.038 264.095 36.1374C263.99 36.2367 263.867 36.3137 263.731 36.3637C263.596 36.4137 263.452 36.4357 263.308 36.4282Z" fill="#27282D"/>
<path d="M251.761 42.7683H234.034C233.762 42.7542 233.505 42.6362 233.318 42.4386C233.13 42.241 233.025 41.9789 233.025 41.7064C233.025 41.4339 233.13 41.1718 233.318 40.9742C233.505 40.7766 233.762 40.6586 234.034 40.6445H251.761C251.906 40.637 252.05 40.659 252.185 40.709C252.32 40.759 252.444 40.836 252.549 40.9353C252.653 41.0347 252.737 41.1543 252.793 41.2868C252.85 41.4194 252.88 41.5621 252.88 41.7064C252.88 41.8507 252.85 41.9934 252.793 42.126C252.737 42.2585 252.653 42.3781 252.549 42.4774C252.444 42.5768 252.32 42.6538 252.185 42.7038C252.05 42.7538 251.906 42.7757 251.761 42.7683Z" fill="#27282D"/>
<path d="M278.437 48.377H242.982C240.467 48.377 238.428 50.4158 238.428 52.9308V63.5017C238.428 66.0167 240.467 68.0556 242.982 68.0556H278.437C280.952 68.0556 282.991 66.0167 282.991 63.5017V52.9308C282.991 50.4158 280.952 48.377 278.437 48.377Z" fill="#05205E"/>
<path d="M243.625 60.5046V62.5661H241.49V60.5046H243.625Z" fill="#8DB0FB"/>
<path d="M251.848 60.5104C251.491 61.1547 250.954 61.6809 250.302 62.0245C249.569 62.3997 248.755 62.5858 247.932 62.5661H244.713V54.0397H247.932C248.755 54.019 249.571 54.201 250.308 54.5699C250.957 54.9065 251.493 55.4273 251.848 56.0671C252.2 56.7547 252.384 57.5161 252.384 58.2887C252.384 59.0613 252.2 59.8228 251.848 60.5104ZM249.627 60.0822C250.059 59.5833 250.297 58.9457 250.297 58.2859C250.297 57.6261 250.059 56.9884 249.627 56.4896C249.112 56.0368 248.438 55.8064 247.753 55.8488H246.775V60.7202H247.753C248.433 60.7586 249.1 60.5296 249.613 60.0822H249.627Z" fill="#8DB0FB"/>
<path d="M259.788 54.468C260.437 54.8357 260.974 55.374 261.339 56.0248C261.713 56.7162 261.909 57.49 261.909 58.2762C261.909 59.0623 261.713 59.8361 261.339 60.5276C260.972 61.1802 260.434 61.7203 259.782 62.09C259.116 62.4581 258.367 62.6512 257.606 62.6512C256.845 62.6512 256.096 62.4581 255.43 62.09C254.778 61.7203 254.24 61.1802 253.873 60.5276C253.497 59.8367 253.3 59.0627 253.3 58.2762C253.3 57.4896 253.497 56.7156 253.873 56.0248C254.242 55.3749 254.78 54.8371 255.43 54.468C256.098 54.0997 256.849 53.9065 257.612 53.9065C258.375 53.9065 259.125 54.0997 259.794 54.468H259.788ZM255.991 56.4813C255.603 56.997 255.393 57.625 255.393 58.2705C255.393 58.916 255.603 59.544 255.991 60.0597C256.419 60.4831 256.996 60.7206 257.597 60.7206C258.199 60.7206 258.776 60.4831 259.204 60.0597C259.594 59.5463 259.805 58.9194 259.805 58.2748C259.805 57.6301 259.594 57.0032 259.204 56.4898C258.775 56.0674 258.197 55.8307 257.595 55.8307C256.993 55.8307 256.415 56.0674 255.986 56.4898L255.991 56.4813Z" fill="#8DB0FB"/>
<path d="M269.648 54.8108C270.366 55.3968 270.855 56.217 271.028 57.1275H268.845C268.697 56.7497 268.438 56.4256 268.102 56.1974C267.749 55.9673 267.335 55.8497 266.914 55.86C266.636 55.8509 266.36 55.906 266.108 56.0211C265.855 56.1362 265.632 56.3081 265.457 56.5235C265.095 57.0431 264.901 57.6611 264.901 58.2943C264.901 58.9275 265.095 59.5454 265.457 60.0651C265.633 60.2784 265.857 60.4484 266.109 60.5619C266.362 60.6755 266.637 60.7296 266.914 60.7201C267.335 60.7317 267.75 60.6139 268.102 60.3827C268.436 60.1586 268.695 59.8396 268.845 59.4668H271.028C270.851 60.3744 270.363 61.1918 269.648 61.7777C268.875 62.367 267.921 62.6679 266.951 62.6284C266.187 62.6445 265.433 62.4545 264.768 62.0783C264.145 61.7172 263.641 61.1834 263.316 60.5415C262.978 59.8375 262.803 59.0666 262.803 58.2858C262.803 57.505 262.978 56.7341 263.316 56.0301C263.641 55.3882 264.145 54.8544 264.768 54.4932C265.433 54.1171 266.187 53.9271 266.951 53.9432C267.923 53.9097 268.877 54.2165 269.648 54.8108Z" fill="#8DB0FB"/>
<path d="M277.368 62.566L275.574 59.912L274.028 62.566H271.666L274.391 58.1766L271.581 54.0396H274.028L275.778 56.6085L277.286 54.0396H279.637L276.949 58.3326L279.818 62.566H277.368Z" fill="#8DB0FB"/>
<path d="M40.2423 99.0212C38.6921 99.0197 37.2058 98.4032 36.1096 97.307C35.0135 96.2108 34.3969 94.7245 34.3954 93.1743V85.0562H8.27165C7.26937 85.0558 6.27678 85.2529 5.35069 85.6362C4.42459 86.0195 3.58308 86.5815 2.87423 87.29C2.16538 87.9986 1.60307 88.8399 1.21943 89.7659C0.835785 90.6918 0.638336 91.6843 0.638336 92.6866V138.685C0.638336 139.687 0.835785 140.679 1.21943 141.605C1.60307 142.531 2.16538 143.373 2.87423 144.081C3.58308 144.79 4.42459 145.352 5.35069 145.735C6.27678 146.118 7.26937 146.315 8.27165 146.315H39.6327C41.6564 146.315 43.5972 145.511 45.0282 144.08C46.4592 142.649 47.2631 140.708 47.2631 138.685V99.0212H40.2423Z" fill="#1C1D21"/>
<path d="M47.6246 99.0207H40.6038C39.0533 99.0184 37.567 98.4013 36.4709 97.3047C35.3748 96.2081 34.7584 94.7215 34.7569 93.171V85.0557L47.6246 99.0207Z" fill="#3D3E48"/>
<path d="M53.1557 133.43H17.7002C15.1852 133.43 13.1463 135.469 13.1463 137.984V148.555C13.1463 151.07 15.1852 153.109 17.7002 153.109H53.1557C55.6707 153.109 57.7096 151.07 57.7096 148.555V137.984C57.7096 135.469 55.6707 133.43 53.1557 133.43Z" fill="#05205E"/>
<path d="M23.4185 145.56V147.622H21.2834V145.56H23.4185Z" fill="#8DB0FB"/>
<path d="M26.5553 144.628V147.619H24.4939V139.093H27.8341C28.8464 139.093 29.6177 139.342 30.1479 139.847C30.4164 140.11 30.6262 140.427 30.7635 140.777C30.9008 141.127 30.9626 141.502 30.9447 141.877C30.9525 142.372 30.8303 142.861 30.5903 143.295C30.3424 143.718 29.9743 144.059 29.5326 144.273C29.0013 144.523 28.4184 144.645 27.8313 144.628H26.5553ZM28.8464 141.877C28.8464 141.132 28.4324 140.754 27.6044 140.743H26.5553V142.96H27.6044C28.4324 142.972 28.8464 142.611 28.8464 141.88V141.877Z" fill="#8DB0FB"/>
<path d="M39.5301 147.622H37.4687L34.0206 142.388V147.622H31.9564V139.095H34.0206L37.4687 144.378V139.095H39.5301V147.622Z" fill="#8DB0FB"/>
<path d="M47.5921 139.807C48.2795 140.323 48.7424 141.083 48.8852 141.931H46.7018C46.5593 141.626 46.3279 141.372 46.0383 141.202C45.6156 140.971 45.1291 140.884 44.6524 140.953C44.1757 141.023 43.7345 141.245 43.3955 141.588C42.9807 142.084 42.7699 142.72 42.8058 143.366C42.8058 144.179 43.0128 144.8 43.4267 145.234C43.6591 145.461 43.9364 145.636 44.2407 145.748C44.545 145.86 44.8696 145.907 45.1933 145.886C45.6557 145.896 46.1085 145.754 46.4835 145.484C46.8662 145.197 47.1426 144.791 47.2689 144.33H44.663V142.847H48.9929V144.885C48.8264 145.392 48.5646 145.863 48.2216 146.272C47.8496 146.712 47.3861 147.067 46.8634 147.31C46.2733 147.584 45.6284 147.72 44.9778 147.707C44.1866 147.728 43.404 147.539 42.7094 147.16C42.0746 146.803 41.5573 146.269 41.2207 145.623C40.875 144.921 40.6952 144.149 40.6952 143.367C40.6952 142.585 40.875 141.813 41.2207 141.111C41.5561 140.466 42.0712 139.933 42.7037 139.574C43.3877 139.197 44.1596 139.007 44.9409 139.024C45.8871 138.983 46.8202 139.258 47.5921 139.807Z" fill="#8DB0FB"/>
<path d="M30.8537 126.571H18.3405C17.1144 126.57 15.939 126.082 15.072 125.215C14.205 124.348 13.7173 123.172 13.7158 121.946V109.422C13.7173 108.196 14.2051 107.021 15.0722 106.154C15.9393 105.288 17.1147 104.801 18.3405 104.8H30.8651C32.0904 104.801 33.2652 105.289 34.1316 106.155C34.9981 107.022 35.4855 108.196 35.487 109.422V121.943C35.487 122.552 35.3672 123.154 35.1342 123.716C34.9013 124.277 34.5599 124.788 34.1296 125.218C33.6993 125.647 33.1885 125.988 32.6264 126.22C32.0643 126.453 31.4619 126.572 30.8537 126.571ZM18.3405 106.844C17.6569 106.845 17.0015 107.117 16.5178 107.6C16.0341 108.083 15.7617 108.738 15.7602 109.422V121.943C15.7609 122.628 16.0331 123.283 16.5168 123.767C17.0006 124.251 17.6564 124.523 18.3405 124.524H30.8651C31.5487 124.522 32.2039 124.25 32.687 123.766C33.1701 123.283 33.4419 122.627 33.4426 121.943V109.419C33.4419 108.736 33.1701 108.08 32.6869 107.597C32.2037 107.114 31.5485 106.842 30.8651 106.841L18.3405 106.844Z" fill="#27282D"/>
<path d="M34.4559 119.564V121.946C34.4559 122.901 34.0765 123.817 33.4011 124.493C32.7258 125.168 31.8098 125.547 30.8547 125.547H18.3415C17.8684 125.548 17.3998 125.455 16.9626 125.274C16.5253 125.093 16.128 124.828 15.7933 124.494C15.4586 124.159 15.193 123.762 15.0119 123.325C14.8307 122.888 14.7375 122.419 14.7375 121.946V117.954C16.7451 117.523 19.799 117.387 23.505 118.87L25.8018 116.678L27.367 120.647C27.367 120.647 27.7867 119.187 29.1421 119.394C30.4975 119.601 32.6921 120.336 33.6307 119.709C33.8797 119.564 34.1724 119.513 34.4559 119.564Z" fill="#27282D"/>
<path d="M30.0693 111.979C30.8383 111.979 31.4616 111.356 31.4616 110.587C31.4616 109.818 30.8383 109.195 30.0693 109.195C29.3004 109.195 28.6771 109.818 28.6771 110.587C28.6771 111.356 29.3004 111.979 30.0693 111.979Z" fill="#27282D"/>
<path d="M153.242 99.0212C151.692 99.0197 150.206 98.4032 149.11 97.307C148.013 96.2108 147.397 94.7245 147.395 93.1743V85.0562H121.272C120.269 85.0558 119.277 85.2529 118.351 85.6362C117.425 86.0195 116.583 86.5815 115.874 87.29C115.165 87.9986 114.603 88.8399 114.219 89.7659C113.836 90.6918 113.638 91.6843 113.638 92.6866V138.685C113.638 139.687 113.836 140.679 114.219 141.605C114.603 142.531 115.165 143.373 115.874 144.081C116.583 144.79 117.425 145.352 118.351 145.735C119.277 146.118 120.269 146.315 121.272 146.315H152.633C154.656 146.315 156.597 145.511 158.028 144.08C159.459 142.649 160.263 140.708 160.263 138.685V99.0212H153.242Z" fill="#1C1D21"/>
<path d="M160.266 99.0207H153.245C151.695 99.0192 150.208 98.4027 149.112 97.3065C148.016 96.2103 147.399 94.724 147.398 93.1738V85.0557L160.266 99.0207Z" fill="#3D3E48"/>
<path d="M165.797 133.433H130.341C127.826 133.433 125.787 135.472 125.787 137.987V148.558C125.787 151.073 127.826 153.112 130.341 153.112H165.797C168.312 153.112 170.351 151.073 170.351 148.558V137.987C170.351 135.472 168.312 133.433 165.797 133.433Z" fill="#072914"/>
<path d="M139.262 147.764V139.824H144.786V141.355H141.066V142.887H144.06V144.418H141.066V146.232H144.842V147.764H139.262ZM150.14 147.764L145.342 139.824H147.429L152.238 147.764H150.14ZM145.138 147.764L149.936 139.824H151.943L147.146 147.764H145.138ZM152.82 147.764V139.824H154.623V146.232H158.207V147.764H152.82ZM161.649 147.854C161.089 147.854 160.579 147.756 160.118 147.56C159.657 147.363 159.267 147.079 158.95 146.709C158.632 146.338 158.409 145.892 158.28 145.37L159.914 144.894C160.027 145.34 160.239 145.692 160.549 145.949C160.866 146.198 161.233 146.323 161.649 146.323C161.861 146.323 162.05 146.297 162.216 146.244C162.382 146.183 162.515 146.089 162.613 145.96C162.719 145.832 162.772 145.669 162.772 145.473C162.772 145.276 162.696 145.117 162.545 144.996C162.394 144.875 162.197 144.777 161.955 144.701C161.713 144.618 161.449 144.539 161.161 144.463C160.874 144.38 160.583 144.285 160.288 144.18C160.001 144.074 159.736 143.934 159.494 143.76C159.252 143.586 159.055 143.363 158.904 143.091C158.753 142.811 158.677 142.463 158.677 142.047C158.677 141.578 158.806 141.174 159.063 140.834C159.32 140.486 159.66 140.217 160.084 140.028C160.507 139.832 160.972 139.733 161.479 139.733C161.985 139.733 162.447 139.82 162.863 139.994C163.286 140.161 163.645 140.399 163.94 140.709C164.235 141.011 164.435 141.363 164.541 141.764L162.965 142.387C162.851 142.032 162.666 141.756 162.409 141.56C162.152 141.363 161.842 141.265 161.479 141.265C161.275 141.265 161.097 141.291 160.946 141.344C160.795 141.397 160.677 141.476 160.594 141.582C160.519 141.688 160.481 141.813 160.481 141.956C160.481 142.138 160.553 142.282 160.696 142.387C160.847 142.486 161.044 142.573 161.286 142.648C161.536 142.716 161.804 142.784 162.091 142.853C162.379 142.921 162.666 143.011 162.953 143.125C163.248 143.231 163.517 143.374 163.759 143.556C164.001 143.737 164.193 143.975 164.337 144.27C164.488 144.558 164.564 144.921 164.564 145.359C164.564 145.881 164.435 146.331 164.178 146.709C163.921 147.079 163.573 147.363 163.135 147.56C162.696 147.756 162.201 147.854 161.649 147.854Z" fill="#52B87A"/>
<path d="M136.468 145.487V147.543H134.341V145.487H136.468Z" fill="#52B87A"/>
<path d="M147.353 127.824H126.555C124.754 127.824 123.291 126.032 123.291 123.826V108.736C123.291 106.532 124.754 104.74 126.555 104.74H147.353C149.154 104.74 150.617 106.532 150.617 108.736V123.818C150.617 126.024 149.154 127.824 147.353 127.824ZM126.555 106.793C125.676 106.793 124.961 107.667 124.961 108.744V123.826C124.961 124.904 125.676 125.78 126.555 125.78H147.353C148.232 125.78 148.95 124.904 148.95 123.826V108.736C148.95 107.658 148.232 106.785 147.353 106.785L126.555 106.793Z" fill="#27282D"/>
<path d="M149.783 118.733H124.124V120.778H149.783V118.733Z" fill="#27282D"/>
<path d="M149.783 111.721H124.124V113.766H149.783V111.721Z" fill="#27282D"/>
<path d="M143.21 105.761H141.165V126.792H143.21V105.761Z" fill="#27282D"/>
<path d="M132.738 105.761H130.694V126.792H132.738V105.761Z" fill="#27282D"/>
<path d="M265.883 99.0212C264.332 99.0197 262.845 98.4029 261.748 97.3062C260.652 96.2095 260.035 94.7224 260.033 93.1715V85.0562H233.91C231.886 85.0562 229.945 85.8601 228.514 87.291C227.083 88.722 226.279 90.6628 226.279 92.6866V138.673C226.279 139.675 226.477 140.668 226.86 141.593C227.244 142.519 227.806 143.36 228.514 144.069C229.223 144.777 230.064 145.339 230.99 145.723C231.915 146.106 232.908 146.304 233.91 146.304H265.271C267.294 146.304 269.235 145.5 270.666 144.069C272.097 142.638 272.901 140.697 272.901 138.673V99.0212H265.883Z" fill="#1C1D21"/>
<path d="M272.903 99.0207H265.885C264.334 99.0192 262.847 98.4024 261.75 97.3057C260.654 96.209 260.037 94.722 260.035 93.171V85.0557L272.903 99.0207Z" fill="#3D3E48"/>
<path d="M278.438 133.43H242.982C240.467 133.43 238.428 135.469 238.428 137.984V148.555C238.428 151.07 240.467 153.109 242.982 153.109H278.438C280.953 153.109 282.991 151.07 282.991 148.555V137.984C282.991 135.469 280.953 133.43 278.438 133.43Z" fill="#3B0764"/>
<path d="M250.162 145.561V147.622H248.027V145.561H250.162Z" fill="#9E7EE5"/>
<path d="M256.492 139.095V144.911C256.492 145.805 256.249 146.492 255.763 146.973C255.492 147.223 255.174 147.417 254.826 147.542C254.479 147.667 254.11 147.72 253.741 147.698C253.338 147.72 252.934 147.661 252.553 147.525C252.172 147.389 251.823 147.179 251.524 146.907C250.976 146.38 250.701 145.624 250.701 144.639H252.74C252.74 145.435 253.042 145.833 253.645 145.833C254.166 145.833 254.43 145.529 254.43 144.917V139.093L256.492 139.095Z" fill="#9E7EE5"/>
<path d="M259.918 144.628V147.619H257.857V139.093H261.205C262.218 139.093 262.989 139.342 263.519 139.847C263.788 140.11 263.997 140.427 264.135 140.777C264.272 141.127 264.334 141.502 264.316 141.877C264.324 142.372 264.201 142.861 263.961 143.295C263.714 143.718 263.345 144.059 262.904 144.273C262.372 144.523 261.79 144.645 261.202 144.628H259.918ZM262.209 141.877C262.209 141.132 261.795 140.754 260.967 140.743H259.918V142.96H260.967C261.795 142.972 262.209 142.611 262.209 141.88V141.877Z" fill="#9E7EE5"/>
<path d="M271.955 139.807C272.64 140.324 273.102 141.084 273.245 141.931H271.062C270.919 141.627 270.688 141.373 270.398 141.202C269.975 140.971 269.489 140.884 269.012 140.953C268.536 141.023 268.094 141.246 267.755 141.588C267.341 142.084 267.13 142.72 267.166 143.366C267.166 144.18 267.373 144.801 267.787 145.234C268.019 145.461 268.296 145.636 268.601 145.748C268.905 145.86 269.229 145.908 269.553 145.887C270.017 145.895 270.471 145.752 270.846 145.478C271.229 145.192 271.505 144.786 271.632 144.324H269.026V142.841H273.356V144.88C273.189 145.387 272.927 145.858 272.584 146.267C272.212 146.707 271.749 147.061 271.226 147.304C270.636 147.579 269.991 147.714 269.34 147.701C268.549 147.722 267.767 147.533 267.072 147.154C266.437 146.797 265.92 146.263 265.583 145.617C265.238 144.916 265.058 144.144 265.058 143.362C265.058 142.579 265.238 141.808 265.583 141.106C265.919 140.461 266.434 139.927 267.066 139.569C267.75 139.192 268.522 139.002 269.304 139.019C270.25 138.98 271.183 139.258 271.955 139.807Z" fill="#9E7EE5"/>
<path d="M255.854 126.571H243.341C242.114 126.57 240.939 126.082 240.072 125.215C239.205 124.348 238.717 123.172 238.716 121.946V109.422C238.717 108.196 239.205 107.021 240.072 106.154C240.939 105.288 242.115 104.801 243.341 104.8H255.865C257.09 104.801 258.265 105.289 259.132 106.155C259.998 107.022 260.486 108.196 260.487 109.422V121.943C260.487 122.552 260.367 123.154 260.134 123.716C259.901 124.277 259.56 124.788 259.13 125.218C258.699 125.647 258.189 125.988 257.626 126.22C257.064 126.453 256.462 126.572 255.854 126.571ZM243.341 106.844C242.657 106.845 242.001 107.117 241.518 107.6C241.034 108.083 240.762 108.738 240.76 109.422V121.943C240.761 122.628 241.033 123.283 241.517 123.767C242.001 124.251 242.656 124.523 243.341 124.524H255.865C256.549 124.522 257.204 124.25 257.687 123.766C258.17 123.283 258.442 122.627 258.443 121.943V109.419C258.442 108.736 258.17 108.08 257.687 107.597C257.204 107.114 256.548 106.842 255.865 106.841L243.341 106.844Z" fill="#27282D"/>
<path d="M259.456 119.564V121.946C259.456 122.901 259.076 123.817 258.401 124.493C257.726 125.168 256.81 125.547 255.855 125.547H243.342C242.868 125.548 242.4 125.455 241.963 125.274C241.525 125.093 241.128 124.828 240.793 124.494C240.459 124.159 240.193 123.762 240.012 123.325C239.831 122.888 239.738 122.419 239.738 121.946V117.954C241.745 117.523 244.799 117.387 248.505 118.87L250.802 116.678L252.367 120.647C252.367 120.647 252.787 119.187 254.142 119.394C255.497 119.601 257.692 120.336 258.631 119.709C258.88 119.564 259.172 119.513 259.456 119.564Z" fill="#27282D"/>
<path d="M255.069 111.979C255.838 111.979 256.462 111.356 256.462 110.587C256.462 109.818 255.838 109.195 255.069 109.195C254.3 109.195 253.677 109.818 253.677 110.587C253.677 111.356 254.3 111.979 255.069 111.979Z" fill="#27282D"/>
</svg>
