<svg width="29" height="28" viewBox="0 0 29 28" fill="none" xmlns="http://www.w3.org/2000/svg">
<path d="M8.66669 22.6334V5.36675C8.66669 4.98015 8.98009 4.66675 9.36669 4.66675H19.6334C20.02 4.66675 20.3334 4.98015 20.3334 5.36675V22.6334C20.3334 23.02 20.02 23.3334 19.6334 23.3334H9.36669C8.98009 23.3334 8.66669 23.02 8.66669 22.6334Z" stroke="white" stroke-linecap="round" stroke-linejoin="round"/>
<path d="M16.8333 23.3333V26.2499" stroke="white" stroke-linecap="round" stroke-linejoin="round"/>
<path d="M12.1667 23.3333V26.2499" stroke="white" stroke-linecap="round" stroke-linejoin="round"/>
<path d="M16.8333 4.66667V1.75" stroke="white" stroke-linecap="round" stroke-linejoin="round"/>
<path d="M12.1667 4.66667V1.75" stroke="white" stroke-linecap="round" stroke-linejoin="round"/>
<path d="M8.66667 14H5.75" stroke="white" stroke-linecap="round" stroke-linejoin="round"/>
<path d="M23.25 14H20.3333" stroke="white" stroke-linecap="round" stroke-linejoin="round"/>
<path d="M8.66667 7.58325H5.75" stroke="white" stroke-linecap="round" stroke-linejoin="round"/>
<path d="M23.25 7.58325H20.3333" stroke="white" stroke-linecap="round" stroke-linejoin="round"/>
<path d="M8.66667 20.4167H5.75" stroke="white" stroke-linecap="round" stroke-linejoin="round"/>
<path d="M23.25 20.4167H20.3333" stroke="white" stroke-linecap="round" stroke-linejoin="round"/>
</svg>
